<svg xmlns="http://www.w3.org/2000/svg" xmlns:xlink="http://www.w3.org/1999/xlink" xmlns:lucid="lucid" width="1660" height="651.4"><g transform="translate(3520 -320)" lucid:page-tab-id="0_0"><path d="M-2300 640.4c0-.55.45-1 1-1h418c.55 0 1 .45 1 1v310c0 .55-.45 1-1 1h-418c-.55 0-1-.45-1-1z" stroke="#4f0006" stroke-width="1.5" fill="#fff0e5"/><path d="M-2300 682.07h420m-420 59.2h420" stroke="#4f0006" stroke-width="1.5" fill="none"/><use xlink:href="#a" transform="matrix(1,0,0,1,-2292,647.4000000000001) translate(145.98148148148147 17.944444444444443)"/><use xlink:href="#b" transform="matrix(1,0,0,1,-2288,690.0666666666667) translate(0 14.799999999999999)"/><use xlink:href="#c" transform="matrix(1,0,0,1,-2288,690.0666666666667) translate(10.95 14.799999999999999)"/><use xlink:href="#d" transform="matrix(1,0,0,1,-2288,690.0666666666667) translate(62.849999999999994 14.799999999999999)"/><use xlink:href="#e" transform="matrix(1,0,0,1,-2288,690.0666666666667) translate(72.85 14.799999999999999)"/><use xlink:href="#b" transform="matrix(1,0,0,1,-2288,690.0666666666667) translate(0 36.4)"/><use xlink:href="#f" transform="matrix(1,0,0,1,-2288,690.0666666666667) translate(10.95 36.4)"/><use xlink:href="#d" transform="matrix(1,0,0,1,-2288,690.0666666666667) translate(91.75000000000001 36.4)"/><use xlink:href="#g" transform="matrix(1,0,0,1,-2288,690.0666666666667) translate(101.75000000000001 36.4)"/><use xlink:href="#h" transform="matrix(1,0,0,1,-2288,690.0666666666667) translate(264.05 36.4)"/><use xlink:href="#i" transform="matrix(1,0,0,1,-2288,749.2666666666668) translate(0 14.700000000000012)"/><use xlink:href="#j" transform="matrix(1,0,0,1,-2288,749.2666666666668) translate(15.5 14.700000000000012)"/><use xlink:href="#d" transform="matrix(1,0,0,1,-2288,749.2666666666668) translate(123.15 14.700000000000012)"/><use xlink:href="#k" transform="matrix(1,0,0,1,-2288,749.2666666666668) translate(133.15 14.700000000000012)"/><use xlink:href="#i" transform="matrix(1,0,0,1,-2288,749.2666666666668) translate(0 36.30000000000001)"/><use xlink:href="#l" transform="matrix(1,0,0,1,-2288,749.2666666666668) translate(15.5 36.30000000000001)"/><use xlink:href="#d" transform="matrix(1,0,0,1,-2288,749.2666666666668) translate(175.59999999999997 36.30000000000001)"/><use xlink:href="#k" transform="matrix(1,0,0,1,-2288,749.2666666666668) translate(185.59999999999997 36.30000000000001)"/><use xlink:href="#i" transform="matrix(1,0,0,1,-2288,749.2666666666668) translate(0 57.90000000000001)"/><use xlink:href="#m" transform="matrix(1,0,0,1,-2288,749.2666666666668) translate(15.5 57.90000000000001)"/><use xlink:href="#d" transform="matrix(1,0,0,1,-2288,749.2666666666668) translate(71.30000000000001 57.90000000000001)"/><use xlink:href="#n" transform="matrix(1,0,0,1,-2288,749.2666666666668) translate(81.30000000000001 57.90000000000001)"/><use xlink:href="#i" transform="matrix(1,0,0,1,-2288,749.2666666666668) translate(0 79.50000000000003)"/><use xlink:href="#o" transform="matrix(1,0,0,1,-2288,749.2666666666668) translate(15.5 79.50000000000003)"/><use xlink:href="#d" transform="matrix(1,0,0,1,-2288,749.2666666666668) translate(70.25 79.50000000000003)"/><use xlink:href="#p" transform="matrix(1,0,0,1,-2288,749.2666666666668) translate(80.25 79.50000000000003)"/><use xlink:href="#i" transform="matrix(1,0,0,1,-2288,749.2666666666668) translate(0 101.10000000000002)"/><use xlink:href="#q" transform="matrix(1,0,0,1,-2288,749.2666666666668) translate(15.5 101.10000000000002)"/><use xlink:href="#d" transform="matrix(1,0,0,1,-2288,749.2666666666668) translate(75.35000000000001 101.10000000000002)"/><use xlink:href="#p" transform="matrix(1,0,0,1,-2288,749.2666666666668) translate(85.35000000000001 101.10000000000002)"/><use xlink:href="#i" transform="matrix(1,0,0,1,-2288,749.2666666666668) translate(0 122.70000000000002)"/><use xlink:href="#r" transform="matrix(1,0,0,1,-2288,749.2666666666668) translate(15.5 122.70000000000002)"/><use xlink:href="#s" transform="matrix(1,0,0,1,-2288,749.2666666666668) translate(241.34999999999997 122.70000000000002)"/><use xlink:href="#t" transform="matrix(1,0,0,1,-2288,749.2666666666668) translate(251.34999999999997 122.70000000000002)"/><use xlink:href="#i" transform="matrix(1,0,0,1,-2288,749.2666666666668) translate(0 144.3)"/><use xlink:href="#u" transform="matrix(1,0,0,1,-2288,749.2666666666668) translate(15.5 144.3)"/><use xlink:href="#d" transform="matrix(1,0,0,1,-2288,749.2666666666668) translate(138.05 144.3)"/><use xlink:href="#v" transform="matrix(1,0,0,1,-2288,749.2666666666668) translate(148.05 144.3)"/><use xlink:href="#i" transform="matrix(1,0,0,1,-2288,749.2666666666668) translate(0 165.9)"/><use xlink:href="#w" transform="matrix(1,0,0,1,-2288,749.2666666666668) translate(15.5 165.9)"/><use xlink:href="#s" transform="matrix(1,0,0,1,-2288,749.2666666666668) translate(253.95 165.9)"/><use xlink:href="#p" transform="matrix(1,0,0,1,-2288,749.2666666666668) translate(263.95 165.9)"/><use xlink:href="#i" transform="matrix(1,0,0,1,-2288,749.2666666666668) translate(0 187.5)"/><use xlink:href="#x" transform="matrix(1,0,0,1,-2288,749.2666666666668) translate(15.5 187.5)"/><use xlink:href="#y" transform="matrix(1,0,0,1,-2288,749.2666666666668) translate(253 187.5)"/><use xlink:href="#d" transform="matrix(1,0,0,1,-2288,749.2666666666668) translate(340.4 187.5)"/><use xlink:href="#z" transform="matrix(1,0,0,1,-2288,749.2666666666668) translate(350.4 187.5)"/><path d="M-2653.93 638.5v-70" stroke="#333" stroke-width="1.5" fill="none"/><path d="M-2653.18 639.25h-1.5v-.77h1.5z" fill="#333"/><path d="M-2653.93 546.22l12.73 21.52h-25.45z" stroke="#333" stroke-width="1.5" fill="#fff"/><path d="M-2412.6 482.73h161.9c.57 0 1 .45 1 1V637.9" stroke="#333" stroke-width="1.5" fill="none"/><path d="M-2442.12 482.73l14.85-14.85 15.15 14.85-15.15 14.85z" stroke="#333" stroke-width="1.5" fill="#fff"/><path d="M-2248.94 638.65h-1.5v-.77h1.5z" fill="#333"/><use xlink:href="#A" transform="matrix(1,0,0,1,-2400.558333333328,486.73333333333443) translate(0 14.4)"/><path d="M-3500 641c0-.55.45-1 1-1h538c.55 0 1 .45 1 1v140c0 .55-.45 1-1 1h-538c-.55 0-1-.45-1-1z" stroke="#4f0006" stroke-width="1.5" fill="#fff0e5"/><path d="M-3500 682.67h540m-540 18.66h540" stroke="#4f0006" stroke-width="1.5" fill="none"/><use xlink:href="#B" transform="matrix(1,0,0,1,-3492,648) translate(158.01851851851853 17.944444444444443)"/><use xlink:href="#i" transform="matrix(1,0,0,1,-3488,709.3333333333333) translate(0 14.500000000000002)"/><use xlink:href="#C" transform="matrix(1,0,0,1,-3488,709.3333333333333) translate(15.5 14.500000000000002)"/><use xlink:href="#d" transform="matrix(1,0,0,1,-3488,709.3333333333333) translate(282.5999999999999 14.500000000000002)"/><use xlink:href="#D" transform="matrix(1,0,0,1,-3488,709.3333333333333) translate(292.5999999999999 14.500000000000002)"/><use xlink:href="#i" transform="matrix(1,0,0,1,-3488,709.3333333333333) translate(0 36.1)"/><use xlink:href="#E" transform="matrix(1,0,0,1,-3488,709.3333333333333) translate(15.5 36.1)"/><use xlink:href="#F" transform="matrix(1,0,0,1,-3488,709.3333333333333) translate(281.6499999999999 36.1)"/><use xlink:href="#d" transform="matrix(1,0,0,1,-3488,709.3333333333333) translate(345.04999999999995 36.1)"/><use xlink:href="#D" transform="matrix(1,0,0,1,-3488,709.3333333333333) translate(355.04999999999995 36.1)"/><use xlink:href="#i" transform="matrix(1,0,0,1,-3488,709.3333333333333) translate(0 57.7)"/><use xlink:href="#G" transform="matrix(1,0,0,1,-3488,709.3333333333333) translate(15.5 57.7)"/><use xlink:href="#d" transform="matrix(1,0,0,1,-3488,709.3333333333333) translate(61.30000000000001 57.7)"/><use xlink:href="#z" transform="matrix(1,0,0,1,-3488,709.3333333333333) translate(71.30000000000001 57.7)"/><path d="M-2908 641c0-.55.45-1 1-1h506.15c.55 0 1 .45 1 1v140c0 .55-.45 1-1 1H-2907c-.55 0-1-.45-1-1z" stroke="#4f0006" stroke-width="1.5" fill="#fff0e5"/><path d="M-2908 682.67h508.15M-2908 701.33h508.15" stroke="#4f0006" stroke-width="1.5" fill="none"/><g><use xlink:href="#H" transform="matrix(1,0,0,1,-2900,648) translate(130.7283950617284 17.944444444444443)"/></g><g><use xlink:href="#i" transform="matrix(1,0,0,1,-2896,709.3333333333333) translate(0 14.500000000000002)"/><use xlink:href="#I" transform="matrix(1,0,0,1,-2896,709.3333333333333) translate(15.5 14.500000000000002)"/><use xlink:href="#d" transform="matrix(1,0,0,1,-2896,709.3333333333333) translate(256.9 14.500000000000002)"/><use xlink:href="#J" transform="matrix(1,0,0,1,-2896,709.3333333333333) translate(266.9 14.500000000000002)"/><use xlink:href="#i" transform="matrix(1,0,0,1,-2896,709.3333333333333) translate(0 36.1)"/><use xlink:href="#K" transform="matrix(1,0,0,1,-2896,709.3333333333333) translate(15.5 36.1)"/><use xlink:href="#F" transform="matrix(1,0,0,1,-2896,709.3333333333333) translate(255.94999999999996 36.1)"/><use xlink:href="#d" transform="matrix(1,0,0,1,-2896,709.3333333333333) translate(319.34999999999997 36.1)"/><use xlink:href="#J" transform="matrix(1,0,0,1,-2896,709.3333333333333) translate(329.34999999999997 36.1)"/><use xlink:href="#i" transform="matrix(1,0,0,1,-2896,709.3333333333333) translate(0 57.7)"/><use xlink:href="#L" transform="matrix(1,0,0,1,-2896,709.3333333333333) translate(15.5 57.7)"/><use xlink:href="#d" transform="matrix(1,0,0,1,-2896,709.3333333333333) translate(62.400000000000006 57.7)"/><use xlink:href="#M" transform="matrix(1,0,0,1,-2896,709.3333333333333) translate(72.4 57.7)"/></g><path d="M-3230 638.5V601c0-.55.45-1 1-1h574.07c.56 0 1-.45 1-1v-30.5" stroke="#333" stroke-width="1.5" fill="none"/><path d="M-3229.25 639.25h-1.5v-.77h1.5z" fill="#333"/><path d="M-2653.93 546.22l12.73 21.52h-25.45z" stroke="#333" stroke-width="1.5" fill="#fff"/><path d="M-2863.93 341c0-.55.45-1 1-1h418c.56 0 1 .45 1 1v202c0 .55-.44 1-1 1h-418c-.55 0-1-.45-1-1z" stroke="#333" stroke-width="1.5" fill="#f0f0f0"/><path d="M-2863.93 404h420m-420 37.6h420" stroke="#333" stroke-width="1.5" fill="none"/><g><use xlink:href="#N" transform="matrix(1,0,0,1,-2855.9271761628665,348) translate(144.74074074074073 14.222222222222223)"/><use xlink:href="#O" transform="matrix(1,0,0,1,-2855.9271761628665,348) translate(170.41975308641975 14.222222222222223)"/><use xlink:href="#P" transform="matrix(1,0,0,1,-2855.9271761628665,348) translate(238.51851851851853 14.222222222222223)"/><use xlink:href="#Q" transform="matrix(1,0,0,1,-2855.9271761628665,348) translate(96.13580246913584 39.111111111111114)"/></g><g><use xlink:href="#b" transform="matrix(1,0,0,1,-2851.9271761628665,412) translate(0 14.6)"/><use xlink:href="#R" transform="matrix(1,0,0,1,-2851.9271761628665,412) translate(10.95 14.6)"/><use xlink:href="#d" transform="matrix(1,0,0,1,-2851.9271761628665,412) translate(104.7 14.6)"/><use xlink:href="#S" transform="matrix(1,0,0,1,-2851.9271761628665,412) translate(114.7 14.6)"/></g><g><use xlink:href="#i" transform="matrix(1,0,0,1,-2851.9271761628665,449.6) translate(0 14.69999999999999)"/><use xlink:href="#r" transform="matrix(1,0,0,1,-2851.9271761628665,449.6) translate(15.5 14.69999999999999)"/><use xlink:href="#s" transform="matrix(1,0,0,1,-2851.9271761628665,449.6) translate(241.34999999999997 14.69999999999999)"/><use xlink:href="#t" transform="matrix(1,0,0,1,-2851.9271761628665,449.6) translate(251.34999999999997 14.69999999999999)"/><use xlink:href="#i" transform="matrix(1,0,0,1,-2851.9271761628665,449.6) translate(0 36.29999999999999)"/><use xlink:href="#u" transform="matrix(1,0,0,1,-2851.9271761628665,449.6) translate(15.5 36.29999999999999)"/><use xlink:href="#d" transform="matrix(1,0,0,1,-2851.9271761628665,449.6) translate(138.05 36.29999999999999)"/><use xlink:href="#T" transform="matrix(1,0,0,1,-2851.9271761628665,449.6) translate(148.05 36.29999999999999)"/><use xlink:href="#i" transform="matrix(1,0,0,1,-2851.9271761628665,449.6) translate(0 57.89999999999999)"/><use xlink:href="#w" transform="matrix(1,0,0,1,-2851.9271761628665,449.6) translate(15.5 57.89999999999999)"/><use xlink:href="#s" transform="matrix(1,0,0,1,-2851.9271761628665,449.6) translate(253.95 57.89999999999999)"/><use xlink:href="#p" transform="matrix(1,0,0,1,-2851.9271761628665,449.6) translate(263.95 57.89999999999999)"/><use xlink:href="#i" transform="matrix(1,0,0,1,-2851.9271761628665,449.6) translate(0 79.5)"/><use xlink:href="#x" transform="matrix(1,0,0,1,-2851.9271761628665,449.6) translate(15.5 79.5)"/><use xlink:href="#y" transform="matrix(1,0,0,1,-2851.9271761628665,449.6) translate(253 79.5)"/><use xlink:href="#d" transform="matrix(1,0,0,1,-2851.9271761628665,449.6) translate(340.4 79.5)"/><use xlink:href="#z" transform="matrix(1,0,0,1,-2851.9271761628665,449.6) translate(350.4 79.5)"/></g><path d="M-3350 850.4c0-.55.45-1 1-1h238c.55 0 1 .45 1 1v100c0 .55-.45 1-1 1h-238c-.55 0-1-.45-1-1z" stroke="#333" stroke-width="1.5" fill="#f0f0f0"/><path d="M-3350 913.4h240" stroke="#333" stroke-width="1.5" fill="none"/><g><use xlink:href="#N" transform="matrix(1,0,0,1,-3342,857.4000000000001) translate(52.29629629629628 14.222222222222223)"/><use xlink:href="#U" transform="matrix(1,0,0,1,-3342,857.4000000000001) translate(77.9753086419753 14.222222222222223)"/><use xlink:href="#P" transform="matrix(1,0,0,1,-3342,857.4000000000001) translate(150.96296296296296 14.222222222222223)"/><use xlink:href="#V" transform="matrix(1,0,0,1,-3342,857.4000000000001) translate(17.15432098765436 39.111111111111114)"/></g><g><use xlink:href="#i" transform="matrix(1,0,0,1,-3338,921.4000000000001) translate(0 14.6)"/><use xlink:href="#W" transform="matrix(1,0,0,1,-3338,921.4000000000001) translate(15.5 14.6)"/><use xlink:href="#d" transform="matrix(1,0,0,1,-3338,921.4000000000001) translate(61.30000000000001 14.6)"/><use xlink:href="#z" transform="matrix(1,0,0,1,-3338,921.4000000000001) translate(71.30000000000001 14.6)"/></g><path d="M-2794.37 850.4c0-.55.45-1 1-1h278.9c.54 0 1 .45 1 1v100c0 .55-.46 1-1 1h-278.9c-.55 0-1-.45-1-1z" stroke="#333" stroke-width="1.5" fill="#f0f0f0"/><path d="M-2794.37 913.4h280.9" stroke="#333" stroke-width="1.5" fill="none"/><g><use xlink:href="#N" transform="matrix(1,0,0,1,-2786.372558285016,857.4000000000001) translate(72.79629629629628 14.222222222222223)"/><use xlink:href="#U" transform="matrix(1,0,0,1,-2786.372558285016,857.4000000000001) translate(98.47530864197529 14.222222222222223)"/><use xlink:href="#P" transform="matrix(1,0,0,1,-2786.372558285016,857.4000000000001) translate(171.46296296296296 14.222222222222223)"/><use xlink:href="#X" transform="matrix(1,0,0,1,-2786.372558285016,857.4000000000001) translate(25.86419753086423 39.111111111111114)"/></g><g><use xlink:href="#i" transform="matrix(1,0,0,1,-2782.372558285016,921.4000000000001) translate(0 14.6)"/><use xlink:href="#Y" transform="matrix(1,0,0,1,-2782.372558285016,921.4000000000001) translate(15.5 14.6)"/><use xlink:href="#d" transform="matrix(1,0,0,1,-2782.372558285016,921.4000000000001) translate(62.400000000000006 14.6)"/><use xlink:href="#M" transform="matrix(1,0,0,1,-2782.372558285016,921.4000000000001) translate(72.4 14.6)"/></g><path d="M-3230 783.5v41.4" stroke="#333" stroke-width="1.5" fill="none"/><path d="M-3229.25 783.52h-1.5v-.77h1.5z" fill="#333"/><path d="M-3230 847.18l-12.73-21.52h25.46z" stroke="#333" stroke-width="1.5" fill="#fff"/><path d="M-2653.93 783.5v41.4" stroke="#333" stroke-width="1.5" fill="none"/><path d="M-2653.18 783.52h-1.5v-.77h1.5z" fill="#333"/><path d="M-2653.93 847.18l-12.72-21.52h25.45z" stroke="#333" stroke-width="1.5" fill="#fff"/><path d="M-2181.25 392c0-.55.45-1 1-1h180.5c.55 0 1 .45 1 1v100c0 .55-.45 1-1 1h-180.5c-.55 0-1-.45-1-1z" stroke="#333" stroke-width="1.5" fill="#f0f0f0"/><path d="M-2181.25 455h182.5" stroke="#333" stroke-width="1.5" fill="none"/><g><use xlink:href="#N" transform="matrix(1,0,0,1,-2173.249661931633,399) translate(35.62345679012345 14.222222222222223)"/><use xlink:href="#Z" transform="matrix(1,0,0,1,-2173.249661931633,399) translate(61.30246913580247 14.222222222222223)"/><use xlink:href="#P" transform="matrix(1,0,0,1,-2173.249661931633,399) translate(110.6358024691358 14.222222222222223)"/><use xlink:href="#aa" transform="matrix(1,0,0,1,-2173.249661931633,399) translate(13.561728395061735 39.111111111111114)"/></g><g><use xlink:href="#i" transform="matrix(1,0,0,1,-2169.249661931633,463) translate(0 14.6)"/><use xlink:href="#ab" transform="matrix(1,0,0,1,-2169.249661931633,463) translate(15.5 14.6)"/><use xlink:href="#d" transform="matrix(1,0,0,1,-2169.249661931633,463) translate(98.20000000000002 14.6)"/><use xlink:href="#ac" transform="matrix(1,0,0,1,-2169.249661931633,463) translate(108.20000000000002 14.6)"/></g><path d="M-2090 637.9V495.1" stroke="#333" stroke-width="1.5" fill="none"/><path d="M-2089.25 638.65h-1.5v-.77h1.5z" fill="#333"/><path d="M-2079.82 512.44l-10.18-17.22-10.18 17.22" stroke="#333" stroke-width="1.5" fill="none"/><g><use xlink:href="#ad" transform="matrix(1,0,0,1,-2082,567.3075500770441) translate(0 14.4)"/></g><path d="M-2442.43 442h243M-2442.4 442h-.78" stroke="#333" stroke-width="1.5" fill="none"/><path d="M-2184.43 442l-14.26 4.64v-9.28z" stroke="#333" stroke-width="1.5" fill="#333"/><g><use xlink:href="#ae" transform="matrix(1,0,0,1,-2434.306898721761,416.4) translate(0 14.4)"/><use xlink:href="#af" transform="matrix(1,0,0,1,-2434.306898721761,416.4) translate(71.95 14.4)"/><use xlink:href="#ag" transform="matrix(1,0,0,1,-2434.306898721761,416.4) translate(106.95 14.4)"/><use xlink:href="#ah" transform="matrix(1,0,0,1,-2434.306898721761,416.4) translate(127.9 14.4)"/></g><path d="M-3403.5 390.84c-2.7 0-4.5-.92-5.4-2.8-.9 3.92-2.1 8.44-3 11.96h-6l8.4-31.28h4.8v2.8h.3c1.8-2.12 4.2-3.2 6.9-3.2s4.5 1 5.4 2.96c.9 2 .9 4.76 0 8.28-.6 2.32-1.5 4.32-2.7 6.04-1.2 1.68-2.4 3-3.9 3.88-1.5.92-3.3 1.36-4.8 1.36zm3-17.8c-1.5 0-2.7.48-3.6 1.36-.9.92-1.8 2.4-2.4 4.48v.64c-.6 2.32-.9 4-.3 5 .3 1 1.2 1.52 2.7 1.52 2.7 0 4.8-2.2 6-6.56.3-2.16.6-3.76.3-4.8-.6-1.08-1.5-1.64-2.7-1.64zM-3378.9 372.52c-1.2 0-2.4.4-3.3 1.2-.9.8-1.5 1.92-2.1 3.4h8.4c.3-1.48.3-2.6-.3-3.4-.6-.8-1.5-1.2-2.7-1.2zm-4.2 18.32c-3.3 0-5.7-.96-7.2-2.92-1.5-1.92-1.8-4.64-.9-8.2.9-3.64 2.7-6.44 5.1-8.4 2.4-2 5.1-3 8.4-3 3 0 5.1.88 6.3 2.6 1.2 1.76 1.5 4.2.6 7.28l-.6 2.84h-14.1c-.3 1.72-.3 3 .3 3.96.9.96 2.1 1.44 3.6 1.44s2.7-.16 3.9-.44c1.2-.24 2.7-.68 3.9-1.28l-1.2 4.56c-1.2.52-2.4.92-3.6 1.16-1.2.28-2.7.4-4.5.4zM-3355.2 368.32c.9 0 1.5.04 2.1.16l-1.5 5.56c-.6-.12-1.2-.2-1.8-.2-1.8 0-3.6.48-4.8 1.48-1.2.96-2.1 2.32-2.7 4.08l-3 11.04h-5.7l5.7-21.72h4.5v3.64c1.2-1.2 2.4-2.2 3.6-2.92 1.5-.76 2.4-1.12 3.6-1.12zM-3342 360c-2.7 0-4.8.56-6.3 1.72-1.8 1.12-2.7 2.92-3.3 5.4l-.6 1.6-1.2 4.44-4.5 17.28h6l4.5-17.28h5.1l1.2-4.44h-5.1l.3-1.36c.3-.76.6-1.4 1.2-1.92.3-.48 1.2-.72 2.1-.72.9 0 1.8.16 3 .56l2.7-4.36c-1.5-.6-3.3-.92-5.1-.92zM-3338.7 379.56c-.6 2.12-.6 3.76 0 4.84.3 1.12 1.2 1.68 3 1.68 1.5 0 2.7-.56 3.6-1.64 1.2-1.12 1.8-2.72 2.4-4.88.6-2.16.6-3.76.3-4.84s-1.5-1.64-3-1.64-2.7.56-3.9 1.64c-.9 1.04-1.8 2.68-2.4 4.84zm15 0c-.9 3.52-2.4 6.28-4.8 8.28-2.4 2-5.4 3-8.7 3-2.1 0-3.9-.48-5.1-1.36-1.5-.92-2.1-2.24-2.7-3.96-.3-1.72-.3-3.68.3-5.96.9-3.56 2.7-6.32 5.1-8.28 2.4-2 5.1-2.96 8.7-2.96 2.1 0 3.6.44 5.1 1.36 1.2.92 2.1 2.2 2.7 3.88.3 1.72.3 3.72-.6 6zM-3307.8 368.32c.9 0 1.5.04 1.8.16l-1.5 5.56c-.3-.12-.9-.2-1.5-.2-2.1 0-3.6.48-4.8 1.48-1.5.96-2.4 2.32-2.7 4.08l-3 11.04h-6l6-21.72h4.2v3.64h.3c.9-1.2 2.1-2.2 3.6-2.92 1.2-.76 2.1-1.12 3.6-1.12z" stroke="#000" stroke-opacity="0" stroke-width=".9" fill="#c83737"/><path d="M-3291 390.44h-6l3.6-12.68c.3-1.56.3-2.76 0-3.52-.3-.8-.9-1.2-2.1-1.2-1.5 0-2.7.56-3.9 1.68-.9 1.12-1.8 2.96-2.4 5.52l-2.7 10.2h-6l6-22.04h4.5v3.12h.3c.9-1 1.8-1.8 3-2.36 1.5-.56 2.7-.84 4.2-.84 3.3 0 5.1 1.04 5.7 3.2h.6c.9-1.04 1.8-1.8 3-2.36 1.5-.56 2.7-.84 4.2-.84 2.4 0 4.2.64 5.1 1.88.9 1.28.9 3.28.3 6.08l-3.9 14.16h-6l3.6-12.68c.3-1.56.3-2.76 0-3.52-.3-.8-.9-1.2-2.1-1.2-1.5 0-2.7.52-3.6 1.56-1.2 1.04-1.8 2.68-2.4 4.96zM-3261.3 372.52c-1.2 0-2.4.4-3.3 1.2-.9.8-1.8 1.92-2.1 3.4h8.1c.6-1.48.3-2.6 0-3.4-.6-.8-1.5-1.2-2.7-1.2zm-4.2 18.32c-3.3 0-6-.96-7.5-2.92-1.2-1.92-1.5-4.64-.6-8.2.9-3.64 2.7-6.44 5.1-8.4 2.1-2 5.1-3 8.1-3 3.3 0 5.4.88 6.6 2.6 1.2 1.76 1.5 4.2.6 7.28l-.9 2.84h-13.8c-.6 1.72-.3 3 .3 3.96s1.8 1.44 3.6 1.44c1.2 0 2.7-.16 3.9-.44 1.2-.24 2.4-.68 3.9-1.28l-1.2 4.56c-1.2.52-2.4.92-3.6 1.16-1.2.28-2.7.4-4.5.4z" stroke="#000" stroke-opacity="0" stroke-width=".9" fill="#252525"/><path d="M-3244.8 386.12c1.2 0 2.4-.24 3.9-.68l-1.2 4.4c-1.5.68-3.6 1-5.7 1-2.4 0-3.9-.6-4.5-1.8-.9-1.2-.9-3-.3-5.4l2.7-10.48h-2.7l.6-2.48 3.9-2 3-4.6h3.6l-1.2 4.64h6l-1.2 4.44h-6l-2.7 10.48c-.3.84-.3 1.48 0 1.88.6.4 1.2.6 1.8.6zM-3219 363.12c.3-1.96 1.8-2.92 3.9-2.92 2.1 0 3 .96 2.4 2.92-.3.92-.6 1.64-1.5 2.16-.6.48-1.5.76-2.4.76-2.1 0-3-1-2.4-2.92zm-1.2 27.32h-6l5.7-21.72h6zM-3209.1 390.84c-6.6 0-9-3.72-6.9-11.16.9-3.68 2.4-6.48 4.8-8.44 2.4-1.96 5.4-2.92 8.7-2.92 2.7 0 4.8.48 6.6 1.48l-3 4.56c-.9-.36-1.8-.68-2.4-.88-.9-.28-1.5-.4-2.4-.4-3 0-5.1 2.2-6.3 6.6-1.2 4.24-.3 6.36 2.7 6.36 1.2 0 2.4-.16 3.3-.44 1.2-.32 2.4-.8 3.3-1.44l-1.2 5.04c-1.2.64-2.1 1.04-3.3 1.28-.9.24-2.4.36-3.9.36z" stroke="#000" stroke-opacity="0" stroke-width=".9" fill="#252525"/><path d="M-3183.6 384c-.6 2.2-1.8 3.92-3.6 5.08-1.8 1.16-4.2 1.76-7.5 1.76-1.5 0-2.7-.12-3.9-.32-.9-.24-2.1-.52-2.7-.96l1.2-4.88c.9.52 2.1.96 3.3 1.28 1.2.36 2.4.52 3.6.52 2.1 0 3.3-.6 3.6-1.84.3-.48.3-.84 0-1.12-.3-.32-.6-.64-1.2-1s-1.5-.8-2.4-1.32c-1.5-.68-2.7-1.32-3.3-1.92-.6-.6-.9-1.28-1.2-2.04 0-.8 0-1.72.3-2.88.6-1.92 1.8-3.4 3.3-4.44 1.8-1.08 4.2-1.6 6.9-1.6s5.1.56 7.2 1.72l-3 4.24c-.9-.44-1.8-.84-2.7-1.12-.9-.32-1.8-.44-2.7-.44-1.8 0-2.7.44-3 1.4-.3.52 0 1 .3 1.4.6.36 1.8.96 3.3 1.72 1.5.68 2.7 1.32 3.3 1.92.6.6.9 1.28 1.2 2.04 0 .8 0 1.72-.3 2.8zM-3223.2 368.32c.9 0 1.5.04 1.8.16l-1.5 5.56c-.3-.12-.9-.2-1.5-.2-2.1 0-3.6.48-4.8 1.48-1.5.96-2.4 2.32-2.7 4.08l-3 11.04h-6l5.7-21.72h4.5v3.64h.3c.9-1.2 2.1-2.2 3.6-2.92 1.2-.76 2.1-1.12 3.6-1.12z" stroke="#000" stroke-opacity="0" stroke-width=".9" fill="#252525"/><path d="M-3456 360c-5.7 4.44-11.1 8.88-16.8 13.32L-3480 400h13.2l7.2-26.68h3l-4.2 16.36 16.8-13.32 4.5-16.36z" stroke="#000" stroke-opacity="0" stroke-width=".34" fill="#c83737"/><path d="M-3423.3 360l-16.8 13.32-7.2 26.68h13.2z" stroke="#000" stroke-opacity="0" stroke-width=".34" fill="url(#ai)"/><path d="M-3480 420h300v40h-300z" stroke="#000" stroke-opacity="0" stroke-width=".5" fill="#f0f0f0"/><g><use xlink:href="#aj" transform="matrix(1,0,0,1,-3475,425) translate(0 12.444444444444446)"/><use xlink:href="#ak" transform="matrix(1,0,0,1,-3475,425) translate(79.24691358024691 12.444444444444446)"/><use xlink:href="#al" transform="matrix(1,0,0,1,-3475,425) translate(154.21604938271605 12.444444444444446)"/><use xlink:href="#am" transform="matrix(1,0,0,1,-3475,425) translate(0 29.33333333333334)"/><use xlink:href="#an" transform="matrix(1,0,0,1,-3475,425) translate(59.92592592592592 29.33333333333334)"/><use xlink:href="#ao" transform="matrix(1,0,0,1,-3475,425) translate(77.7037037037037 29.33333333333334)"/><use xlink:href="#ap" transform="matrix(1,0,0,1,-3475,425) translate(183.44444444444446 29.33333333333334)"/><use xlink:href="#aq" transform="matrix(1,0,0,1,-3475,425) translate(191.55555555555557 29.33333333333334)"/><use xlink:href="#ar" transform="matrix(1,0,0,1,-3475,425) translate(238.14814814814818 29.33333333333334)"/><use xlink:href="#as" transform="matrix(1,0,0,1,-3475,425) translate(0 43.55555555555556)"/></g><defs><path fill="#333" d="M169-182c-1-43-94-46-97-3 18 66 151 10 154 114 3 95-165 93-204 36-6-8-10-19-12-30l50-8c3 46 112 56 116 5-17-69-150-10-154-114-4-87 153-88 188-35 5 8 8 18 10 28" id="at"/><path fill="#333" d="M115-3C79 11 28 4 28-45v-112H4v-33h27l15-45h31v45h36v33H77v99c-1 23 16 31 38 25v30" id="au"/><path fill="#333" d="M110-194c64 0 96 36 96 99 0 64-35 99-97 99-61 0-95-36-95-99 0-62 34-99 96-99zm-1 164c35 0 45-28 45-65 0-40-10-65-43-65-34 0-45 26-45 65 0 36 10 65 43 65" id="av"/><path fill="#333" d="M135-194c53 0 70 44 70 98 0 56-19 98-73 100-31 1-45-17-59-34 3 33 2 69 2 105H25l-1-265h48c2 10 0 23 3 31 11-24 29-35 60-35zM114-30c33 0 39-31 40-66 0-38-9-64-40-64-56 0-55 130 0 130" id="aw"/><path fill="#333" d="M231 0h-52l-39-155L100 0H48L-1-190h46L77-45c9-52 24-97 36-145h53l37 145 32-145h46" id="ax"/><path fill="#333" d="M133-34C117-15 103 5 69 4 32 3 11-16 11-54c-1-60 55-63 116-61 1-26-3-47-28-47-18 1-26 9-28 27l-52-2c7-38 36-58 82-57s74 22 75 68l1 82c-1 14 12 18 25 15v27c-30 8-71 5-69-32zm-48 3c29 0 43-24 42-57-32 0-66-3-65 30 0 17 8 27 23 27" id="ay"/><path fill="#333" d="M190-63c-7 42-38 67-86 67-59 0-84-38-90-98-12-110 154-137 174-36l-49 2c-2-19-15-32-35-32-30 0-35 28-38 64-6 74 65 87 74 30" id="az"/><path fill="#333" d="M114-157C55-157 80-60 75 0H25v-261h50l-1 109c12-26 28-41 61-42 86-1 58 113 63 194h-50c-7-57 23-157-34-157" id="aA"/><g id="a"><use transform="matrix(0.06172839506172839,0,0,0.06172839506172839,0,0)" xlink:href="#at"/><use transform="matrix(0.06172839506172839,0,0,0.06172839506172839,14.814814814814813,0)" xlink:href="#au"/><use transform="matrix(0.06172839506172839,0,0,0.06172839506172839,22.160493827160494,0)" xlink:href="#av"/><use transform="matrix(0.06172839506172839,0,0,0.06172839506172839,35.67901234567901,0)" xlink:href="#aw"/><use transform="matrix(0.06172839506172839,0,0,0.06172839506172839,49.19753086419753,0)" xlink:href="#ax"/><use transform="matrix(0.06172839506172839,0,0,0.06172839506172839,66.48148148148148,0)" xlink:href="#ay"/><use transform="matrix(0.06172839506172839,0,0,0.06172839506172839,78.82716049382717,0)" xlink:href="#au"/><use transform="matrix(0.06172839506172839,0,0,0.06172839506172839,86.17283950617285,0)" xlink:href="#az"/><use transform="matrix(0.06172839506172839,0,0,0.06172839506172839,98.51851851851853,0)" xlink:href="#aA"/></g><path fill="#333" d="M16-82v-28h88v28H16" id="aB"/><use transform="matrix(0.05,0,0,0.05,0,0)" xlink:href="#aB" id="b"/><path fill="#333" d="M123 10C108 53 80 86 19 72V37c35 8 53-11 59-39L3-190h52l48 148c12-52 28-100 44-148h51" id="aC"/><path fill="#333" d="M185-48c-13 30-37 53-82 52C43 2 14-33 14-96s30-98 90-98c62 0 83 45 84 108H66c0 31 8 55 39 56 18 0 30-7 34-22zm-45-69c5-46-57-63-70-21-2 6-4 13-4 21h74" id="aD"/><path fill="#333" d="M137-138c1-29-70-34-71-4 15 46 118 7 119 86 1 83-164 76-172 9l43-7c4 19 20 25 44 25 33 8 57-30 24-41C81-84 22-81 20-136c-2-80 154-74 161-7" id="aE"/><g id="c"><use transform="matrix(0.05,0,0,0.05,0,0)" xlink:href="#au"/><use transform="matrix(0.05,0,0,0.05,5.95,0)" xlink:href="#aC"/><use transform="matrix(0.05,0,0,0.05,15.949999999999998,0)" xlink:href="#aw"/><use transform="matrix(0.05,0,0,0.05,26.899999999999995,0)" xlink:href="#aD"/><use transform="matrix(0.05,0,0,0.05,36.9,0)" xlink:href="#aE"/></g><path fill="#666" d="M33-154v-36h34v36H33zM33 0v-36h34V0H33" id="aF"/><use transform="matrix(0.05,0,0,0.05,0,0)" xlink:href="#aF" id="d"/><path fill="#666" d="M212-179c-10-28-35-45-73-45-59 0-87 40-87 99 0 60 29 101 89 101 43 0 62-24 78-52l27 14C228-24 195 4 139 4 59 4 22-46 18-125c-6-104 99-153 187-111 19 9 31 26 39 46" id="aG"/><path fill="#666" d="M100-194c62-1 85 37 85 99 1 63-27 99-86 99S16-35 15-95c0-66 28-99 85-99zM99-20c44 1 53-31 53-75 0-43-8-75-51-75s-53 32-53 75 10 74 51 75" id="aH"/><path fill="#666" d="M84 4C-5 8 30-112 23-190h32v120c0 31 7 50 39 49 72-2 45-101 50-169h31l1 190h-30c-1-10 1-25-2-33-11 22-28 36-60 37" id="aI"/><path fill="#666" d="M117-194c89-4 53 116 60 194h-32v-121c0-31-8-49-39-48C34-167 62-67 57 0H25l-1-190h30c1 10-1 24 2 32 11-22 29-35 61-36" id="aJ"/><path fill="#666" d="M59-47c-2 24 18 29 38 22v24C64 9 27 4 27-40v-127H5v-23h24l9-43h21v43h35v23H59v120" id="aK"/><path fill="#666" d="M100-194c63 0 86 42 84 106H49c0 40 14 67 53 68 26 1 43-12 49-29l28 8c-11 28-37 45-77 45C44 4 14-33 15-96c1-61 26-98 85-98zm52 81c6-60-76-77-97-28-3 7-6 17-6 28h103" id="aL"/><path fill="#666" d="M114-163C36-179 61-72 57 0H25l-1-190h30c1 12-1 29 2 39 6-27 23-49 58-41v29" id="aM"/><path fill="#666" d="M33 0v-38h34V0H33" id="aN"/><path fill="#666" d="M127-220V0H93v-220H8v-28h204v28h-85" id="aO"/><path fill="#666" d="M179-190L93 31C79 59 56 82 12 73V49c39 6 53-20 64-50L1-190h34L92-34l54-156h33" id="aP"/><path fill="#666" d="M115-194c55 1 70 41 70 98S169 2 115 4C84 4 66-9 55-30l1 105H24l-1-265h31l2 30c10-21 28-34 59-34zm-8 174c40 0 45-34 45-75s-6-73-45-74c-42 0-51 32-51 76 0 43 10 73 51 73" id="aQ"/><path fill="#666" d="M26 75v-336h71v23H56V52h41v23H26" id="aR"/><path fill="#666" d="M3 75V52h41v-290H3v-23h71V75H3" id="aS"/><g id="e"><use transform="matrix(0.05,0,0,0.05,0,0)" xlink:href="#aG"/><use transform="matrix(0.05,0,0,0.05,12.950000000000001,0)" xlink:href="#aH"/><use transform="matrix(0.05,0,0,0.05,22.950000000000003,0)" xlink:href="#aI"/><use transform="matrix(0.05,0,0,0.05,32.95,0)" xlink:href="#aJ"/><use transform="matrix(0.05,0,0,0.05,42.95,0)" xlink:href="#aK"/><use transform="matrix(0.05,0,0,0.05,47.95,0)" xlink:href="#aL"/><use transform="matrix(0.05,0,0,0.05,57.95,0)" xlink:href="#aM"/><use transform="matrix(0.05,0,0,0.05,62.900000000000006,0)" xlink:href="#aN"/><use transform="matrix(0.05,0,0,0.05,67.9,0)" xlink:href="#aO"/><use transform="matrix(0.05,0,0,0.05,77.85000000000001,0)" xlink:href="#aP"/><use transform="matrix(0.05,0,0,0.05,86.85000000000001,0)" xlink:href="#aQ"/><use transform="matrix(0.05,0,0,0.05,96.85000000000001,0)" xlink:href="#aL"/><use transform="matrix(0.05,0,0,0.05,106.85000000000001,0)" xlink:href="#aR"/><use transform="matrix(0.05,0,0,0.05,111.85000000000001,0)" xlink:href="#aS"/></g><path fill="#333" d="M85 4C-2 5 27-109 22-190h50c7 57-23 150 33 157 60-5 35-97 40-157h50l1 190h-47c-2-12 1-28-3-38-12 25-28 42-61 42" id="aT"/><path fill="#333" d="M135-194c87-1 58 113 63 194h-50c-7-57 23-157-34-157-59 0-34 97-39 157H25l-1-190h47c2 12-1 28 3 38 12-26 28-41 61-42" id="aU"/><path fill="#333" d="M135-150c-39-12-60 13-60 57V0H25l-1-190h47c2 13-1 29 3 40 6-28 27-53 61-41v41" id="aV"/><g id="f"><use transform="matrix(0.05,0,0,0.05,0,0)" xlink:href="#az"/><use transform="matrix(0.05,0,0,0.05,10,0)" xlink:href="#av"/><use transform="matrix(0.05,0,0,0.05,20.950000000000003,0)" xlink:href="#aT"/><use transform="matrix(0.05,0,0,0.05,31.900000000000006,0)" xlink:href="#aU"/><use transform="matrix(0.05,0,0,0.05,42.85000000000001,0)" xlink:href="#au"/><use transform="matrix(0.05,0,0,0.05,48.80000000000001,0)" xlink:href="#aD"/><use transform="matrix(0.05,0,0,0.05,58.80000000000001,0)" xlink:href="#aV"/><use transform="matrix(0.05,0,0,0.05,65.80000000000001,0)" xlink:href="#aE"/></g><path fill="#666" d="M240 0l2-218c-23 76-54 145-80 218h-23L58-218 59 0H30v-248h44l77 211c21-75 51-140 76-211h43V0h-30" id="aW"/><path fill="#666" d="M141-36C126-15 110 5 73 4 37 3 15-17 15-53c-1-64 63-63 125-63 3-35-9-54-41-54-24 1-41 7-42 31l-33-3c5-37 33-52 76-52 45 0 72 20 72 64v82c-1 20 7 32 28 27v20c-31 9-61-2-59-35zM48-53c0 20 12 33 32 33 41-3 63-29 60-74-43 2-92-5-92 41" id="aX"/><path fill="#666" d="M18-100v-36l175-74v27L42-118l151 64v27" id="aY"/><path fill="#666" d="M68-38c1 34 0 65-14 84H32c9-13 17-26 17-46H33v-38h35" id="aZ"/><g id="g"><use transform="matrix(0.05,0,0,0.05,0,0)" xlink:href="#aW"/><use transform="matrix(0.05,0,0,0.05,14.950000000000001,0)" xlink:href="#aX"/><use transform="matrix(0.05,0,0,0.05,24.950000000000003,0)" xlink:href="#aQ"/><use transform="matrix(0.05,0,0,0.05,34.95,0)" xlink:href="#aY"/><use transform="matrix(0.05,0,0,0.05,45.45,0)" xlink:href="#aG"/><use transform="matrix(0.05,0,0,0.05,58.400000000000006,0)" xlink:href="#aH"/><use transform="matrix(0.05,0,0,0.05,68.4,0)" xlink:href="#aI"/><use transform="matrix(0.05,0,0,0.05,78.4,0)" xlink:href="#aJ"/><use transform="matrix(0.05,0,0,0.05,88.4,0)" xlink:href="#aK"/><use transform="matrix(0.05,0,0,0.05,93.4,0)" xlink:href="#aL"/><use transform="matrix(0.05,0,0,0.05,103.4,0)" xlink:href="#aM"/><use transform="matrix(0.05,0,0,0.05,108.35000000000001,0)" xlink:href="#aN"/><use transform="matrix(0.05,0,0,0.05,113.35000000000001,0)" xlink:href="#aO"/><use transform="matrix(0.05,0,0,0.05,123.30000000000001,0)" xlink:href="#aP"/><use transform="matrix(0.05,0,0,0.05,132.3,0)" xlink:href="#aQ"/><use transform="matrix(0.05,0,0,0.05,142.3,0)" xlink:href="#aL"/><use transform="matrix(0.05,0,0,0.05,152.3,0)" xlink:href="#aZ"/></g><path fill="#666" d="M18-27v-27l151-64-151-65v-27l175 74v36" id="ba"/><g id="h"><use transform="matrix(0.05,0,0,0.05,0,0)" xlink:href="#aG"/><use transform="matrix(0.05,0,0,0.05,12.950000000000001,0)" xlink:href="#aH"/><use transform="matrix(0.05,0,0,0.05,22.950000000000003,0)" xlink:href="#aI"/><use transform="matrix(0.05,0,0,0.05,32.95,0)" xlink:href="#aJ"/><use transform="matrix(0.05,0,0,0.05,42.95,0)" xlink:href="#aK"/><use transform="matrix(0.05,0,0,0.05,47.95,0)" xlink:href="#aL"/><use transform="matrix(0.05,0,0,0.05,57.95,0)" xlink:href="#aM"/><use transform="matrix(0.05,0,0,0.05,63.900000000000006,0)" xlink:href="#ba"/></g><path fill="#333" d="M118-107v75H92v-75H18v-26h74v-75h26v75h74v26h-74" id="bb"/><use transform="matrix(0.05,0,0,0.05,0,0)" xlink:href="#bb" id="i"/><path fill="#333" d="M67-93c0 74 22 123 53 168H70C40 30 18-18 18-93s22-123 52-168h50c-32 44-53 94-53 168" id="bc"/><path fill="#333" d="M102-93c0 74-22 123-52 168H0C30 29 54-18 53-93c0-74-22-123-53-168h50c30 45 52 94 52 168" id="bd"/><g id="j"><use transform="matrix(0.05,0,0,0.05,0,0)" xlink:href="#at"/><use transform="matrix(0.05,0,0,0.05,12,0)" xlink:href="#au"/><use transform="matrix(0.05,0,0,0.05,17.95,0)" xlink:href="#av"/><use transform="matrix(0.05,0,0,0.05,28.899999999999995,0)" xlink:href="#aw"/><use transform="matrix(0.05,0,0,0.05,39.85,0)" xlink:href="#ax"/><use transform="matrix(0.05,0,0,0.05,53.85,0)" xlink:href="#ay"/><use transform="matrix(0.05,0,0,0.05,63.85,0)" xlink:href="#au"/><use transform="matrix(0.05,0,0,0.05,69.8,0)" xlink:href="#az"/><use transform="matrix(0.05,0,0,0.05,79.8,0)" xlink:href="#aA"/><use transform="matrix(0.05,0,0,0.05,90.75,0)" xlink:href="#bc"/><use transform="matrix(0.05,0,0,0.05,96.7,0)" xlink:href="#bd"/></g><path fill="#666" d="M185-189c-5-48-123-54-124 2 14 75 158 14 163 119 3 78-121 87-175 55-17-10-28-26-33-46l33-7c5 56 141 63 141-1 0-78-155-14-162-118-5-82 145-84 179-34 5 7 8 16 11 25" id="be"/><path fill="#666" d="M206 0h-36l-40-164L89 0H53L-1-190h32L70-26l43-164h34l41 164 42-164h31" id="bf"/><path fill="#666" d="M96-169c-40 0-48 33-48 73s9 75 48 75c24 0 41-14 43-38l32 2c-6 37-31 61-74 61-59 0-76-41-82-99-10-93 101-131 147-64 4 7 5 14 7 22l-32 3c-4-21-16-35-41-35" id="bg"/><path fill="#666" d="M106-169C34-169 62-67 57 0H25v-261h32l-1 103c12-21 28-36 61-36 89 0 53 116 60 194h-32v-121c2-32-8-49-39-48" id="bh"/><g id="k"><use transform="matrix(0.05,0,0,0.05,0,0)" xlink:href="#be"/><use transform="matrix(0.05,0,0,0.05,12,0)" xlink:href="#aK"/><use transform="matrix(0.05,0,0,0.05,17,0)" xlink:href="#aH"/><use transform="matrix(0.05,0,0,0.05,27,0)" xlink:href="#aQ"/><use transform="matrix(0.05,0,0,0.05,37,0)" xlink:href="#bf"/><use transform="matrix(0.05,0,0,0.05,49.95,0)" xlink:href="#aX"/><use transform="matrix(0.05,0,0,0.05,59.95,0)" xlink:href="#aK"/><use transform="matrix(0.05,0,0,0.05,64.95,0)" xlink:href="#bg"/><use transform="matrix(0.05,0,0,0.05,73.95,0)" xlink:href="#bh"/></g><path fill="#333" d="M136-208V0H84v-208H4v-40h212v40h-80" id="bi"/><path fill="#333" d="M20 75v-336h95v34H67V41h48v34H20" id="bj"/><path fill="#333" d="M4 75V41h49v-268H4v-34h96V75H4" id="bk"/><g id="l"><use transform="matrix(0.05,0,0,0.05,0,0)" xlink:href="#at"/><use transform="matrix(0.05,0,0,0.05,12,0)" xlink:href="#au"/><use transform="matrix(0.05,0,0,0.05,17.95,0)" xlink:href="#av"/><use transform="matrix(0.05,0,0,0.05,28.899999999999995,0)" xlink:href="#aw"/><use transform="matrix(0.05,0,0,0.05,39.85,0)" xlink:href="#ax"/><use transform="matrix(0.05,0,0,0.05,53.85,0)" xlink:href="#ay"/><use transform="matrix(0.05,0,0,0.05,63.85,0)" xlink:href="#au"/><use transform="matrix(0.05,0,0,0.05,69.8,0)" xlink:href="#az"/><use transform="matrix(0.05,0,0,0.05,79.8,0)" xlink:href="#aA"/><use transform="matrix(0.05,0,0,0.05,90.75,0)" xlink:href="#bc"/><use transform="matrix(0.05,0,0,0.05,96.7,0)" xlink:href="#bi"/><use transform="matrix(0.05,0,0,0.05,106.30000000000001,0)" xlink:href="#aC"/><use transform="matrix(0.05,0,0,0.05,116.30000000000001,0)" xlink:href="#aw"/><use transform="matrix(0.05,0,0,0.05,127.25,0)" xlink:href="#aD"/><use transform="matrix(0.05,0,0,0.05,137.25,0)" xlink:href="#bj"/><use transform="matrix(0.05,0,0,0.05,143.2,0)" xlink:href="#bk"/><use transform="matrix(0.05,0,0,0.05,149.14999999999998,0)" xlink:href="#bd"/></g><g id="m"><use transform="matrix(0.05,0,0,0.05,0,0)" xlink:href="#aE"/><use transform="matrix(0.05,0,0,0.05,10,0)" xlink:href="#au"/><use transform="matrix(0.05,0,0,0.05,15.949999999999998,0)" xlink:href="#ay"/><use transform="matrix(0.05,0,0,0.05,25.950000000000003,0)" xlink:href="#aV"/><use transform="matrix(0.05,0,0,0.05,32.95,0)" xlink:href="#au"/><use transform="matrix(0.05,0,0,0.05,38.900000000000006,0)" xlink:href="#bc"/><use transform="matrix(0.05,0,0,0.05,44.85000000000001,0)" xlink:href="#bd"/></g><path fill="#666" d="M108 0H70L1-190h34L89-25l56-165h34" id="bl"/><path fill="#666" d="M24-231v-30h32v30H24zM24 0v-190h32V0H24" id="bm"/><path fill="#666" d="M85-194c31 0 48 13 60 33l-1-100h32l1 261h-30c-2-10 0-23-3-31C134-8 116 4 85 4 32 4 16-35 15-94c0-66 23-100 70-100zm9 24c-40 0-46 34-46 75 0 40 6 74 45 74 42 0 51-32 51-76 0-42-9-74-50-73" id="bn"/><g id="n"><use transform="matrix(0.05,0,0,0.05,0,0)" xlink:href="#bl"/><use transform="matrix(0.05,0,0,0.05,9,0)" xlink:href="#aH"/><use transform="matrix(0.05,0,0,0.05,19,0)" xlink:href="#bm"/><use transform="matrix(0.05,0,0,0.05,22.95,0)" xlink:href="#bn"/></g><g id="o"><use transform="matrix(0.05,0,0,0.05,0,0)" xlink:href="#aE"/><use transform="matrix(0.05,0,0,0.05,10,0)" xlink:href="#au"/><use transform="matrix(0.05,0,0,0.05,15.949999999999998,0)" xlink:href="#av"/><use transform="matrix(0.05,0,0,0.05,26.899999999999995,0)" xlink:href="#aw"/><use transform="matrix(0.05,0,0,0.05,37.85,0)" xlink:href="#bc"/><use transform="matrix(0.05,0,0,0.05,43.800000000000004,0)" xlink:href="#bd"/></g><g id="p"><use transform="matrix(0.05,0,0,0.05,0,0)" xlink:href="#bl"/><use transform="matrix(0.05,0,0,0.05,9,0)" xlink:href="#aH"/><use transform="matrix(0.05,0,0,0.05,19,0)" xlink:href="#bm"/><use transform="matrix(0.05,0,0,0.05,22.95,0)" xlink:href="#bn"/></g><g id="q"><use transform="matrix(0.05,0,0,0.05,0,0)" xlink:href="#aV"/><use transform="matrix(0.05,0,0,0.05,7,0)" xlink:href="#aD"/><use transform="matrix(0.05,0,0,0.05,17,0)" xlink:href="#aE"/><use transform="matrix(0.05,0,0,0.05,27,0)" xlink:href="#aD"/><use transform="matrix(0.05,0,0,0.05,37,0)" xlink:href="#au"/><use transform="matrix(0.05,0,0,0.05,42.95,0)" xlink:href="#bc"/><use transform="matrix(0.05,0,0,0.05,48.900000000000006,0)" xlink:href="#bd"/></g><path fill="#333" d="M195-6C206 82 75 100 31 46c-4-6-6-13-8-21l49-6c3 16 16 24 34 25 40 0 42-37 40-79-11 22-30 35-61 35-53 0-70-43-70-97 0-56 18-96 73-97 30 0 46 14 59 34l2-30h47zm-90-29c32 0 41-27 41-63 0-35-9-62-40-62-32 0-39 29-40 63 0 36 9 62 39 62" id="bo"/><path fill="#333" d="M67-125c0 53 21 87 73 88 37 1 54-22 65-47l45 17C233-25 199 4 140 4 58 4 20-42 15-125 8-235 124-281 211-232c18 10 29 29 36 50l-46 12c-8-25-30-41-62-41-52 0-71 34-72 86" id="bp"/><path fill="#333" d="M24 0v-54h51V0H24" id="bq"/><g id="r"><use transform="matrix(0.05,0,0,0.05,0,0)" xlink:href="#bo"/><use transform="matrix(0.05,0,0,0.05,10.950000000000001,0)" xlink:href="#aD"/><use transform="matrix(0.05,0,0,0.05,20.950000000000003,0)" xlink:href="#au"/><use transform="matrix(0.05,0,0,0.05,26.900000000000002,0)" xlink:href="#bp"/><use transform="matrix(0.05,0,0,0.05,39.85,0)" xlink:href="#av"/><use transform="matrix(0.05,0,0,0.05,50.800000000000004,0)" xlink:href="#aT"/><use transform="matrix(0.05,0,0,0.05,61.75,0)" xlink:href="#aU"/><use transform="matrix(0.05,0,0,0.05,72.7,0)" xlink:href="#au"/><use transform="matrix(0.05,0,0,0.05,78.65,0)" xlink:href="#aD"/><use transform="matrix(0.05,0,0,0.05,88.65,0)" xlink:href="#aV"/><use transform="matrix(0.05,0,0,0.05,95.65,0)" xlink:href="#bc"/><use transform="matrix(0.05,0,0,0.05,101.60000000000001,0)" xlink:href="#bp"/><use transform="matrix(0.05,0,0,0.05,114.55000000000001,0)" xlink:href="#av"/><use transform="matrix(0.05,0,0,0.05,125.5,0)" xlink:href="#aT"/><use transform="matrix(0.05,0,0,0.05,136.45000000000002,0)" xlink:href="#aU"/><use transform="matrix(0.05,0,0,0.05,147.4,0)" xlink:href="#au"/><use transform="matrix(0.05,0,0,0.05,153.35,0)" xlink:href="#aD"/><use transform="matrix(0.05,0,0,0.05,163.35,0)" xlink:href="#aV"/><use transform="matrix(0.05,0,0,0.05,169.35,0)" xlink:href="#bq"/><use transform="matrix(0.05,0,0,0.05,174.35,0)" xlink:href="#bi"/><use transform="matrix(0.05,0,0,0.05,183.95,0)" xlink:href="#aC"/><use transform="matrix(0.05,0,0,0.05,193.95,0)" xlink:href="#aw"/><use transform="matrix(0.05,0,0,0.05,204.89999999999998,0)" xlink:href="#aD"/><use transform="matrix(0.05,0,0,0.05,214.89999999999998,0)" xlink:href="#bd"/></g><use transform="matrix(0.05,0,0,0.05,0,0)" xlink:href="#aF" id="s"/><g id="t"><use transform="matrix(0.05,0,0,0.05,0,0)" xlink:href="#aG"/><use transform="matrix(0.05,0,0,0.05,12.950000000000001,0)" xlink:href="#aH"/><use transform="matrix(0.05,0,0,0.05,22.950000000000003,0)" xlink:href="#aI"/><use transform="matrix(0.05,0,0,0.05,32.95,0)" xlink:href="#aJ"/><use transform="matrix(0.05,0,0,0.05,42.95,0)" xlink:href="#aK"/><use transform="matrix(0.05,0,0,0.05,47.95,0)" xlink:href="#aL"/><use transform="matrix(0.05,0,0,0.05,57.95,0)" xlink:href="#aM"/></g><g id="u"><use transform="matrix(0.05,0,0,0.05,0,0)" xlink:href="#bo"/><use transform="matrix(0.05,0,0,0.05,10.950000000000001,0)" xlink:href="#aD"/><use transform="matrix(0.05,0,0,0.05,20.950000000000003,0)" xlink:href="#au"/><use transform="matrix(0.05,0,0,0.05,26.900000000000002,0)" xlink:href="#bp"/><use transform="matrix(0.05,0,0,0.05,39.85,0)" xlink:href="#av"/><use transform="matrix(0.05,0,0,0.05,50.800000000000004,0)" xlink:href="#aT"/><use transform="matrix(0.05,0,0,0.05,61.75,0)" xlink:href="#aU"/><use transform="matrix(0.05,0,0,0.05,72.7,0)" xlink:href="#au"/><use transform="matrix(0.05,0,0,0.05,78.65,0)" xlink:href="#aD"/><use transform="matrix(0.05,0,0,0.05,88.65,0)" xlink:href="#aV"/><use transform="matrix(0.05,0,0,0.05,95.65,0)" xlink:href="#aE"/><use transform="matrix(0.05,0,0,0.05,105.65,0)" xlink:href="#bc"/><use transform="matrix(0.05,0,0,0.05,111.60000000000001,0)" xlink:href="#bd"/></g><path fill="#666" d="M24 0v-261h32V0H24" id="br"/><g id="v"><use transform="matrix(0.05,0,0,0.05,0,0)" xlink:href="#aG"/><use transform="matrix(0.05,0,0,0.05,12.950000000000001,0)" xlink:href="#aH"/><use transform="matrix(0.05,0,0,0.05,22.950000000000003,0)" xlink:href="#br"/><use transform="matrix(0.05,0,0,0.05,26.900000000000002,0)" xlink:href="#br"/><use transform="matrix(0.05,0,0,0.05,30.85,0)" xlink:href="#aL"/><use transform="matrix(0.05,0,0,0.05,40.85,0)" xlink:href="#bg"/><use transform="matrix(0.05,0,0,0.05,49.85,0)" xlink:href="#aK"/><use transform="matrix(0.05,0,0,0.05,54.85,0)" xlink:href="#bm"/><use transform="matrix(0.05,0,0,0.05,58.800000000000004,0)" xlink:href="#aH"/><use transform="matrix(0.05,0,0,0.05,68.80000000000001,0)" xlink:href="#aJ"/><use transform="matrix(0.05,0,0,0.05,78.80000000000001,0)" xlink:href="#aY"/><use transform="matrix(0.05,0,0,0.05,89.30000000000001,0)" xlink:href="#aG"/><use transform="matrix(0.05,0,0,0.05,102.25000000000001,0)" xlink:href="#aH"/><use transform="matrix(0.05,0,0,0.05,112.25,0)" xlink:href="#aI"/><use transform="matrix(0.05,0,0,0.05,122.25,0)" xlink:href="#aJ"/><use transform="matrix(0.05,0,0,0.05,132.25,0)" xlink:href="#aK"/><use transform="matrix(0.05,0,0,0.05,137.25,0)" xlink:href="#aL"/><use transform="matrix(0.05,0,0,0.05,147.25,0)" xlink:href="#aM"/><use transform="matrix(0.05,0,0,0.05,153.2,0)" xlink:href="#ba"/></g><path fill="#333" d="M25-224v-37h50v37H25zM25 0v-190h50V0H25" id="bs"/><path fill="#333" d="M24-248c93 1 206-16 204 79-1 75-69 88-152 82V0H24v-248zm52 121c47 0 100 7 100-41 0-47-54-39-100-39v80" id="bt"/><path fill="#333" d="M220-157c-53 9-28 100-34 157h-49v-107c1-27-5-49-29-50C55-147 81-57 75 0H25l-1-190h47c2 12-1 28 3 38 10-53 101-56 108 0 13-22 24-43 59-42 82 1 51 116 57 194h-49v-107c-1-25-5-48-29-50" id="bu"/><g id="w"><use transform="matrix(0.05,0,0,0.05,0,0)" xlink:href="#aw"/><use transform="matrix(0.05,0,0,0.05,10.950000000000001,0)" xlink:href="#aV"/><use transform="matrix(0.05,0,0,0.05,17.950000000000003,0)" xlink:href="#bs"/><use transform="matrix(0.05,0,0,0.05,22.950000000000003,0)" xlink:href="#aU"/><use transform="matrix(0.05,0,0,0.05,33.900000000000006,0)" xlink:href="#au"/><use transform="matrix(0.05,0,0,0.05,39.85000000000001,0)" xlink:href="#at"/><use transform="matrix(0.05,0,0,0.05,51.85,0)" xlink:href="#au"/><use transform="matrix(0.05,0,0,0.05,57.80000000000001,0)" xlink:href="#ay"/><use transform="matrix(0.05,0,0,0.05,67.80000000000001,0)" xlink:href="#au"/><use transform="matrix(0.05,0,0,0.05,73.75000000000001,0)" xlink:href="#bs"/><use transform="matrix(0.05,0,0,0.05,78.75000000000001,0)" xlink:href="#aE"/><use transform="matrix(0.05,0,0,0.05,88.75000000000001,0)" xlink:href="#au"/><use transform="matrix(0.05,0,0,0.05,94.70000000000002,0)" xlink:href="#bs"/><use transform="matrix(0.05,0,0,0.05,99.70000000000002,0)" xlink:href="#az"/><use transform="matrix(0.05,0,0,0.05,109.7,0)" xlink:href="#aE"/><use transform="matrix(0.05,0,0,0.05,119.7,0)" xlink:href="#bc"/><use transform="matrix(0.05,0,0,0.05,125.65000000000003,0)" xlink:href="#bt"/><use transform="matrix(0.05,0,0,0.05,137.65000000000003,0)" xlink:href="#aV"/><use transform="matrix(0.05,0,0,0.05,144.65000000000003,0)" xlink:href="#bs"/><use transform="matrix(0.05,0,0,0.05,149.65000000000003,0)" xlink:href="#aU"/><use transform="matrix(0.05,0,0,0.05,160.60000000000002,0)" xlink:href="#au"/><use transform="matrix(0.05,0,0,0.05,166.55,0)" xlink:href="#at"/><use transform="matrix(0.05,0,0,0.05,178.55,0)" xlink:href="#au"/><use transform="matrix(0.05,0,0,0.05,184.5,0)" xlink:href="#aV"/><use transform="matrix(0.05,0,0,0.05,191.5,0)" xlink:href="#aD"/><use transform="matrix(0.05,0,0,0.05,201.5,0)" xlink:href="#ay"/><use transform="matrix(0.05,0,0,0.05,211.5,0)" xlink:href="#bu"/><use transform="matrix(0.05,0,0,0.05,227.5,0)" xlink:href="#bd"/></g><path fill="#333" d="M76-54c-1 42 2 86-19 110H24C36 42 46 24 48 0H25v-54h51" id="bv"/><g id="x"><use transform="matrix(0.05,0,0,0.05,0,0)" xlink:href="#aw"/><use transform="matrix(0.05,0,0,0.05,10.950000000000001,0)" xlink:href="#aV"/><use transform="matrix(0.05,0,0,0.05,17.950000000000003,0)" xlink:href="#bs"/><use transform="matrix(0.05,0,0,0.05,22.950000000000003,0)" xlink:href="#aU"/><use transform="matrix(0.05,0,0,0.05,33.900000000000006,0)" xlink:href="#au"/><use transform="matrix(0.05,0,0,0.05,39.85000000000001,0)" xlink:href="#at"/><use transform="matrix(0.05,0,0,0.05,51.85,0)" xlink:href="#au"/><use transform="matrix(0.05,0,0,0.05,57.80000000000001,0)" xlink:href="#ay"/><use transform="matrix(0.05,0,0,0.05,67.80000000000001,0)" xlink:href="#au"/><use transform="matrix(0.05,0,0,0.05,73.75000000000001,0)" xlink:href="#bs"/><use transform="matrix(0.05,0,0,0.05,78.75000000000001,0)" xlink:href="#aE"/><use transform="matrix(0.05,0,0,0.05,88.75000000000001,0)" xlink:href="#au"/><use transform="matrix(0.05,0,0,0.05,94.70000000000002,0)" xlink:href="#bs"/><use transform="matrix(0.05,0,0,0.05,99.70000000000002,0)" xlink:href="#az"/><use transform="matrix(0.05,0,0,0.05,109.7,0)" xlink:href="#aE"/><use transform="matrix(0.05,0,0,0.05,119.7,0)" xlink:href="#bc"/><use transform="matrix(0.05,0,0,0.05,125.65000000000003,0)" xlink:href="#bt"/><use transform="matrix(0.05,0,0,0.05,137.65000000000003,0)" xlink:href="#aV"/><use transform="matrix(0.05,0,0,0.05,144.65000000000003,0)" xlink:href="#bs"/><use transform="matrix(0.05,0,0,0.05,149.65000000000003,0)" xlink:href="#aU"/><use transform="matrix(0.05,0,0,0.05,160.60000000000002,0)" xlink:href="#au"/><use transform="matrix(0.05,0,0,0.05,166.55,0)" xlink:href="#at"/><use transform="matrix(0.05,0,0,0.05,178.55,0)" xlink:href="#au"/><use transform="matrix(0.05,0,0,0.05,184.5,0)" xlink:href="#aV"/><use transform="matrix(0.05,0,0,0.05,191.5,0)" xlink:href="#aD"/><use transform="matrix(0.05,0,0,0.05,201.5,0)" xlink:href="#ay"/><use transform="matrix(0.05,0,0,0.05,211.5,0)" xlink:href="#bu"/><use transform="matrix(0.05,0,0,0.05,227.5,0)" xlink:href="#bv"/></g><path fill="#333" d="M238-95c0 69-44 99-111 99C63 4 22-25 22-93v-155h51v151c-1 38 19 59 55 60 90 1 49-130 58-211h52v153" id="bw"/><g id="y"><use transform="matrix(0.05,0,0,0.05,0,0)" xlink:href="#bi"/><use transform="matrix(0.05,0,0,0.05,10.600000000000001,0)" xlink:href="#bs"/><use transform="matrix(0.05,0,0,0.05,15.600000000000001,0)" xlink:href="#bu"/><use transform="matrix(0.05,0,0,0.05,31.6,0)" xlink:href="#aD"/><use transform="matrix(0.05,0,0,0.05,41.6,0)" xlink:href="#bw"/><use transform="matrix(0.05,0,0,0.05,54.550000000000004,0)" xlink:href="#aU"/><use transform="matrix(0.05,0,0,0.05,65.5,0)" xlink:href="#bs"/><use transform="matrix(0.05,0,0,0.05,70.5,0)" xlink:href="#au"/><use transform="matrix(0.05,0,0,0.05,76.45,0)" xlink:href="#bd"/></g><g id="z"><use transform="matrix(0.05,0,0,0.05,0,0)" xlink:href="#bl"/><use transform="matrix(0.05,0,0,0.05,9,0)" xlink:href="#aH"/><use transform="matrix(0.05,0,0,0.05,19,0)" xlink:href="#bm"/><use transform="matrix(0.05,0,0,0.05,22.95,0)" xlink:href="#bn"/></g><path fill="#333" d="M210-169c-67 3-38 105-44 169h-31v-121c0-29-5-50-35-48C34-165 62-65 56 0H25l-1-190h30c1 10-1 24 2 32 10-44 99-50 107 0 11-21 27-35 58-36 85-2 47 119 55 194h-31v-121c0-29-5-49-35-48" id="bx"/><path fill="#333" d="M141-36C126-15 110 5 73 4 37 3 15-17 15-53c-1-64 63-63 125-63 3-35-9-54-41-54-24 1-41 7-42 31l-33-3c5-37 33-52 76-52 45 0 72 20 72 64v82c-1 20 7 32 28 27v20c-31 9-61-2-59-35zM48-53c0 20 12 33 32 33 41-3 63-29 60-74-43 2-92-5-92 41" id="by"/><path fill="#333" d="M24-231v-30h32v30H24zM24 0v-190h32V0H24" id="bz"/><path fill="#333" d="M117-194c89-4 53 116 60 194h-32v-121c0-31-8-49-39-48C34-167 62-67 57 0H25l-1-190h30c1 10-1 24 2 32 11-22 29-35 61-36" id="bA"/><path fill="#333" d="M59-47c-2 24 18 29 38 22v24C64 9 27 4 27-40v-127H5v-23h24l9-43h21v43h35v23H59v120" id="bB"/><path fill="#333" d="M135-143c-3-34-86-38-87 0 15 53 115 12 119 90S17 21 10-45l28-5c4 36 97 45 98 0-10-56-113-15-118-90-4-57 82-63 122-42 12 7 21 19 24 35" id="bC"/><g id="A"><use transform="matrix(0.05,0,0,0.05,0,0)" xlink:href="#bx"/><use transform="matrix(0.05,0,0,0.05,14.950000000000001,0)" xlink:href="#by"/><use transform="matrix(0.05,0,0,0.05,24.950000000000003,0)" xlink:href="#bz"/><use transform="matrix(0.05,0,0,0.05,28.900000000000002,0)" xlink:href="#bA"/><use transform="matrix(0.05,0,0,0.05,38.900000000000006,0)" xlink:href="#bB"/><use transform="matrix(0.05,0,0,0.05,43.900000000000006,0)" xlink:href="#by"/><use transform="matrix(0.05,0,0,0.05,53.900000000000006,0)" xlink:href="#bz"/><use transform="matrix(0.05,0,0,0.05,57.85,0)" xlink:href="#bA"/><use transform="matrix(0.05,0,0,0.05,67.85000000000001,0)" xlink:href="#bC"/></g><path fill="#333" d="M230 0l2-204L168 0h-37L68-204 70 0H24v-248h70l56 185 57-185h69V0h-46" id="bD"/><path fill="#333" d="M88-194c31-1 46 15 58 34l-1-101h50l1 261h-48c-2-10 0-23-3-31C134-8 116 4 84 4 32 4 16-41 15-95c0-56 19-97 73-99zm17 164c33 0 40-30 41-66 1-37-9-64-41-64s-38 30-39 65c0 43 13 65 39 65" id="bE"/><path fill="#333" d="M240-174c0 40-23 61-54 70L253 0h-59l-57-94H76V0H24v-248c93 4 217-23 216 74zM76-134c48-2 112 12 112-38 0-48-66-32-112-35v73" id="bF"/><path fill="#333" d="M135-194c52 0 70 43 70 98 0 56-19 99-73 100-30 1-46-15-58-35L72 0H24l1-261h50v104c11-23 29-37 60-37zM114-30c31 0 40-27 40-66 0-37-7-63-39-63s-41 28-41 65c0 36 8 64 40 64" id="bG"/><path fill="#333" d="M25 0v-261h50V0H25" id="bH"/><g id="B"><use transform="matrix(0.06172839506172839,0,0,0.06172839506172839,0,0)" xlink:href="#bD"/><use transform="matrix(0.06172839506172839,0,0,0.06172839506172839,18.456790123456788,0)" xlink:href="#av"/><use transform="matrix(0.06172839506172839,0,0,0.06172839506172839,31.9753086419753,0)" xlink:href="#aU"/><use transform="matrix(0.06172839506172839,0,0,0.06172839506172839,45.49382716049382,0)" xlink:href="#bs"/><use transform="matrix(0.06172839506172839,0,0,0.06172839506172839,51.666666666666664,0)" xlink:href="#au"/><use transform="matrix(0.06172839506172839,0,0,0.06172839506172839,59.01234567901234,0)" xlink:href="#av"/><use transform="matrix(0.06172839506172839,0,0,0.06172839506172839,72.53086419753086,0)" xlink:href="#aV"/><use transform="matrix(0.06172839506172839,0,0,0.06172839506172839,81.17283950617283,0)" xlink:href="#aD"/><use transform="matrix(0.06172839506172839,0,0,0.06172839506172839,93.51851851851852,0)" xlink:href="#bE"/><use transform="matrix(0.06172839506172839,0,0,0.06172839506172839,107.03703703703704,0)" xlink:href="#bF"/><use transform="matrix(0.06172839506172839,0,0,0.06172839506172839,123.0246913580247,0)" xlink:href="#aT"/><use transform="matrix(0.06172839506172839,0,0,0.06172839506172839,136.54320987654322,0)" xlink:href="#aU"/><use transform="matrix(0.06172839506172839,0,0,0.06172839506172839,150.06172839506172,0)" xlink:href="#aU"/><use transform="matrix(0.06172839506172839,0,0,0.06172839506172839,163.58024691358023,0)" xlink:href="#ay"/><use transform="matrix(0.06172839506172839,0,0,0.06172839506172839,175.9259259259259,0)" xlink:href="#bG"/><use transform="matrix(0.06172839506172839,0,0,0.06172839506172839,189.4444444444444,0)" xlink:href="#bH"/><use transform="matrix(0.06172839506172839,0,0,0.06172839506172839,195.61728395061724,0)" xlink:href="#aD"/></g><g id="C"><use transform="matrix(0.05,0,0,0.05,0,0)" xlink:href="#bD"/><use transform="matrix(0.05,0,0,0.05,14.950000000000001,0)" xlink:href="#av"/><use transform="matrix(0.05,0,0,0.05,25.900000000000002,0)" xlink:href="#aU"/><use transform="matrix(0.05,0,0,0.05,36.85,0)" xlink:href="#bs"/><use transform="matrix(0.05,0,0,0.05,41.85,0)" xlink:href="#au"/><use transform="matrix(0.05,0,0,0.05,47.800000000000004,0)" xlink:href="#av"/><use transform="matrix(0.05,0,0,0.05,58.75,0)" xlink:href="#aV"/><use transform="matrix(0.05,0,0,0.05,65.75,0)" xlink:href="#aD"/><use transform="matrix(0.05,0,0,0.05,75.75,0)" xlink:href="#bE"/><use transform="matrix(0.05,0,0,0.05,86.7,0)" xlink:href="#bF"/><use transform="matrix(0.05,0,0,0.05,99.65,0)" xlink:href="#aT"/><use transform="matrix(0.05,0,0,0.05,110.60000000000001,0)" xlink:href="#aU"/><use transform="matrix(0.05,0,0,0.05,121.55000000000001,0)" xlink:href="#aU"/><use transform="matrix(0.05,0,0,0.05,132.5,0)" xlink:href="#ay"/><use transform="matrix(0.05,0,0,0.05,142.5,0)" xlink:href="#bG"/><use transform="matrix(0.05,0,0,0.05,153.45,0)" xlink:href="#bH"/><use transform="matrix(0.05,0,0,0.05,158.45,0)" xlink:href="#aD"/><use transform="matrix(0.05,0,0,0.05,168.45,0)" xlink:href="#bc"/><use transform="matrix(0.05,0,0,0.05,174.39999999999998,0)" xlink:href="#bF"/><use transform="matrix(0.05,0,0,0.05,187.34999999999997,0)" xlink:href="#aT"/><use transform="matrix(0.05,0,0,0.05,198.29999999999995,0)" xlink:href="#aU"/><use transform="matrix(0.05,0,0,0.05,209.24999999999991,0)" xlink:href="#aU"/><use transform="matrix(0.05,0,0,0.05,220.19999999999993,0)" xlink:href="#ay"/><use transform="matrix(0.05,0,0,0.05,230.19999999999993,0)" xlink:href="#bG"/><use transform="matrix(0.05,0,0,0.05,241.14999999999992,0)" xlink:href="#bH"/><use transform="matrix(0.05,0,0,0.05,246.14999999999992,0)" xlink:href="#aD"/><use transform="matrix(0.05,0,0,0.05,256.1499999999999,0)" xlink:href="#bd"/></g><path fill="#666" d="M233-177c-1 41-23 64-60 70L243 0h-38l-65-103H63V0H30v-248c88 3 205-21 203 71zM63-129c60-2 137 13 137-47 0-61-80-42-137-45v92" id="bI"/><path fill="#666" d="M115-194c53 0 69 39 70 98 0 66-23 100-70 100C84 3 66-7 56-30L54 0H23l1-261h32v101c10-23 28-34 59-34zm-8 174c40 0 45-34 45-75 0-40-5-75-45-74-42 0-51 32-51 76 0 43 10 73 51 73" id="bJ"/><g id="D"><use transform="matrix(0.05,0,0,0.05,0,0)" xlink:href="#aW"/><use transform="matrix(0.05,0,0,0.05,14.950000000000001,0)" xlink:href="#aH"/><use transform="matrix(0.05,0,0,0.05,24.950000000000003,0)" xlink:href="#aJ"/><use transform="matrix(0.05,0,0,0.05,34.95,0)" xlink:href="#bm"/><use transform="matrix(0.05,0,0,0.05,38.900000000000006,0)" xlink:href="#aK"/><use transform="matrix(0.05,0,0,0.05,43.900000000000006,0)" xlink:href="#aH"/><use transform="matrix(0.05,0,0,0.05,53.900000000000006,0)" xlink:href="#aM"/><use transform="matrix(0.05,0,0,0.05,59.85,0)" xlink:href="#aL"/><use transform="matrix(0.05,0,0,0.05,69.85000000000001,0)" xlink:href="#bn"/><use transform="matrix(0.05,0,0,0.05,79.85000000000001,0)" xlink:href="#bI"/><use transform="matrix(0.05,0,0,0.05,92.80000000000001,0)" xlink:href="#aI"/><use transform="matrix(0.05,0,0,0.05,102.80000000000001,0)" xlink:href="#aJ"/><use transform="matrix(0.05,0,0,0.05,112.80000000000001,0)" xlink:href="#aJ"/><use transform="matrix(0.05,0,0,0.05,122.80000000000001,0)" xlink:href="#aX"/><use transform="matrix(0.05,0,0,0.05,132.8,0)" xlink:href="#bJ"/><use transform="matrix(0.05,0,0,0.05,142.8,0)" xlink:href="#br"/><use transform="matrix(0.05,0,0,0.05,146.75,0)" xlink:href="#aL"/></g><g id="E"><use transform="matrix(0.05,0,0,0.05,0,0)" xlink:href="#bD"/><use transform="matrix(0.05,0,0,0.05,14.950000000000001,0)" xlink:href="#av"/><use transform="matrix(0.05,0,0,0.05,25.900000000000002,0)" xlink:href="#aU"/><use transform="matrix(0.05,0,0,0.05,36.85,0)" xlink:href="#bs"/><use transform="matrix(0.05,0,0,0.05,41.85,0)" xlink:href="#au"/><use transform="matrix(0.05,0,0,0.05,47.800000000000004,0)" xlink:href="#av"/><use transform="matrix(0.05,0,0,0.05,58.75,0)" xlink:href="#aV"/><use transform="matrix(0.05,0,0,0.05,65.75,0)" xlink:href="#aD"/><use transform="matrix(0.05,0,0,0.05,75.75,0)" xlink:href="#bE"/><use transform="matrix(0.05,0,0,0.05,86.7,0)" xlink:href="#bF"/><use transform="matrix(0.05,0,0,0.05,99.65,0)" xlink:href="#aT"/><use transform="matrix(0.05,0,0,0.05,110.60000000000001,0)" xlink:href="#aU"/><use transform="matrix(0.05,0,0,0.05,121.55000000000001,0)" xlink:href="#aU"/><use transform="matrix(0.05,0,0,0.05,132.5,0)" xlink:href="#ay"/><use transform="matrix(0.05,0,0,0.05,142.5,0)" xlink:href="#bG"/><use transform="matrix(0.05,0,0,0.05,153.45,0)" xlink:href="#bH"/><use transform="matrix(0.05,0,0,0.05,158.45,0)" xlink:href="#aD"/><use transform="matrix(0.05,0,0,0.05,168.45,0)" xlink:href="#bc"/><use transform="matrix(0.05,0,0,0.05,174.39999999999998,0)" xlink:href="#bF"/><use transform="matrix(0.05,0,0,0.05,187.34999999999997,0)" xlink:href="#aT"/><use transform="matrix(0.05,0,0,0.05,198.29999999999995,0)" xlink:href="#aU"/><use transform="matrix(0.05,0,0,0.05,209.24999999999991,0)" xlink:href="#aU"/><use transform="matrix(0.05,0,0,0.05,220.19999999999993,0)" xlink:href="#ay"/><use transform="matrix(0.05,0,0,0.05,230.19999999999993,0)" xlink:href="#bG"/><use transform="matrix(0.05,0,0,0.05,241.14999999999992,0)" xlink:href="#bH"/><use transform="matrix(0.05,0,0,0.05,246.14999999999992,0)" xlink:href="#aD"/><use transform="matrix(0.05,0,0,0.05,256.1499999999999,0)" xlink:href="#bv"/></g><g id="F"><use transform="matrix(0.05,0,0,0.05,0,0)" xlink:href="#bi"/><use transform="matrix(0.05,0,0,0.05,9.600000000000001,0)" xlink:href="#aC"/><use transform="matrix(0.05,0,0,0.05,19.6,0)" xlink:href="#aw"/><use transform="matrix(0.05,0,0,0.05,30.55,0)" xlink:href="#aD"/><use transform="matrix(0.05,0,0,0.05,40.550000000000004,0)" xlink:href="#bj"/><use transform="matrix(0.05,0,0,0.05,46.50000000000001,0)" xlink:href="#bk"/><use transform="matrix(0.05,0,0,0.05,52.45000000000002,0)" xlink:href="#bd"/></g><g id="G"><use transform="matrix(0.05,0,0,0.05,0,0)" xlink:href="#aV"/><use transform="matrix(0.05,0,0,0.05,7,0)" xlink:href="#aT"/><use transform="matrix(0.05,0,0,0.05,17.950000000000003,0)" xlink:href="#aU"/><use transform="matrix(0.05,0,0,0.05,28.900000000000006,0)" xlink:href="#bc"/><use transform="matrix(0.05,0,0,0.05,34.85000000000001,0)" xlink:href="#bd"/></g><path fill="#333" d="M15-91v-56l181-69v40L49-119l147 57v40" id="bK"/><path fill="#333" d="M15-22v-40l146-57-146-57v-40l181 69v56" id="bL"/><g id="H"><use transform="matrix(0.06172839506172839,0,0,0.06172839506172839,0,0)" xlink:href="#bD"/><use transform="matrix(0.06172839506172839,0,0,0.06172839506172839,18.456790123456788,0)" xlink:href="#av"/><use transform="matrix(0.06172839506172839,0,0,0.06172839506172839,31.9753086419753,0)" xlink:href="#aU"/><use transform="matrix(0.06172839506172839,0,0,0.06172839506172839,45.49382716049382,0)" xlink:href="#bs"/><use transform="matrix(0.06172839506172839,0,0,0.06172839506172839,51.666666666666664,0)" xlink:href="#au"/><use transform="matrix(0.06172839506172839,0,0,0.06172839506172839,59.01234567901234,0)" xlink:href="#av"/><use transform="matrix(0.06172839506172839,0,0,0.06172839506172839,72.53086419753086,0)" xlink:href="#aV"/><use transform="matrix(0.06172839506172839,0,0,0.06172839506172839,81.17283950617283,0)" xlink:href="#aD"/><use transform="matrix(0.06172839506172839,0,0,0.06172839506172839,93.51851851851852,0)" xlink:href="#bE"/><use transform="matrix(0.06172839506172839,0,0,0.06172839506172839,107.03703703703704,0)" xlink:href="#bp"/><use transform="matrix(0.06172839506172839,0,0,0.06172839506172839,123.0246913580247,0)" xlink:href="#ay"/><use transform="matrix(0.06172839506172839,0,0,0.06172839506172839,135.37037037037038,0)" xlink:href="#bH"/><use transform="matrix(0.06172839506172839,0,0,0.06172839506172839,141.54320987654322,0)" xlink:href="#bH"/><use transform="matrix(0.06172839506172839,0,0,0.06172839506172839,147.71604938271605,0)" xlink:href="#ay"/><use transform="matrix(0.06172839506172839,0,0,0.06172839506172839,160.06172839506172,0)" xlink:href="#bG"/><use transform="matrix(0.06172839506172839,0,0,0.06172839506172839,173.58024691358023,0)" xlink:href="#bH"/><use transform="matrix(0.06172839506172839,0,0,0.06172839506172839,179.75308641975306,0)" xlink:href="#aD"/><use transform="matrix(0.06172839506172839,0,0,0.06172839506172839,192.09876543209873,0)" xlink:href="#bK"/><use transform="matrix(0.06172839506172839,0,0,0.06172839506172839,205.0617283950617,0)" xlink:href="#bi"/><use transform="matrix(0.06172839506172839,0,0,0.06172839506172839,218.5802469135802,0)" xlink:href="#bL"/></g><g id="I"><use transform="matrix(0.05,0,0,0.05,0,0)" xlink:href="#bD"/><use transform="matrix(0.05,0,0,0.05,14.950000000000001,0)" xlink:href="#av"/><use transform="matrix(0.05,0,0,0.05,25.900000000000002,0)" xlink:href="#aU"/><use transform="matrix(0.05,0,0,0.05,36.85,0)" xlink:href="#bs"/><use transform="matrix(0.05,0,0,0.05,41.85,0)" xlink:href="#au"/><use transform="matrix(0.05,0,0,0.05,47.800000000000004,0)" xlink:href="#av"/><use transform="matrix(0.05,0,0,0.05,58.75,0)" xlink:href="#aV"/><use transform="matrix(0.05,0,0,0.05,65.75,0)" xlink:href="#aD"/><use transform="matrix(0.05,0,0,0.05,75.75,0)" xlink:href="#bE"/><use transform="matrix(0.05,0,0,0.05,86.7,0)" xlink:href="#bp"/><use transform="matrix(0.05,0,0,0.05,99.65,0)" xlink:href="#ay"/><use transform="matrix(0.05,0,0,0.05,109.65,0)" xlink:href="#bH"/><use transform="matrix(0.05,0,0,0.05,114.65,0)" xlink:href="#bH"/><use transform="matrix(0.05,0,0,0.05,119.65,0)" xlink:href="#ay"/><use transform="matrix(0.05,0,0,0.05,129.65,0)" xlink:href="#bG"/><use transform="matrix(0.05,0,0,0.05,140.6,0)" xlink:href="#bH"/><use transform="matrix(0.05,0,0,0.05,145.6,0)" xlink:href="#aD"/><use transform="matrix(0.05,0,0,0.05,155.6,0)" xlink:href="#bc"/><use transform="matrix(0.05,0,0,0.05,161.54999999999998,0)" xlink:href="#bp"/><use transform="matrix(0.05,0,0,0.05,174.49999999999997,0)" xlink:href="#ay"/><use transform="matrix(0.05,0,0,0.05,184.49999999999997,0)" xlink:href="#bH"/><use transform="matrix(0.05,0,0,0.05,189.49999999999997,0)" xlink:href="#bH"/><use transform="matrix(0.05,0,0,0.05,194.49999999999997,0)" xlink:href="#ay"/><use transform="matrix(0.05,0,0,0.05,204.49999999999997,0)" xlink:href="#bG"/><use transform="matrix(0.05,0,0,0.05,215.44999999999996,0)" xlink:href="#bH"/><use transform="matrix(0.05,0,0,0.05,220.44999999999996,0)" xlink:href="#aD"/><use transform="matrix(0.05,0,0,0.05,230.44999999999996,0)" xlink:href="#bd"/></g><g id="J"><use transform="matrix(0.05,0,0,0.05,0,0)" xlink:href="#aW"/><use transform="matrix(0.05,0,0,0.05,14.950000000000001,0)" xlink:href="#aH"/><use transform="matrix(0.05,0,0,0.05,24.950000000000003,0)" xlink:href="#aJ"/><use transform="matrix(0.05,0,0,0.05,34.95,0)" xlink:href="#bm"/><use transform="matrix(0.05,0,0,0.05,38.900000000000006,0)" xlink:href="#aK"/><use transform="matrix(0.05,0,0,0.05,43.900000000000006,0)" xlink:href="#aH"/><use transform="matrix(0.05,0,0,0.05,53.900000000000006,0)" xlink:href="#aM"/><use transform="matrix(0.05,0,0,0.05,59.85,0)" xlink:href="#aL"/><use transform="matrix(0.05,0,0,0.05,69.85000000000001,0)" xlink:href="#bn"/><use transform="matrix(0.05,0,0,0.05,79.85000000000001,0)" xlink:href="#aG"/><use transform="matrix(0.05,0,0,0.05,92.80000000000001,0)" xlink:href="#aX"/><use transform="matrix(0.05,0,0,0.05,102.80000000000001,0)" xlink:href="#br"/><use transform="matrix(0.05,0,0,0.05,106.75,0)" xlink:href="#br"/><use transform="matrix(0.05,0,0,0.05,110.7,0)" xlink:href="#aX"/><use transform="matrix(0.05,0,0,0.05,120.7,0)" xlink:href="#bJ"/><use transform="matrix(0.05,0,0,0.05,130.70000000000002,0)" xlink:href="#br"/><use transform="matrix(0.05,0,0,0.05,134.65,0)" xlink:href="#aL"/></g><g id="K"><use transform="matrix(0.05,0,0,0.05,0,0)" xlink:href="#bD"/><use transform="matrix(0.05,0,0,0.05,14.950000000000001,0)" xlink:href="#av"/><use transform="matrix(0.05,0,0,0.05,25.900000000000002,0)" xlink:href="#aU"/><use transform="matrix(0.05,0,0,0.05,36.85,0)" xlink:href="#bs"/><use transform="matrix(0.05,0,0,0.05,41.85,0)" xlink:href="#au"/><use transform="matrix(0.05,0,0,0.05,47.800000000000004,0)" xlink:href="#av"/><use transform="matrix(0.05,0,0,0.05,58.75,0)" xlink:href="#aV"/><use transform="matrix(0.05,0,0,0.05,65.75,0)" xlink:href="#aD"/><use transform="matrix(0.05,0,0,0.05,75.75,0)" xlink:href="#bE"/><use transform="matrix(0.05,0,0,0.05,86.7,0)" xlink:href="#bp"/><use transform="matrix(0.05,0,0,0.05,99.65,0)" xlink:href="#ay"/><use transform="matrix(0.05,0,0,0.05,109.65,0)" xlink:href="#bH"/><use transform="matrix(0.05,0,0,0.05,114.65,0)" xlink:href="#bH"/><use transform="matrix(0.05,0,0,0.05,119.65,0)" xlink:href="#ay"/><use transform="matrix(0.05,0,0,0.05,129.65,0)" xlink:href="#bG"/><use transform="matrix(0.05,0,0,0.05,140.6,0)" xlink:href="#bH"/><use transform="matrix(0.05,0,0,0.05,145.6,0)" xlink:href="#aD"/><use transform="matrix(0.05,0,0,0.05,155.6,0)" xlink:href="#bc"/><use transform="matrix(0.05,0,0,0.05,161.54999999999998,0)" xlink:href="#bp"/><use transform="matrix(0.05,0,0,0.05,174.49999999999997,0)" xlink:href="#ay"/><use transform="matrix(0.05,0,0,0.05,184.49999999999997,0)" xlink:href="#bH"/><use transform="matrix(0.05,0,0,0.05,189.49999999999997,0)" xlink:href="#bH"/><use transform="matrix(0.05,0,0,0.05,194.49999999999997,0)" xlink:href="#ay"/><use transform="matrix(0.05,0,0,0.05,204.49999999999997,0)" xlink:href="#bG"/><use transform="matrix(0.05,0,0,0.05,215.44999999999996,0)" xlink:href="#bH"/><use transform="matrix(0.05,0,0,0.05,220.44999999999996,0)" xlink:href="#aD"/><use transform="matrix(0.05,0,0,0.05,230.44999999999996,0)" xlink:href="#bv"/></g><g id="L"><use transform="matrix(0.05,0,0,0.05,0,0)" xlink:href="#az"/><use transform="matrix(0.05,0,0,0.05,10,0)" xlink:href="#ay"/><use transform="matrix(0.05,0,0,0.05,20,0)" xlink:href="#bH"/><use transform="matrix(0.05,0,0,0.05,25,0)" xlink:href="#bH"/><use transform="matrix(0.05,0,0,0.05,30,0)" xlink:href="#bc"/><use transform="matrix(0.05,0,0,0.05,35.95,0)" xlink:href="#bd"/></g><use transform="matrix(0.05,0,0,0.05,0,0)" xlink:href="#aO" id="M"/><path fill="#333" d="M18-100v-36l175-74v27L42-118l151 64v27" id="bM"/><g id="N"><use transform="matrix(0.04938271604938272,0,0,0.04938271604938272,0,0)" xlink:href="#bM"/><use transform="matrix(0.04938271604938272,0,0,0.04938271604938272,10.370370370370372,0)" xlink:href="#bM"/></g><path fill="#333" d="M115-194c53 0 69 39 70 98 0 66-23 100-70 100C84 3 66-7 56-30L54 0H23l1-261h32v101c10-23 28-34 59-34zm-8 174c40 0 45-34 45-75 0-40-5-75-45-74-42 0-51 32-51 76 0 43 10 73 51 73" id="bN"/><path fill="#333" d="M114-163C36-179 61-72 57 0H25l-1-190h30c1 12-1 29 2 39 6-27 23-49 58-41v29" id="bO"/><path fill="#333" d="M96-169c-40 0-48 33-48 73s9 75 48 75c24 0 41-14 43-38l32 2c-6 37-31 61-74 61-59 0-76-41-82-99-10-93 101-131 147-64 4 7 5 14 7 22l-32 3c-4-21-16-35-41-35" id="bP"/><g id="O"><use transform="matrix(0.04938271604938272,0,0,0.04938271604938272,0,0)" xlink:href="#by"/><use transform="matrix(0.04938271604938272,0,0,0.04938271604938272,9.876543209876544,0)" xlink:href="#bN"/><use transform="matrix(0.04938271604938272,0,0,0.04938271604938272,19.75308641975309,0)" xlink:href="#bC"/><use transform="matrix(0.04938271604938272,0,0,0.04938271604938272,28.641975308641978,0)" xlink:href="#bB"/><use transform="matrix(0.04938271604938272,0,0,0.04938271604938272,33.580246913580254,0)" xlink:href="#bO"/><use transform="matrix(0.04938271604938272,0,0,0.04938271604938272,39.4567901234568,0)" xlink:href="#by"/><use transform="matrix(0.04938271604938272,0,0,0.04938271604938272,49.33333333333334,0)" xlink:href="#bP"/><use transform="matrix(0.04938271604938272,0,0,0.04938271604938272,58.22222222222223,0)" xlink:href="#bB"/></g><path fill="#333" d="M18-27v-27l151-64-151-65v-27l175 74v36" id="bQ"/><g id="P"><use transform="matrix(0.04938271604938272,0,0,0.04938271604938272,0,0)" xlink:href="#bQ"/><use transform="matrix(0.04938271604938272,0,0,0.04938271604938272,10.370370370370372,0)" xlink:href="#bQ"/></g><path fill="#333" d="M140-251c80 0 125 45 125 126S219 4 139 4C58 4 15-44 15-125s44-126 125-126zm-1 214c52 0 73-35 73-88 0-50-21-86-72-86-52 0-73 35-73 86s22 88 72 88" id="bR"/><g id="Q"><use transform="matrix(0.06172839506172839,0,0,0.06172839506172839,0,0)" xlink:href="#bD"/><use transform="matrix(0.06172839506172839,0,0,0.06172839506172839,18.456790123456788,0)" xlink:href="#av"/><use transform="matrix(0.06172839506172839,0,0,0.06172839506172839,31.9753086419753,0)" xlink:href="#aU"/><use transform="matrix(0.06172839506172839,0,0,0.06172839506172839,45.49382716049382,0)" xlink:href="#bs"/><use transform="matrix(0.06172839506172839,0,0,0.06172839506172839,51.666666666666664,0)" xlink:href="#au"/><use transform="matrix(0.06172839506172839,0,0,0.06172839506172839,59.01234567901234,0)" xlink:href="#av"/><use transform="matrix(0.06172839506172839,0,0,0.06172839506172839,72.53086419753086,0)" xlink:href="#aV"/><use transform="matrix(0.06172839506172839,0,0,0.06172839506172839,81.17283950617283,0)" xlink:href="#aD"/><use transform="matrix(0.06172839506172839,0,0,0.06172839506172839,93.51851851851852,0)" xlink:href="#bE"/><use transform="matrix(0.06172839506172839,0,0,0.06172839506172839,107.03703703703704,0)" xlink:href="#bR"/><use transform="matrix(0.06172839506172839,0,0,0.06172839506172839,124.32098765432099,0)" xlink:href="#aw"/><use transform="matrix(0.06172839506172839,0,0,0.06172839506172839,137.8395061728395,0)" xlink:href="#aD"/><use transform="matrix(0.06172839506172839,0,0,0.06172839506172839,150.18518518518516,0)" xlink:href="#aV"/><use transform="matrix(0.06172839506172839,0,0,0.06172839506172839,158.82716049382714,0)" xlink:href="#ay"/><use transform="matrix(0.06172839506172839,0,0,0.06172839506172839,171.1728395061728,0)" xlink:href="#au"/><use transform="matrix(0.06172839506172839,0,0,0.06172839506172839,178.51851851851848,0)" xlink:href="#bs"/><use transform="matrix(0.06172839506172839,0,0,0.06172839506172839,184.6913580246913,0)" xlink:href="#av"/><use transform="matrix(0.06172839506172839,0,0,0.06172839506172839,198.20987654320982,0)" xlink:href="#aU"/></g><g id="R"><use transform="matrix(0.05,0,0,0.05,0,0)" xlink:href="#aE"/><use transform="matrix(0.05,0,0,0.05,10,0)" xlink:href="#au"/><use transform="matrix(0.05,0,0,0.05,15.949999999999998,0)" xlink:href="#av"/><use transform="matrix(0.05,0,0,0.05,26.899999999999995,0)" xlink:href="#aw"/><use transform="matrix(0.05,0,0,0.05,37.85,0)" xlink:href="#ax"/><use transform="matrix(0.05,0,0,0.05,51.85,0)" xlink:href="#ay"/><use transform="matrix(0.05,0,0,0.05,61.85,0)" xlink:href="#au"/><use transform="matrix(0.05,0,0,0.05,67.8,0)" xlink:href="#az"/><use transform="matrix(0.05,0,0,0.05,77.8,0)" xlink:href="#aA"/></g><g id="S"><use transform="matrix(0.05,0,0,0.05,0,0)" xlink:href="#be"/><use transform="matrix(0.05,0,0,0.05,12,0)" xlink:href="#aK"/><use transform="matrix(0.05,0,0,0.05,17,0)" xlink:href="#aH"/><use transform="matrix(0.05,0,0,0.05,27,0)" xlink:href="#aQ"/><use transform="matrix(0.05,0,0,0.05,37,0)" xlink:href="#bf"/><use transform="matrix(0.05,0,0,0.05,49.95,0)" xlink:href="#aX"/><use transform="matrix(0.05,0,0,0.05,59.95,0)" xlink:href="#aK"/><use transform="matrix(0.05,0,0,0.05,64.95,0)" xlink:href="#bg"/><use transform="matrix(0.05,0,0,0.05,73.95,0)" xlink:href="#bh"/></g><g id="T"><use transform="matrix(0.05,0,0,0.05,0,0)" xlink:href="#aG"/><use transform="matrix(0.05,0,0,0.05,12.950000000000001,0)" xlink:href="#aH"/><use transform="matrix(0.05,0,0,0.05,22.950000000000003,0)" xlink:href="#br"/><use transform="matrix(0.05,0,0,0.05,26.900000000000002,0)" xlink:href="#br"/><use transform="matrix(0.05,0,0,0.05,30.85,0)" xlink:href="#aL"/><use transform="matrix(0.05,0,0,0.05,40.85,0)" xlink:href="#bg"/><use transform="matrix(0.05,0,0,0.05,49.85,0)" xlink:href="#aK"/><use transform="matrix(0.05,0,0,0.05,54.85,0)" xlink:href="#bm"/><use transform="matrix(0.05,0,0,0.05,58.800000000000004,0)" xlink:href="#aH"/><use transform="matrix(0.05,0,0,0.05,68.80000000000001,0)" xlink:href="#aJ"/><use transform="matrix(0.05,0,0,0.05,78.80000000000001,0)" xlink:href="#aY"/><use transform="matrix(0.05,0,0,0.05,89.30000000000001,0)" xlink:href="#aG"/><use transform="matrix(0.05,0,0,0.05,102.25000000000001,0)" xlink:href="#aH"/><use transform="matrix(0.05,0,0,0.05,112.25,0)" xlink:href="#aI"/><use transform="matrix(0.05,0,0,0.05,122.25,0)" xlink:href="#aJ"/><use transform="matrix(0.05,0,0,0.05,132.25,0)" xlink:href="#aK"/><use transform="matrix(0.05,0,0,0.05,137.25,0)" xlink:href="#aL"/><use transform="matrix(0.05,0,0,0.05,147.25,0)" xlink:href="#aM"/><use transform="matrix(0.05,0,0,0.05,153.2,0)" xlink:href="#ba"/></g><path fill="#333" d="M100-194c63 0 86 42 84 106H49c0 40 14 67 53 68 26 1 43-12 49-29l28 8c-11 28-37 45-77 45C44 4 14-33 15-96c1-61 26-98 85-98zm52 81c6-60-76-77-97-28-3 7-6 17-6 28h103" id="bS"/><path fill="#333" d="M101-234c-31-9-42 10-38 44h38v23H63V0H32v-167H5v-23h27c-7-52 17-82 69-68v24" id="bT"/><g id="U"><use transform="matrix(0.04938271604938272,0,0,0.04938271604938272,0,0)" xlink:href="#bz"/><use transform="matrix(0.04938271604938272,0,0,0.04938271604938272,3.901234567901235,0)" xlink:href="#bA"/><use transform="matrix(0.04938271604938272,0,0,0.04938271604938272,13.777777777777779,0)" xlink:href="#bB"/><use transform="matrix(0.04938271604938272,0,0,0.04938271604938272,18.71604938271605,0)" xlink:href="#bS"/><use transform="matrix(0.04938271604938272,0,0,0.04938271604938272,28.592592592592595,0)" xlink:href="#bO"/><use transform="matrix(0.04938271604938272,0,0,0.04938271604938272,34.46913580246914,0)" xlink:href="#bT"/><use transform="matrix(0.04938271604938272,0,0,0.04938271604938272,39.40740740740741,0)" xlink:href="#by"/><use transform="matrix(0.04938271604938272,0,0,0.04938271604938272,49.283950617283956,0)" xlink:href="#bP"/><use transform="matrix(0.04938271604938272,0,0,0.04938271604938272,58.17283950617284,0)" xlink:href="#bS"/></g><path fill="#333" d="M25-224v-37h50v37H25zM75 22c2 45-34 59-81 51V38c22 5 31-5 31-27v-201h50V22" id="bU"/><path fill="#333" d="M128 0H69L1-190h53L99-40l48-150h52" id="bV"/><g id="V"><use transform="matrix(0.06172839506172839,0,0,0.06172839506172839,0,0)" xlink:href="#bU"/><use transform="matrix(0.06172839506172839,0,0,0.06172839506172839,6.172839506172839,0)" xlink:href="#ay"/><use transform="matrix(0.06172839506172839,0,0,0.06172839506172839,18.51851851851852,0)" xlink:href="#bV"/><use transform="matrix(0.06172839506172839,0,0,0.06172839506172839,30.864197530864196,0)" xlink:href="#ay"/><use transform="matrix(0.06172839506172839,0,0,0.06172839506172839,43.20987654320987,0)" xlink:href="#bq"/><use transform="matrix(0.06172839506172839,0,0,0.06172839506172839,49.382716049382715,0)" xlink:href="#aT"/><use transform="matrix(0.06172839506172839,0,0,0.06172839506172839,62.901234567901234,0)" xlink:href="#au"/><use transform="matrix(0.06172839506172839,0,0,0.06172839506172839,70.24691358024691,0)" xlink:href="#bs"/><use transform="matrix(0.06172839506172839,0,0,0.06172839506172839,76.41975308641975,0)" xlink:href="#bH"/><use transform="matrix(0.06172839506172839,0,0,0.06172839506172839,82.59259259259258,0)" xlink:href="#bq"/><use transform="matrix(0.06172839506172839,0,0,0.06172839506172839,88.76543209876542,0)" xlink:href="#bF"/><use transform="matrix(0.06172839506172839,0,0,0.06172839506172839,104.75308641975307,0)" xlink:href="#aT"/><use transform="matrix(0.06172839506172839,0,0,0.06172839506172839,118.2716049382716,0)" xlink:href="#aU"/><use transform="matrix(0.06172839506172839,0,0,0.06172839506172839,131.7901234567901,0)" xlink:href="#aU"/><use transform="matrix(0.06172839506172839,0,0,0.06172839506172839,145.3086419753086,0)" xlink:href="#ay"/><use transform="matrix(0.06172839506172839,0,0,0.06172839506172839,157.65432098765427,0)" xlink:href="#bG"/><use transform="matrix(0.06172839506172839,0,0,0.06172839506172839,171.17283950617278,0)" xlink:href="#bH"/><use transform="matrix(0.06172839506172839,0,0,0.06172839506172839,177.3456790123456,0)" xlink:href="#aD"/></g><g id="W"><use transform="matrix(0.05,0,0,0.05,0,0)" xlink:href="#aV"/><use transform="matrix(0.05,0,0,0.05,7,0)" xlink:href="#aT"/><use transform="matrix(0.05,0,0,0.05,17.950000000000003,0)" xlink:href="#aU"/><use transform="matrix(0.05,0,0,0.05,28.900000000000006,0)" xlink:href="#bc"/><use transform="matrix(0.05,0,0,0.05,34.85000000000001,0)" xlink:href="#bd"/></g><g id="X"><use transform="matrix(0.06172839506172839,0,0,0.06172839506172839,0,0)" xlink:href="#bU"/><use transform="matrix(0.06172839506172839,0,0,0.06172839506172839,6.172839506172839,0)" xlink:href="#ay"/><use transform="matrix(0.06172839506172839,0,0,0.06172839506172839,18.51851851851852,0)" xlink:href="#bV"/><use transform="matrix(0.06172839506172839,0,0,0.06172839506172839,30.864197530864196,0)" xlink:href="#ay"/><use transform="matrix(0.06172839506172839,0,0,0.06172839506172839,43.20987654320987,0)" xlink:href="#bq"/><use transform="matrix(0.06172839506172839,0,0,0.06172839506172839,49.382716049382715,0)" xlink:href="#aT"/><use transform="matrix(0.06172839506172839,0,0,0.06172839506172839,62.901234567901234,0)" xlink:href="#au"/><use transform="matrix(0.06172839506172839,0,0,0.06172839506172839,70.24691358024691,0)" xlink:href="#bs"/><use transform="matrix(0.06172839506172839,0,0,0.06172839506172839,76.41975308641975,0)" xlink:href="#bH"/><use transform="matrix(0.06172839506172839,0,0,0.06172839506172839,82.59259259259258,0)" xlink:href="#bq"/><use transform="matrix(0.06172839506172839,0,0,0.06172839506172839,88.76543209876542,0)" xlink:href="#bp"/><use transform="matrix(0.06172839506172839,0,0,0.06172839506172839,104.75308641975307,0)" xlink:href="#ay"/><use transform="matrix(0.06172839506172839,0,0,0.06172839506172839,117.09876543209876,0)" xlink:href="#bH"/><use transform="matrix(0.06172839506172839,0,0,0.06172839506172839,123.2716049382716,0)" xlink:href="#bH"/><use transform="matrix(0.06172839506172839,0,0,0.06172839506172839,129.44444444444443,0)" xlink:href="#ay"/><use transform="matrix(0.06172839506172839,0,0,0.06172839506172839,141.7901234567901,0)" xlink:href="#bG"/><use transform="matrix(0.06172839506172839,0,0,0.06172839506172839,155.3086419753086,0)" xlink:href="#bH"/><use transform="matrix(0.06172839506172839,0,0,0.06172839506172839,161.48148148148144,0)" xlink:href="#aD"/><use transform="matrix(0.06172839506172839,0,0,0.06172839506172839,173.8271604938271,0)" xlink:href="#bK"/><use transform="matrix(0.06172839506172839,0,0,0.06172839506172839,186.79012345679007,0)" xlink:href="#bi"/><use transform="matrix(0.06172839506172839,0,0,0.06172839506172839,200.30864197530857,0)" xlink:href="#bL"/></g><g id="Y"><use transform="matrix(0.05,0,0,0.05,0,0)" xlink:href="#az"/><use transform="matrix(0.05,0,0,0.05,10,0)" xlink:href="#ay"/><use transform="matrix(0.05,0,0,0.05,20,0)" xlink:href="#bH"/><use transform="matrix(0.05,0,0,0.05,25,0)" xlink:href="#bH"/><use transform="matrix(0.05,0,0,0.05,30,0)" xlink:href="#bc"/><use transform="matrix(0.05,0,0,0.05,35.95,0)" xlink:href="#bd"/></g><path fill="#333" d="M84 4C-5 8 30-112 23-190h32v120c0 31 7 50 39 49 72-2 45-101 50-169h31l1 190h-30c-1-10 1-25-2-33-11 22-28 36-60 37" id="bW"/><g id="Z"><use transform="matrix(0.04938271604938272,0,0,0.04938271604938272,0,0)" xlink:href="#bS"/><use transform="matrix(0.04938271604938272,0,0,0.04938271604938272,9.876543209876544,0)" xlink:href="#bA"/><use transform="matrix(0.04938271604938272,0,0,0.04938271604938272,19.75308641975309,0)" xlink:href="#bW"/><use transform="matrix(0.04938271604938272,0,0,0.04938271604938272,29.629629629629633,0)" xlink:href="#bx"/></g><g id="aa"><use transform="matrix(0.06172839506172839,0,0,0.06172839506172839,0,0)" xlink:href="#bp"/><use transform="matrix(0.06172839506172839,0,0,0.06172839506172839,15.987654320987653,0)" xlink:href="#av"/><use transform="matrix(0.06172839506172839,0,0,0.06172839506172839,29.50617283950617,0)" xlink:href="#aT"/><use transform="matrix(0.06172839506172839,0,0,0.06172839506172839,43.02469135802469,0)" xlink:href="#aU"/><use transform="matrix(0.06172839506172839,0,0,0.06172839506172839,56.54320987654321,0)" xlink:href="#au"/><use transform="matrix(0.06172839506172839,0,0,0.06172839506172839,63.888888888888886,0)" xlink:href="#aD"/><use transform="matrix(0.06172839506172839,0,0,0.06172839506172839,76.23456790123457,0)" xlink:href="#aV"/><use transform="matrix(0.06172839506172839,0,0,0.06172839506172839,83.64197530864197,0)" xlink:href="#bq"/><use transform="matrix(0.06172839506172839,0,0,0.06172839506172839,89.81481481481481,0)" xlink:href="#bi"/><use transform="matrix(0.06172839506172839,0,0,0.06172839506172839,101.66666666666666,0)" xlink:href="#aC"/><use transform="matrix(0.06172839506172839,0,0,0.06172839506172839,114.01234567901234,0)" xlink:href="#aw"/><use transform="matrix(0.06172839506172839,0,0,0.06172839506172839,127.53086419753086,0)" xlink:href="#aD"/></g><path fill="#333" d="M24-248c120-7 223 5 221 122C244-46 201 0 124 0H24v-248zM76-40c74 7 117-18 117-86 0-67-45-88-117-82v168" id="bX"/><g id="ab"><use transform="matrix(0.05,0,0,0.05,0,0)" xlink:href="#bo"/><use transform="matrix(0.05,0,0,0.05,10.950000000000001,0)" xlink:href="#aD"/><use transform="matrix(0.05,0,0,0.05,20.950000000000003,0)" xlink:href="#au"/><use transform="matrix(0.05,0,0,0.05,26.900000000000002,0)" xlink:href="#bX"/><use transform="matrix(0.05,0,0,0.05,39.85,0)" xlink:href="#ay"/><use transform="matrix(0.05,0,0,0.05,49.85,0)" xlink:href="#au"/><use transform="matrix(0.05,0,0,0.05,55.800000000000004,0)" xlink:href="#ay"/><use transform="matrix(0.05,0,0,0.05,65.80000000000001,0)" xlink:href="#bc"/><use transform="matrix(0.05,0,0,0.05,71.75000000000001,0)" xlink:href="#bd"/></g><path fill="#666" d="M177-190C167-65 218 103 67 71c-23-6-38-20-44-43l32-5c15 47 100 32 89-28v-30C133-14 115 1 83 1 29 1 15-40 15-95c0-56 16-97 71-98 29-1 48 16 59 35 1-10 0-23 2-32h30zM94-22c36 0 50-32 50-73 0-42-14-75-50-75-39 0-46 34-46 75s6 73 46 73" id="bY"/><g id="ac"><use transform="matrix(0.05,0,0,0.05,0,0)" xlink:href="#br"/><use transform="matrix(0.05,0,0,0.05,3.95,0)" xlink:href="#aH"/><use transform="matrix(0.05,0,0,0.05,13.949999999999998,0)" xlink:href="#aJ"/><use transform="matrix(0.05,0,0,0.05,23.95,0)" xlink:href="#bY"/></g><g id="ad"><use transform="matrix(0.05,0,0,0.05,0,0)" xlink:href="#bx"/><use transform="matrix(0.05,0,0,0.05,14.950000000000001,0)" xlink:href="#by"/><use transform="matrix(0.05,0,0,0.05,24.950000000000003,0)" xlink:href="#bB"/><use transform="matrix(0.05,0,0,0.05,29.950000000000003,0)" xlink:href="#by"/><use transform="matrix(0.05,0,0,0.05,39.95,0)" xlink:href="#bz"/><use transform="matrix(0.05,0,0,0.05,43.900000000000006,0)" xlink:href="#bA"/><use transform="matrix(0.05,0,0,0.05,53.900000000000006,0)" xlink:href="#bC"/></g><path fill="#333" d="M100-194c62-1 85 37 85 99 1 63-27 99-86 99S16-35 15-95c0-66 28-99 85-99zM99-20c44 1 53-31 53-75 0-43-8-75-51-75s-53 32-53 75 10 74 51 75" id="bZ"/><g id="ae"><use transform="matrix(0.05,0,0,0.05,0,0)" xlink:href="#bP"/><use transform="matrix(0.05,0,0,0.05,9,0)" xlink:href="#bZ"/><use transform="matrix(0.05,0,0,0.05,19,0)" xlink:href="#bA"/><use transform="matrix(0.05,0,0,0.05,29,0)" xlink:href="#bB"/><use transform="matrix(0.05,0,0,0.05,34,0)" xlink:href="#by"/><use transform="matrix(0.05,0,0,0.05,44,0)" xlink:href="#bz"/><use transform="matrix(0.05,0,0,0.05,47.95,0)" xlink:href="#bA"/><use transform="matrix(0.05,0,0,0.05,57.95,0)" xlink:href="#bC"/></g><g id="af"><use transform="matrix(0.05,0,0,0.05,0,0)" xlink:href="#bZ"/><use transform="matrix(0.05,0,0,0.05,10,0)" xlink:href="#bA"/><use transform="matrix(0.05,0,0,0.05,20,0)" xlink:href="#bS"/></g><g id="ag"><use transform="matrix(0.05,0,0,0.05,0,0)" xlink:href="#bZ"/><use transform="matrix(0.05,0,0,0.05,10,0)" xlink:href="#bO"/></g><g id="ah"><use transform="matrix(0.05,0,0,0.05,0,0)" xlink:href="#bx"/><use transform="matrix(0.05,0,0,0.05,14.950000000000001,0)" xlink:href="#bZ"/><use transform="matrix(0.05,0,0,0.05,24.950000000000003,0)" xlink:href="#bO"/><use transform="matrix(0.05,0,0,0.05,30.900000000000002,0)" xlink:href="#bS"/></g><linearGradient gradientUnits="userSpaceOnUse" id="ai" x1="-3432.88" y1="360.59" x2="-3432.88" y2="389.5"><stop offset="0%"/><stop offset="100%" stop-color="#333"/></linearGradient><g id="aj"><use transform="matrix(0.04320987654320988,0,0,0.04320987654320988,0,0)" xlink:href="#bD"/><use transform="matrix(0.04320987654320988,0,0,0.04320987654320988,12.919753086419755,0)" xlink:href="#av"/><use transform="matrix(0.04320987654320988,0,0,0.04320987654320988,22.38271604938272,0)" xlink:href="#aU"/><use transform="matrix(0.04320987654320988,0,0,0.04320987654320988,31.845679012345684,0)" xlink:href="#bs"/><use transform="matrix(0.04320987654320988,0,0,0.04320987654320988,36.16666666666667,0)" xlink:href="#au"/><use transform="matrix(0.04320987654320988,0,0,0.04320987654320988,41.308641975308646,0)" xlink:href="#av"/><use transform="matrix(0.04320987654320988,0,0,0.04320987654320988,50.77160493827161,0)" xlink:href="#aV"/><use transform="matrix(0.04320987654320988,0,0,0.04320987654320988,56.82098765432099,0)" xlink:href="#aD"/><use transform="matrix(0.04320987654320988,0,0,0.04320987654320988,65.46296296296296,0)" xlink:href="#bE"/></g><g id="ak"><use transform="matrix(0.04320987654320988,0,0,0.04320987654320988,0,0)" xlink:href="#av"/><use transform="matrix(0.04320987654320988,0,0,0.04320987654320988,9.462962962962964,0)" xlink:href="#aw"/><use transform="matrix(0.04320987654320988,0,0,0.04320987654320988,18.925925925925927,0)" xlink:href="#aD"/><use transform="matrix(0.04320987654320988,0,0,0.04320987654320988,27.567901234567906,0)" xlink:href="#aV"/><use transform="matrix(0.04320987654320988,0,0,0.04320987654320988,33.61728395061729,0)" xlink:href="#ay"/><use transform="matrix(0.04320987654320988,0,0,0.04320987654320988,42.25925925925927,0)" xlink:href="#au"/><use transform="matrix(0.04320987654320988,0,0,0.04320987654320988,47.40123456790124,0)" xlink:href="#bs"/><use transform="matrix(0.04320987654320988,0,0,0.04320987654320988,51.72222222222223,0)" xlink:href="#av"/><use transform="matrix(0.04320987654320988,0,0,0.04320987654320988,61.18518518518519,0)" xlink:href="#aU"/></g><g id="al"><use transform="matrix(0.04320987654320988,0,0,0.04320987654320988,0,0)" xlink:href="#az"/><use transform="matrix(0.04320987654320988,0,0,0.04320987654320988,8.641975308641976,0)" xlink:href="#bH"/><use transform="matrix(0.04320987654320988,0,0,0.04320987654320988,12.962962962962964,0)" xlink:href="#ay"/><use transform="matrix(0.04320987654320988,0,0,0.04320987654320988,21.604938271604944,0)" xlink:href="#aE"/><use transform="matrix(0.04320987654320988,0,0,0.04320987654320988,30.24691358024692,0)" xlink:href="#aE"/><use transform="matrix(0.04320987654320988,0,0,0.04320987654320988,38.88888888888889,0)" xlink:href="#aD"/><use transform="matrix(0.04320987654320988,0,0,0.04320987654320988,47.53086419753087,0)" xlink:href="#aE"/></g><path fill="#333" d="M30-248c118-7 216 8 213 122C240-48 200 0 122 0H30v-248zM63-27c89 8 146-16 146-99s-60-101-146-95v194" id="ca"/><path fill="#333" d="M177-190C167-65 218 103 67 71c-23-6-38-20-44-43l32-5c15 47 100 32 89-28v-30C133-14 115 1 83 1 29 1 15-40 15-95c0-56 16-97 71-98 29-1 48 16 59 35 1-10 0-23 2-32h30zM94-22c36 0 50-32 50-73 0-42-14-75-50-75-39 0-46 34-46 75s6 73 46 73" id="cb"/><path fill="#333" d="M85-194c31 0 48 13 60 33l-1-100h32l1 261h-30c-2-10 0-23-3-31C134-8 116 4 85 4 32 4 16-35 15-94c0-66 23-100 70-100zm9 24c-40 0-46 34-46 75 0 40 6 74 45 74 42 0 51-32 51-76 0-42-9-74-50-73" id="cc"/><g id="am"><use transform="matrix(0.03703703703703704,0,0,0.03703703703703704,0,0)" xlink:href="#ca"/><use transform="matrix(0.03703703703703704,0,0,0.03703703703703704,9.592592592592593,0)" xlink:href="#bS"/><use transform="matrix(0.03703703703703704,0,0,0.03703703703703704,17,0)" xlink:href="#bC"/><use transform="matrix(0.03703703703703704,0,0,0.03703703703703704,23.66666666666667,0)" xlink:href="#bz"/><use transform="matrix(0.03703703703703704,0,0,0.03703703703703704,26.592592592592595,0)" xlink:href="#cb"/><use transform="matrix(0.03703703703703704,0,0,0.03703703703703704,34,0)" xlink:href="#bA"/><use transform="matrix(0.03703703703703704,0,0,0.03703703703703704,41.407407407407405,0)" xlink:href="#bS"/><use transform="matrix(0.03703703703703704,0,0,0.03703703703703704,48.81481481481481,0)" xlink:href="#cc"/></g><path fill="#333" d="M179-190L93 31C79 59 56 82 12 73V49c39 6 53-20 64-50L1-190h34L92-34l54-156h33" id="cd"/><g id="an"><use transform="matrix(0.03703703703703704,0,0,0.03703703703703704,0,0)" xlink:href="#bN"/><use transform="matrix(0.03703703703703704,0,0,0.03703703703703704,7.407407407407408,0)" xlink:href="#cd"/></g><path fill="#333" d="M206 0h-36l-40-164L89 0H53L-1-190h32L70-26l43-164h34l41 164 42-164h31" id="ce"/><path fill="#333" d="M24 0v-261h32V0H24" id="cf"/><path fill="#333" d="M33 0v-38h34V0H33" id="cg"/><path fill="#333" d="M115-194c55 1 70 41 70 98S169 2 115 4C84 4 66-9 55-30l1 105H24l-1-265h31l2 30c10-21 28-34 59-34zm-8 174c40 0 45-34 45-75s-6-73-45-74c-42 0-51 32-51 76 0 43 10 73 51 73" id="ch"/><path fill="#333" d="M108 0H70L1-190h34L89-25l56-165h34" id="ci"/><path fill="#333" d="M24-231v-30h32v30H24zM-9 49c24 4 33-6 33-30v-209h32V24c2 40-23 58-65 49V49" id="cj"/><g id="ao"><use transform="matrix(0.03703703703703704,0,0,0.03703703703703704,0,0)" xlink:href="#bZ"/><use transform="matrix(0.03703703703703704,0,0,0.03703703703703704,7.407407407407408,0)" xlink:href="#bC"/><use transform="matrix(0.03703703703703704,0,0,0.03703703703703704,14.074074074074076,0)" xlink:href="#ce"/><use transform="matrix(0.03703703703703704,0,0,0.03703703703703704,23.66666666666667,0)" xlink:href="#by"/><use transform="matrix(0.03703703703703704,0,0,0.03703703703703704,31.07407407407408,0)" xlink:href="#cf"/><use transform="matrix(0.03703703703703704,0,0,0.03703703703703704,34.00000000000001,0)" xlink:href="#cc"/><use transform="matrix(0.03703703703703704,0,0,0.03703703703703704,41.40740740740742,0)" xlink:href="#bZ"/><use transform="matrix(0.03703703703703704,0,0,0.03703703703703704,48.814814814814824,0)" xlink:href="#cg"/><use transform="matrix(0.03703703703703704,0,0,0.03703703703703704,52.518518518518526,0)" xlink:href="#bN"/><use transform="matrix(0.03703703703703704,0,0,0.03703703703703704,59.92592592592593,0)" xlink:href="#by"/><use transform="matrix(0.03703703703703704,0,0,0.03703703703703704,67.33333333333334,0)" xlink:href="#ch"/><use transform="matrix(0.03703703703703704,0,0,0.03703703703703704,74.74074074074075,0)" xlink:href="#ci"/><use transform="matrix(0.03703703703703704,0,0,0.03703703703703704,81.40740740740742,0)" xlink:href="#bz"/><use transform="matrix(0.03703703703703704,0,0,0.03703703703703704,84.33333333333334,0)" xlink:href="#bP"/><use transform="matrix(0.03703703703703704,0,0,0.03703703703703704,91.00000000000001,0)" xlink:href="#cg"/><use transform="matrix(0.03703703703703704,0,0,0.03703703703703704,94.70370370370371,0)" xlink:href="#cj"/><use transform="matrix(0.03703703703703704,0,0,0.03703703703703704,97.62962962962965,0)" xlink:href="#bO"/></g><use transform="matrix(0.03703703703703704,0,0,0.03703703703703704,0,0)" xlink:href="#aB" id="ap"/><g id="aq"><use transform="matrix(0.03703703703703704,0,0,0.03703703703703704,0,0)" xlink:href="#ci"/><use transform="matrix(0.03703703703703704,0,0,0.03703703703703704,6.666666666666668,0)" xlink:href="#bS"/><use transform="matrix(0.03703703703703704,0,0,0.03703703703703704,14.074074074074076,0)" xlink:href="#bO"/><use transform="matrix(0.03703703703703704,0,0,0.03703703703703704,18.481481481481485,0)" xlink:href="#bC"/><use transform="matrix(0.03703703703703704,0,0,0.03703703703703704,25.148148148148152,0)" xlink:href="#bz"/><use transform="matrix(0.03703703703703704,0,0,0.03703703703703704,28.074074074074076,0)" xlink:href="#bZ"/><use transform="matrix(0.03703703703703704,0,0,0.03703703703703704,35.48148148148149,0)" xlink:href="#bA"/></g><path fill="#333" d="M101-251c82-7 93 87 43 132L82-64C71-53 59-42 53-27h129V0H18c2-99 128-94 128-182 0-28-16-43-45-43s-46 15-49 41l-32-3c6-41 34-60 81-64" id="ck"/><path fill="#333" d="M101-251c68 0 85 55 85 127S166 4 100 4C33 4 14-52 14-124c0-73 17-127 87-127zm-1 229c47 0 54-49 54-102s-4-102-53-102c-51 0-55 48-55 102 0 53 5 102 54 102" id="cl"/><path fill="#333" d="M205 0l-28-72H64L36 0H1l101-248h38L239 0h-34zm-38-99l-47-123c-12 45-31 82-46 123h93" id="cm"/><g id="ar"><use transform="matrix(0.03703703703703704,0,0,0.03703703703703704,0,0)" xlink:href="#ck"/><use transform="matrix(0.03703703703703704,0,0,0.03703703703703704,7.407407407407408,0)" xlink:href="#cg"/><use transform="matrix(0.03703703703703704,0,0,0.03703703703703704,11.111111111111112,0)" xlink:href="#cl"/><use transform="matrix(0.03703703703703704,0,0,0.03703703703703704,18.51851851851852,0)" xlink:href="#aB"/><use transform="matrix(0.03703703703703704,0,0,0.03703703703703704,22.925925925925927,0)" xlink:href="#cm"/></g></defs></g></svg>