<?xml version="1.0" encoding="UTF-8" standalone="no"?>
<svg
   xmlns:dc="http://purl.org/dc/elements/1.1/"
   xmlns:cc="http://creativecommons.org/ns#"
   xmlns:rdf="http://www.w3.org/1999/02/22-rdf-syntax-ns#"
   xmlns:svg="http://www.w3.org/2000/svg"
   xmlns="http://www.w3.org/2000/svg"
   xmlns:xlink="http://www.w3.org/1999/xlink"
   xmlns:sodipodi="http://sodipodi.sourceforge.net/DTD/sodipodi-0.dtd"
   xmlns:inkscape="http://www.inkscape.org/namespaces/inkscape"
   width="1084.74"
   height="400"
   version="1.1"
   id="svg598"
   sodipodi:docname="High-level overview - v2.0-A.svg"
   inkscape:version="0.92.4 (5da689c313, 2019-01-14)"
   inkscape:export-filename="C:\Users\oswal\GitHub\performetrics\resources\High-level overview - v2.0-A.png"
   inkscape:export-xdpi="70.800003"
   inkscape:export-ydpi="70.800003">
  <metadata
     id="metadata604">
    <rdf:RDF>
      <cc:Work
         rdf:about="">
        <dc:format>image/svg+xml</dc:format>
        <dc:type
           rdf:resource="http://purl.org/dc/dcmitype/StillImage" />
        <dc:title></dc:title>
      </cc:Work>
    </rdf:RDF>
  </metadata>
  <defs
     id="defs602">
    <linearGradient
       inkscape:collect="always"
       id="linearGradient1848">
      <stop
         style="stop-color:#fee4e1;stop-opacity:1"
         offset="0"
         id="stop1844" />
      <stop
         style="stop-color:#feb6ae;stop-opacity:1"
         offset="1"
         id="stop1846" />
    </linearGradient>
    <linearGradient
       inkscape:collect="always"
       id="linearGradient1840">
      <stop
         style="stop-color:#e4f3f0;stop-opacity:1"
         offset="0"
         id="stop1836" />
      <stop
         style="stop-color:#b1ded5;stop-opacity:1"
         offset="1"
         id="stop1838" />
    </linearGradient>
    <linearGradient
       inkscape:collect="always"
       id="linearGradient1770">
      <stop
         style="stop-color:#fff0e5;stop-opacity:1;"
         offset="0"
         id="stop1766" />
      <stop
         style="stop-color:#ffc9a5;stop-opacity:1"
         offset="1"
         id="stop1768" />
    </linearGradient>
    <linearGradient
       id="linearGradient1764"
       inkscape:collect="always">
      <stop
         id="stop1760"
         offset="0"
         style="stop-color:#f5f5f5;stop-opacity:1" />
      <stop
         id="stop1762"
         offset="1"
         style="stop-color:#d6d6d6;stop-opacity:1" />
    </linearGradient>
    <defs
       id="defs594">
      <linearGradient
         y2="54.95"
         x2="61.99"
         y1="40.3"
         x1="61.99"
         id="a"
         gradientUnits="userSpaceOnUse"
         gradientTransform="translate(-14.393885,-20)">
        <stop
           id="stop178"
           offset="0%" />
        <stop
           id="stop180"
           stop-color="#333"
           offset="100%" />
      </linearGradient>
      <path
         id="D"
         d="M169-182c-1-43-94-46-97-3 18 66 151 10 154 114 3 95-165 93-204 36-6-8-10-19-12-30l50-8c3 46 112 56 116 5-17-69-150-10-154-114-4-87 153-88 188-35 5 8 8 18 10 28"
         fill="#333" />
      <path
         id="E"
         d="M115-3C79 11 28 4 28-45v-112H4v-33h27l15-45h31v45h36v33H77v99c-1 23 16 31 38 25v30"
         fill="#333" />
      <path
         id="F"
         d="M110-194c64 0 96 36 96 99 0 64-35 99-97 99-61 0-95-36-95-99 0-62 34-99 96-99zm-1 164c35 0 45-28 45-65 0-40-10-65-43-65-34 0-45 26-45 65 0 36 10 65 43 65"
         fill="#333" />
      <path
         id="G"
         d="M135-194c53 0 70 44 70 98 0 56-19 98-73 100-31 1-45-17-59-34 3 33 2 69 2 105H25l-1-265h48c2 10 0 23 3 31 11-24 29-35 60-35zM114-30c33 0 39-31 40-66 0-38-9-64-40-64-56 0-55 130 0 130"
         fill="#333" />
      <path
         id="H"
         d="M231 0h-52l-39-155L100 0H48L-1-190h46L77-45c9-52 24-97 36-145h53l37 145 32-145h46"
         fill="#333" />
      <path
         id="I"
         d="M133-34C117-15 103 5 69 4 32 3 11-16 11-54c-1-60 55-63 116-61 1-26-3-47-28-47-18 1-26 9-28 27l-52-2c7-38 36-58 82-57s74 22 75 68l1 82c-1 14 12 18 25 15v27c-30 8-71 5-69-32zm-48 3c29 0 43-24 42-57-32 0-66-3-65 30 0 17 8 27 23 27"
         fill="#333" />
      <path
         id="J"
         d="M190-63c-7 42-38 67-86 67-59 0-84-38-90-98-12-110 154-137 174-36l-49 2c-2-19-15-32-35-32-30 0-35 28-38 64-6 74 65 87 74 30"
         fill="#333" />
      <path
         id="K"
         d="M114-157C55-157 80-60 75 0H25v-261h50l-1 109c12-26 28-41 61-42 86-1 58 113 63 194h-50c-7-57 23-157-34-157"
         fill="#333" />
      <g
         id="b">
        <use
           id="use191"
           xlink:href="#D"
           transform="matrix(0.06172839506172839,0,0,0.06172839506172839,0,0)" />
        <use
           id="use193"
           xlink:href="#E"
           transform="matrix(0.06172839506172839,0,0,0.06172839506172839,14.814814814814813,0)" />
        <use
           id="use195"
           xlink:href="#F"
           transform="matrix(0.06172839506172839,0,0,0.06172839506172839,22.160493827160494,0)" />
        <use
           id="use197"
           xlink:href="#G"
           transform="matrix(0.06172839506172839,0,0,0.06172839506172839,35.67901234567901,0)" />
        <use
           id="use199"
           xlink:href="#H"
           transform="matrix(0.06172839506172839,0,0,0.06172839506172839,49.19753086419753,0)" />
        <use
           id="use201"
           xlink:href="#I"
           transform="matrix(0.06172839506172839,0,0,0.06172839506172839,66.48148148148148,0)" />
        <use
           id="use203"
           xlink:href="#E"
           transform="matrix(0.06172839506172839,0,0,0.06172839506172839,78.82716049382717,0)" />
        <use
           id="use205"
           xlink:href="#J"
           transform="matrix(0.06172839506172839,0,0,0.06172839506172839,86.17283950617285,0)" />
        <use
           id="use207"
           xlink:href="#K"
           transform="matrix(0.06172839506172839,0,0,0.06172839506172839,98.51851851851853,0)" />
      </g>
      <path
         id="L"
         d="M67-125c0 53 21 87 73 88 37 1 54-22 65-47l45 17C233-25 199 4 140 4 58 4 20-42 15-125 8-235 124-281 211-232c18 10 29 29 36 50l-46 12c-8-25-30-41-62-41-52 0-71 34-72 86"
         fill="#333" />
      <path
         id="M"
         d="M85 4C-2 5 27-109 22-190h50c7 57-23 150 33 157 60-5 35-97 40-157h50l1 190h-47c-2-12 1-28-3-38-12 25-28 42-61 42"
         fill="#333" />
      <path
         id="N"
         d="M135-194c87-1 58 113 63 194h-50c-7-57 23-157-34-157-59 0-34 97-39 157H25l-1-190h47c2 12-1 28 3 38 12-26 28-41 61-42"
         fill="#333" />
      <path
         id="O"
         d="M185-48c-13 30-37 53-82 52C43 2 14-33 14-96s30-98 90-98c62 0 83 45 84 108H66c0 31 8 55 39 56 18 0 30-7 34-22zm-45-69c5-46-57-63-70-21-2 6-4 13-4 21h74"
         fill="#333" />
      <path
         id="P"
         d="M135-150c-39-12-60 13-60 57V0H25l-1-190h47c2 13-1 29 3 40 6-28 27-53 61-41v41"
         fill="#333" />
      <g
         id="c">
        <use
           id="use215"
           xlink:href="#L"
           transform="matrix(0.06172839506172839,0,0,0.06172839506172839,0,0)" />
        <use
           id="use217"
           xlink:href="#F"
           transform="matrix(0.06172839506172839,0,0,0.06172839506172839,15.987654320987653,0)" />
        <use
           id="use219"
           xlink:href="#M"
           transform="matrix(0.06172839506172839,0,0,0.06172839506172839,29.50617283950617,0)" />
        <use
           id="use221"
           xlink:href="#N"
           transform="matrix(0.06172839506172839,0,0,0.06172839506172839,43.02469135802469,0)" />
        <use
           id="use223"
           xlink:href="#E"
           transform="matrix(0.06172839506172839,0,0,0.06172839506172839,56.54320987654321,0)" />
        <use
           id="use225"
           xlink:href="#O"
           transform="matrix(0.06172839506172839,0,0,0.06172839506172839,63.888888888888886,0)" />
        <use
           id="use227"
           xlink:href="#P"
           transform="matrix(0.06172839506172839,0,0,0.06172839506172839,76.23456790123457,0)" />
      </g>
      <g
         id="d">
        <use
           id="use230"
           xlink:href="#L"
           transform="matrix(0.06172839506172839,0,0,0.06172839506172839,0,0)" />
        <use
           id="use232"
           xlink:href="#F"
           transform="matrix(0.06172839506172839,0,0,0.06172839506172839,15.987654320987653,0)" />
        <use
           id="use234"
           xlink:href="#M"
           transform="matrix(0.06172839506172839,0,0,0.06172839506172839,29.50617283950617,0)" />
        <use
           id="use236"
           xlink:href="#N"
           transform="matrix(0.06172839506172839,0,0,0.06172839506172839,43.02469135802469,0)" />
        <use
           id="use238"
           xlink:href="#E"
           transform="matrix(0.06172839506172839,0,0,0.06172839506172839,56.54320987654321,0)" />
        <use
           id="use240"
           xlink:href="#O"
           transform="matrix(0.06172839506172839,0,0,0.06172839506172839,63.888888888888886,0)" />
        <use
           id="use242"
           xlink:href="#P"
           transform="matrix(0.06172839506172839,0,0,0.06172839506172839,76.23456790123457,0)" />
      </g>
      <path
         id="Q"
         d="M136-208V0H84v-208H4v-40h212v40h-80"
         fill="#333" />
      <path
         id="R"
         d="M123 10C108 53 80 86 19 72V37c35 8 53-11 59-39L3-190h52l48 148c12-52 28-100 44-148h51"
         fill="#333" />
      <g
         id="e">
        <use
           id="use247"
           xlink:href="#Q"
           transform="matrix(0.06172839506172839,0,0,0.06172839506172839,0,0)" />
        <use
           id="use249"
           xlink:href="#R"
           transform="matrix(0.06172839506172839,0,0,0.06172839506172839,11.851851851851851,0)" />
        <use
           id="use251"
           xlink:href="#G"
           transform="matrix(0.06172839506172839,0,0,0.06172839506172839,24.19753086419753,0)" />
        <use
           id="use253"
           xlink:href="#O"
           transform="matrix(0.06172839506172839,0,0,0.06172839506172839,37.71604938271605,0)" />
      </g>
      <path
         id="S"
         d="M275 0h-61l-44-196L126 0H64L0-248h53L97-49l45-199h58l43 199 44-199h52"
         fill="#333" />
      <path
         id="T"
         d="M25 0v-261h50V0H25"
         fill="#333" />
      <g
         id="f">
        <use
           id="use258"
           xlink:href="#S"
           transform="matrix(0.04938271604938272,0,0,0.04938271604938272,0,0)" />
        <use
           id="use260"
           xlink:href="#I"
           transform="matrix(0.04938271604938272,0,0,0.04938271604938272,16.098765432098766,0)" />
        <use
           id="use262"
           xlink:href="#T"
           transform="matrix(0.04938271604938272,0,0,0.04938271604938272,25.97530864197531,0)" />
        <use
           id="use264"
           xlink:href="#T"
           transform="matrix(0.04938271604938272,0,0,0.04938271604938272,30.913580246913583,0)" />
      </g>
      <path
         id="U"
         d="M147 0L96-86 75-71V0H25v-261h50v150l67-79h53l-66 74L201 0h-54"
         fill="#333" />
      <g
         id="g">
        <use
           id="use268"
           xlink:href="#J"
           transform="matrix(0.04938271604938272,0,0,0.04938271604938272,0,0)" />
        <use
           id="use270"
           xlink:href="#T"
           transform="matrix(0.04938271604938272,0,0,0.04938271604938272,9.876543209876544,0)" />
        <use
           id="use272"
           xlink:href="#F"
           transform="matrix(0.04938271604938272,0,0,0.04938271604938272,14.814814814814817,0)" />
        <use
           id="use274"
           xlink:href="#J"
           transform="matrix(0.04938271604938272,0,0,0.04938271604938272,25.629629629629633,0)" />
        <use
           id="use276"
           xlink:href="#U"
           transform="matrix(0.04938271604938272,0,0,0.04938271604938272,35.50617283950618,0)" />
      </g>
      <path
         id="V"
         d="M25-224v-37h50v37H25zM25 0v-190h50V0H25"
         fill="#333" />
      <path
         id="W"
         d="M220-157c-53 9-28 100-34 157h-49v-107c1-27-5-49-29-50C55-147 81-57 75 0H25l-1-190h47c2 12-1 28 3 38 10-53 101-56 108 0 13-22 24-43 59-42 82 1 51 116 57 194h-49v-107c-1-25-5-48-29-50"
         fill="#333" />
      <g
         id="h">
        <use
           id="use281"
           xlink:href="#E"
           transform="matrix(0.04938271604938272,0,0,0.04938271604938272,0,0)" />
        <use
           id="use283"
           xlink:href="#V"
           transform="matrix(0.04938271604938272,0,0,0.04938271604938272,5.8765432098765435,0)" />
        <use
           id="use285"
           xlink:href="#W"
           transform="matrix(0.04938271604938272,0,0,0.04938271604938272,10.814814814814817,0)" />
        <use
           id="use287"
           xlink:href="#O"
           transform="matrix(0.04938271604938272,0,0,0.04938271604938272,26.617283950617285,0)" />
      </g>
      <path
         id="X"
         d="M24-248c93 1 206-16 204 79-1 75-69 88-152 82V0H24v-248zm52 121c47 0 100 7 100-41 0-47-54-39-100-39v80"
         fill="#333" />
      <path
         id="Y"
         d="M238-95c0 69-44 99-111 99C63 4 22-25 22-93v-155h51v151c-1 38 19 59 55 60 90 1 49-130 58-211h52v153"
         fill="#333" />
      <g
         id="i">
        <use
           id="use292"
           xlink:href="#L"
           transform="matrix(0.04938271604938272,0,0,0.04938271604938272,0,0)" />
        <use
           id="use294"
           xlink:href="#X"
           transform="matrix(0.04938271604938272,0,0,0.04938271604938272,12.790123456790125,0)" />
        <use
           id="use296"
           xlink:href="#Y"
           transform="matrix(0.04938271604938272,0,0,0.04938271604938272,24.641975308641978,0)" />
      </g>
      <g
         id="j">
        <use
           id="use299"
           xlink:href="#E"
           transform="matrix(0.04938271604938272,0,0,0.04938271604938272,0,0)" />
        <use
           id="use301"
           xlink:href="#V"
           transform="matrix(0.04938271604938272,0,0,0.04938271604938272,5.8765432098765435,0)" />
        <use
           id="use303"
           xlink:href="#W"
           transform="matrix(0.04938271604938272,0,0,0.04938271604938272,10.814814814814817,0)" />
        <use
           id="use305"
           xlink:href="#O"
           transform="matrix(0.04938271604938272,0,0,0.04938271604938272,26.617283950617285,0)" />
      </g>
      <path
         id="Z"
         d="M137-138c1-29-70-34-71-4 15 46 118 7 119 86 1 83-164 76-172 9l43-7c4 19 20 25 44 25 33 8 57-30 24-41C81-84 22-81 20-136c-2-80 154-74 161-7"
         fill="#333" />
      <g
         id="k">
        <use
           id="use309"
           xlink:href="#Y"
           transform="matrix(0.04938271604938272,0,0,0.04938271604938272,0,0)" />
        <use
           id="use311"
           xlink:href="#Z"
           transform="matrix(0.04938271604938272,0,0,0.04938271604938272,12.790123456790125,0)" />
        <use
           id="use313"
           xlink:href="#O"
           transform="matrix(0.04938271604938272,0,0,0.04938271604938272,22.66666666666667,0)" />
        <use
           id="use315"
           xlink:href="#P"
           transform="matrix(0.04938271604938272,0,0,0.04938271604938272,32.543209876543216,0)" />
      </g>
      <g
         id="l">
        <use
           id="use318"
           xlink:href="#D"
           transform="matrix(0.04938271604938272,0,0,0.04938271604938272,0,0)" />
        <use
           id="use320"
           xlink:href="#R"
           transform="matrix(0.04938271604938272,0,0,0.04938271604938272,11.851851851851853,0)" />
        <use
           id="use322"
           xlink:href="#Z"
           transform="matrix(0.04938271604938272,0,0,0.04938271604938272,21.7283950617284,0)" />
        <use
           id="use324"
           xlink:href="#E"
           transform="matrix(0.04938271604938272,0,0,0.04938271604938272,31.60493827160494,0)" />
        <use
           id="use326"
           xlink:href="#O"
           transform="matrix(0.04938271604938272,0,0,0.04938271604938272,37.48148148148149,0)" />
        <use
           id="use328"
           xlink:href="#W"
           transform="matrix(0.04938271604938272,0,0,0.04938271604938272,47.35802469135803,0)" />
      </g>
      <g
         id="m">
        <use
           id="use331"
           xlink:href="#D"
           transform="matrix(0.06172839506172839,0,0,0.06172839506172839,0,0)" />
        <use
           id="use333"
           xlink:href="#R"
           transform="matrix(0.06172839506172839,0,0,0.06172839506172839,14.814814814814813,0)" />
        <use
           id="use335"
           xlink:href="#Z"
           transform="matrix(0.06172839506172839,0,0,0.06172839506172839,27.160493827160494,0)" />
        <use
           id="use337"
           xlink:href="#E"
           transform="matrix(0.06172839506172839,0,0,0.06172839506172839,39.50617283950617,0)" />
        <use
           id="use339"
           xlink:href="#O"
           transform="matrix(0.06172839506172839,0,0,0.06172839506172839,46.85185185185185,0)" />
        <use
           id="use341"
           xlink:href="#W"
           transform="matrix(0.06172839506172839,0,0,0.06172839506172839,59.197530864197525,0)" />
        <use
           id="use343"
           xlink:href="#Y"
           transform="matrix(0.06172839506172839,0,0,0.06172839506172839,78.9506172839506,0)" />
        <use
           id="use345"
           xlink:href="#E"
           transform="matrix(0.06172839506172839,0,0,0.06172839506172839,94.93827160493827,0)" />
        <use
           id="use347"
           xlink:href="#V"
           transform="matrix(0.06172839506172839,0,0,0.06172839506172839,102.28395061728395,0)" />
        <use
           id="use349"
           xlink:href="#T"
           transform="matrix(0.06172839506172839,0,0,0.06172839506172839,108.45679012345678,0)" />
        <use
           id="use351"
           xlink:href="#Z"
           transform="matrix(0.06172839506172839,0,0,0.06172839506172839,114.62962962962962,0)" />
      </g>
      <path
         id="aa"
         d="M128 0H69L1-190h53L99-40l48-150h52"
         fill="#333" />
      <g
         id="n">
        <use
           id="use355"
           xlink:href="#L"
           transform="matrix(0.06172839506172839,0,0,0.06172839506172839,0,0)" />
        <use
           id="use357"
           xlink:href="#F"
           transform="matrix(0.06172839506172839,0,0,0.06172839506172839,15.987654320987653,0)" />
        <use
           id="use359"
           xlink:href="#N"
           transform="matrix(0.06172839506172839,0,0,0.06172839506172839,29.50617283950617,0)" />
        <use
           id="use361"
           xlink:href="#aa"
           transform="matrix(0.06172839506172839,0,0,0.06172839506172839,43.02469135802469,0)" />
        <use
           id="use363"
           xlink:href="#O"
           transform="matrix(0.06172839506172839,0,0,0.06172839506172839,55.37037037037037,0)" />
        <use
           id="use365"
           xlink:href="#P"
           transform="matrix(0.06172839506172839,0,0,0.06172839506172839,67.71604938271605,0)" />
        <use
           id="use367"
           xlink:href="#Z"
           transform="matrix(0.06172839506172839,0,0,0.06172839506172839,76.35802469135803,0)" />
        <use
           id="use369"
           xlink:href="#V"
           transform="matrix(0.06172839506172839,0,0,0.06172839506172839,88.70370370370371,0)" />
        <use
           id="use371"
           xlink:href="#F"
           transform="matrix(0.06172839506172839,0,0,0.06172839506172839,94.87654320987654,0)" />
        <use
           id="use373"
           xlink:href="#N"
           transform="matrix(0.06172839506172839,0,0,0.06172839506172839,108.39506172839506,0)" />
      </g>
      <path
         id="ab"
         d="M230 0l2-204L168 0h-37L68-204 70 0H24v-248h70l56 185 57-185h69V0h-46"
         fill="#333" />
      <path
         id="ac"
         d="M88-194c31-1 46 15 58 34l-1-101h50l1 261h-48c-2-10 0-23-3-31C134-8 116 4 84 4 32 4 16-41 15-95c0-56 19-97 73-99zm17 164c33 0 40-30 41-66 1-37-9-64-41-64s-38 30-39 65c0 43 13 65 39 65"
         fill="#333" />
      <g
         id="o">
        <use
           id="use378"
           xlink:href="#ab"
           transform="matrix(0.06172839506172839,0,0,0.06172839506172839,0,0)" />
        <use
           id="use380"
           xlink:href="#F"
           transform="matrix(0.06172839506172839,0,0,0.06172839506172839,18.456790123456788,0)" />
        <use
           id="use382"
           xlink:href="#ac"
           transform="matrix(0.06172839506172839,0,0,0.06172839506172839,31.9753086419753,0)" />
        <use
           id="use384"
           xlink:href="#O"
           transform="matrix(0.06172839506172839,0,0,0.06172839506172839,45.49382716049382,0)" />
      </g>
      <path
         id="ad"
         d="M76-208v77h127v40H76V0H24v-248h183v40H76"
         fill="#333" />
      <g
         id="p">
        <use
           id="use388"
           xlink:href="#ad"
           transform="matrix(0.04938271604938272,0,0,0.04938271604938272,0,0)" />
        <use
           id="use390"
           xlink:href="#I"
           transform="matrix(0.04938271604938272,0,0,0.04938271604938272,10.814814814814815,0)" />
        <use
           id="use392"
           xlink:href="#Z"
           transform="matrix(0.04938271604938272,0,0,0.04938271604938272,20.69135802469136,0)" />
        <use
           id="use394"
           xlink:href="#E"
           transform="matrix(0.04938271604938272,0,0,0.04938271604938272,30.567901234567906,0)" />
      </g>
      <path
         id="ae"
         d="M24-248c120-7 223 5 221 122C244-46 201 0 124 0H24v-248zM76-40c74 7 117-18 117-86 0-67-45-88-117-82v168"
         fill="#333" />
      <path
         id="af"
         d="M135-194c52 0 70 43 70 98 0 56-19 99-73 100-30 1-46-15-58-35L72 0H24l1-261h50v104c11-23 29-37 60-37zM114-30c31 0 40-27 40-66 0-37-7-63-39-63s-41 28-41 65c0 36 8 64 40 64"
         fill="#333" />
      <g
         id="q">
        <use
           id="use399"
           xlink:href="#ae"
           transform="matrix(0.04938271604938272,0,0,0.04938271604938272,0,0)" />
        <use
           id="use401"
           xlink:href="#F"
           transform="matrix(0.04938271604938272,0,0,0.04938271604938272,12.790123456790125,0)" />
        <use
           id="use403"
           xlink:href="#M"
           transform="matrix(0.04938271604938272,0,0,0.04938271604938272,23.60493827160494,0)" />
        <use
           id="use405"
           xlink:href="#af"
           transform="matrix(0.04938271604938272,0,0,0.04938271604938272,34.41975308641975,0)" />
        <use
           id="use407"
           xlink:href="#T"
           transform="matrix(0.04938271604938272,0,0,0.04938271604938272,45.23456790123457,0)" />
        <use
           id="use409"
           xlink:href="#O"
           transform="matrix(0.04938271604938272,0,0,0.04938271604938272,50.17283950617284,0)" />
      </g>
      <g
         id="r">
        <use
           id="use412"
           xlink:href="#G"
           transform="matrix(0.04938271604938272,0,0,0.04938271604938272,0,0)" />
        <use
           id="use414"
           xlink:href="#P"
           transform="matrix(0.04938271604938272,0,0,0.04938271604938272,10.814814814814815,0)" />
        <use
           id="use416"
           xlink:href="#O"
           transform="matrix(0.04938271604938272,0,0,0.04938271604938272,17.728395061728396,0)" />
        <use
           id="use418"
           xlink:href="#J"
           transform="matrix(0.04938271604938272,0,0,0.04938271604938272,27.60493827160494,0)" />
        <use
           id="use420"
           xlink:href="#V"
           transform="matrix(0.04938271604938272,0,0,0.04938271604938272,37.48148148148148,0)" />
        <use
           id="use422"
           xlink:href="#Z"
           transform="matrix(0.04938271604938272,0,0,0.04938271604938272,42.41975308641975,0)" />
        <use
           id="use424"
           xlink:href="#V"
           transform="matrix(0.04938271604938272,0,0,0.04938271604938272,52.2962962962963,0)" />
        <use
           id="use426"
           xlink:href="#F"
           transform="matrix(0.04938271604938272,0,0,0.04938271604938272,57.23456790123457,0)" />
        <use
           id="use428"
           xlink:href="#N"
           transform="matrix(0.04938271604938272,0,0,0.04938271604938272,68.04938271604938,0)" />
      </g>
      <path
         id="ag"
         d="M186 0v-106H76V0H24v-248h52v99h110v-99h50V0h-50"
         fill="#333" />
      <path
         id="ah"
         d="M195-6C206 82 75 100 31 46c-4-6-6-13-8-21l49-6c3 16 16 24 34 25 40 0 42-37 40-79-11 22-30 35-61 35-53 0-70-43-70-97 0-56 18-96 73-97 30 0 46 14 59 34l2-30h47zm-90-29c32 0 41-27 41-63 0-35-9-62-40-62-32 0-39 29-40 63 0 36 9 62 39 62"
         fill="#333" />
      <path
         id="ai"
         d="M14-72v-43h91v43H14"
         fill="#333" />
      <g
         id="s">
        <use
           id="use434"
           xlink:href="#ag"
           transform="matrix(0.030864197530864196,0,0,0.030864197530864196,0,0)" />
        <use
           id="use436"
           xlink:href="#V"
           transform="matrix(0.030864197530864196,0,0,0.030864197530864196,7.993827160493827,0)" />
        <use
           id="use438"
           xlink:href="#ah"
           transform="matrix(0.030864197530864196,0,0,0.030864197530864196,11.080246913580247,0)" />
        <use
           id="use440"
           xlink:href="#K"
           transform="matrix(0.030864197530864196,0,0,0.030864197530864196,17.839506172839506,0)" />
        <use
           id="use442"
           xlink:href="#ai"
           transform="matrix(0.030864197530864196,0,0,0.030864197530864196,24.598765432098766,0)" />
        <use
           id="use444"
           xlink:href="#T"
           transform="matrix(0.030864197530864196,0,0,0.030864197530864196,28.271604938271604,0)" />
        <use
           id="use446"
           xlink:href="#O"
           transform="matrix(0.030864197530864196,0,0,0.030864197530864196,31.358024691358025,0)" />
        <use
           id="use448"
           xlink:href="#aa"
           transform="matrix(0.030864197530864196,0,0,0.030864197530864196,37.53086419753087,0)" />
        <use
           id="use450"
           xlink:href="#O"
           transform="matrix(0.030864197530864196,0,0,0.030864197530864196,43.70370370370371,0)" />
        <use
           id="use452"
           xlink:href="#T"
           transform="matrix(0.030864197530864196,0,0,0.030864197530864196,49.87654320987655,0)" />
      </g>
      <g
         id="t">
        <use
           id="use455"
           xlink:href="#F"
           transform="matrix(0.030864197530864196,0,0,0.030864197530864196,0,0)" />
        <use
           id="use457"
           xlink:href="#aa"
           transform="matrix(0.030864197530864196,0,0,0.030864197530864196,6.759259259259259,0)" />
        <use
           id="use459"
           xlink:href="#O"
           transform="matrix(0.030864197530864196,0,0,0.030864197530864196,12.932098765432098,0)" />
        <use
           id="use461"
           xlink:href="#P"
           transform="matrix(0.030864197530864196,0,0,0.030864197530864196,19.104938271604937,0)" />
        <use
           id="use463"
           xlink:href="#aa"
           transform="matrix(0.030864197530864196,0,0,0.030864197530864196,23.425925925925924,0)" />
        <use
           id="use465"
           xlink:href="#V"
           transform="matrix(0.030864197530864196,0,0,0.030864197530864196,29.598765432098762,0)" />
        <use
           id="use467"
           xlink:href="#O"
           transform="matrix(0.030864197530864196,0,0,0.030864197530864196,32.68518518518518,0)" />
        <use
           id="use469"
           xlink:href="#H"
           transform="matrix(0.030864197530864196,0,0,0.030864197530864196,38.858024691358025,0)" />
      </g>
      <use
         id="u"
         xlink:href="#ai"
         transform="matrix(0.030864197530864196,0,0,0.030864197530864196,0,0)" />
      <g
         id="v">
        <use
           id="use473"
           xlink:href="#W"
           transform="matrix(0.030864197530864196,0,0,0.030864197530864196,0,0)" />
        <use
           id="use475"
           xlink:href="#I"
           transform="matrix(0.030864197530864196,0,0,0.030864197530864196,9.876543209876543,0)" />
        <use
           id="use477"
           xlink:href="#V"
           transform="matrix(0.030864197530864196,0,0,0.030864197530864196,16.049382716049383,0)" />
        <use
           id="use479"
           xlink:href="#N"
           transform="matrix(0.030864197530864196,0,0,0.030864197530864196,19.135802469135804,0)" />
      </g>
      <g
         id="w">
        <use
           id="use482"
           xlink:href="#J"
           transform="matrix(0.030864197530864196,0,0,0.030864197530864196,0,0)" />
        <use
           id="use484"
           xlink:href="#T"
           transform="matrix(0.030864197530864196,0,0,0.030864197530864196,6.172839506172839,0)" />
        <use
           id="use486"
           xlink:href="#I"
           transform="matrix(0.030864197530864196,0,0,0.030864197530864196,9.25925925925926,0)" />
        <use
           id="use488"
           xlink:href="#Z"
           transform="matrix(0.030864197530864196,0,0,0.030864197530864196,15.432098765432098,0)" />
        <use
           id="use490"
           xlink:href="#Z"
           transform="matrix(0.030864197530864196,0,0,0.030864197530864196,21.604938271604937,0)" />
        <use
           id="use492"
           xlink:href="#O"
           transform="matrix(0.030864197530864196,0,0,0.030864197530864196,27.777777777777775,0)" />
        <use
           id="use494"
           xlink:href="#Z"
           transform="matrix(0.030864197530864196,0,0,0.030864197530864196,33.95061728395061,0)" />
      </g>
      <path
         id="aj"
         d="M30-248c118-7 216 8 213 122C240-48 200 0 122 0H30v-248zM63-27c89 8 146-16 146-99s-60-101-146-95v194"
         fill="#333" />
      <path
         id="ak"
         d="M100-194c63 0 86 42 84 106H49c0 40 14 67 53 68 26 1 43-12 49-29l28 8c-11 28-37 45-77 45C44 4 14-33 15-96c1-61 26-98 85-98zm52 81c6-60-76-77-97-28-3 7-6 17-6 28h103"
         fill="#333" />
      <path
         id="al"
         d="M135-143c-3-34-86-38-87 0 15 53 115 12 119 90S17 21 10-45l28-5c4 36 97 45 98 0-10-56-113-15-118-90-4-57 82-63 122-42 12 7 21 19 24 35"
         fill="#333" />
      <path
         id="am"
         d="M24-231v-30h32v30H24zM24 0v-190h32V0H24"
         fill="#333" />
      <path
         id="an"
         d="M177-190C167-65 218 103 67 71c-23-6-38-20-44-43l32-5c15 47 100 32 89-28v-30C133-14 115 1 83 1 29 1 15-40 15-95c0-56 16-97 71-98 29-1 48 16 59 35 1-10 0-23 2-32h30zM94-22c36 0 50-32 50-73 0-42-14-75-50-75-39 0-46 34-46 75s6 73 46 73"
         fill="#333" />
      <path
         id="ao"
         d="M117-194c89-4 53 116 60 194h-32v-121c0-31-8-49-39-48C34-167 62-67 57 0H25l-1-190h30c1 10-1 24 2 32 11-22 29-35 61-36"
         fill="#333" />
      <path
         id="ap"
         d="M85-194c31 0 48 13 60 33l-1-100h32l1 261h-30c-2-10 0-23-3-31C134-8 116 4 85 4 32 4 16-35 15-94c0-66 23-100 70-100zm9 24c-40 0-46 34-46 75 0 40 6 74 45 74 42 0 51-32 51-76 0-42-9-74-50-73"
         fill="#333" />
      <g
         id="x">
        <use
           id="use504"
           xlink:href="#aj"
           transform="matrix(0.02469135802469136,0,0,0.02469135802469136,0,0)" />
        <use
           id="use506"
           xlink:href="#ak"
           transform="matrix(0.02469135802469136,0,0,0.02469135802469136,6.395061728395063,0)" />
        <use
           id="use508"
           xlink:href="#al"
           transform="matrix(0.02469135802469136,0,0,0.02469135802469136,11.333333333333336,0)" />
        <use
           id="use510"
           xlink:href="#am"
           transform="matrix(0.02469135802469136,0,0,0.02469135802469136,15.777777777777779,0)" />
        <use
           id="use512"
           xlink:href="#an"
           transform="matrix(0.02469135802469136,0,0,0.02469135802469136,17.7283950617284,0)" />
        <use
           id="use514"
           xlink:href="#ao"
           transform="matrix(0.02469135802469136,0,0,0.02469135802469136,22.66666666666667,0)" />
        <use
           id="use516"
           xlink:href="#ak"
           transform="matrix(0.02469135802469136,0,0,0.02469135802469136,27.604938271604947,0)" />
        <use
           id="use518"
           xlink:href="#ap"
           transform="matrix(0.02469135802469136,0,0,0.02469135802469136,32.543209876543216,0)" />
      </g>
      <path
         id="aq"
         d="M115-194c53 0 69 39 70 98 0 66-23 100-70 100C84 3 66-7 56-30L54 0H23l1-261h32v101c10-23 28-34 59-34zm-8 174c40 0 45-34 45-75 0-40-5-75-45-74-42 0-51 32-51 76 0 43 10 73 51 73"
         fill="#333" />
      <path
         id="ar"
         d="M179-190L93 31C79 59 56 82 12 73V49c39 6 53-20 64-50L1-190h34L92-34l54-156h33"
         fill="#333" />
      <g
         id="y">
        <use
           id="use523"
           xlink:href="#aq"
           transform="matrix(0.02469135802469136,0,0,0.02469135802469136,0,0)" />
        <use
           id="use525"
           xlink:href="#ar"
           transform="matrix(0.02469135802469136,0,0,0.02469135802469136,4.938271604938272,0)" />
      </g>
      <path
         id="as"
         d="M100-194c62-1 85 37 85 99 1 63-27 99-86 99S16-35 15-95c0-66 28-99 85-99zM99-20c44 1 53-31 53-75 0-43-8-75-51-75s-53 32-53 75 10 74 51 75"
         fill="#333" />
      <path
         id="at"
         d="M206 0h-36l-40-164L89 0H53L-1-190h32L70-26l43-164h34l41 164 42-164h31"
         fill="#333" />
      <path
         id="au"
         d="M141-36C126-15 110 5 73 4 37 3 15-17 15-53c-1-64 63-63 125-63 3-35-9-54-41-54-24 1-41 7-42 31l-33-3c5-37 33-52 76-52 45 0 72 20 72 64v82c-1 20 7 32 28 27v20c-31 9-61-2-59-35zM48-53c0 20 12 33 32 33 41-3 63-29 60-74-43 2-92-5-92 41"
         fill="#333" />
      <path
         id="av"
         d="M24 0v-261h32V0H24"
         fill="#333" />
      <path
         id="aw"
         d="M33 0v-38h34V0H33"
         fill="#333" />
      <path
         id="ax"
         d="M115-194c55 1 70 41 70 98S169 2 115 4C84 4 66-9 55-30l1 105H24l-1-265h31l2 30c10-21 28-34 59-34zm-8 174c40 0 45-34 45-75s-6-73-45-74c-42 0-51 32-51 76 0 43 10 73 51 73"
         fill="#333" />
      <path
         id="ay"
         d="M108 0H70L1-190h34L89-25l56-165h34"
         fill="#333" />
      <path
         id="az"
         d="M96-169c-40 0-48 33-48 73s9 75 48 75c24 0 41-14 43-38l32 2c-6 37-31 61-74 61-59 0-76-41-82-99-10-93 101-131 147-64 4 7 5 14 7 22l-32 3c-4-21-16-35-41-35"
         fill="#333" />
      <path
         id="aA"
         d="M24-231v-30h32v30H24zM-9 49c24 4 33-6 33-30v-209h32V24c2 40-23 58-65 49V49"
         fill="#333" />
      <path
         id="aB"
         d="M114-163C36-179 61-72 57 0H25l-1-190h30c1 12-1 29 2 39 6-27 23-49 58-41v29"
         fill="#333" />
      <g
         id="z">
        <use
           id="use538"
           xlink:href="#as"
           transform="matrix(0.02469135802469136,0,0,0.02469135802469136,0,0)" />
        <use
           id="use540"
           xlink:href="#al"
           transform="matrix(0.02469135802469136,0,0,0.02469135802469136,4.938271604938272,0)" />
        <use
           id="use542"
           xlink:href="#at"
           transform="matrix(0.02469135802469136,0,0,0.02469135802469136,9.382716049382717,0)" />
        <use
           id="use544"
           xlink:href="#au"
           transform="matrix(0.02469135802469136,0,0,0.02469135802469136,15.777777777777779,0)" />
        <use
           id="use546"
           xlink:href="#av"
           transform="matrix(0.02469135802469136,0,0,0.02469135802469136,20.71604938271605,0)" />
        <use
           id="use548"
           xlink:href="#ap"
           transform="matrix(0.02469135802469136,0,0,0.02469135802469136,22.666666666666668,0)" />
        <use
           id="use550"
           xlink:href="#as"
           transform="matrix(0.02469135802469136,0,0,0.02469135802469136,27.60493827160494,0)" />
        <use
           id="use552"
           xlink:href="#aw"
           transform="matrix(0.02469135802469136,0,0,0.02469135802469136,32.543209876543216,0)" />
        <use
           id="use554"
           xlink:href="#aq"
           transform="matrix(0.02469135802469136,0,0,0.02469135802469136,35.012345679012356,0)" />
        <use
           id="use556"
           xlink:href="#au"
           transform="matrix(0.02469135802469136,0,0,0.02469135802469136,39.95061728395063,0)" />
        <use
           id="use558"
           xlink:href="#ax"
           transform="matrix(0.02469135802469136,0,0,0.02469135802469136,44.8888888888889,0)" />
        <use
           id="use560"
           xlink:href="#ay"
           transform="matrix(0.02469135802469136,0,0,0.02469135802469136,49.82716049382717,0)" />
        <use
           id="use562"
           xlink:href="#am"
           transform="matrix(0.02469135802469136,0,0,0.02469135802469136,54.27160493827161,0)" />
        <use
           id="use564"
           xlink:href="#az"
           transform="matrix(0.02469135802469136,0,0,0.02469135802469136,56.222222222222236,0)" />
        <use
           id="use566"
           xlink:href="#aw"
           transform="matrix(0.02469135802469136,0,0,0.02469135802469136,60.666666666666686,0)" />
        <use
           id="use568"
           xlink:href="#aA"
           transform="matrix(0.02469135802469136,0,0,0.02469135802469136,63.13580246913581,0)" />
        <use
           id="use570"
           xlink:href="#aB"
           transform="matrix(0.02469135802469136,0,0,0.02469135802469136,65.08641975308643,0)" />
      </g>
      <path
         id="aC"
         d="M16-82v-28h88v28H16"
         fill="#333" />
      <use
         id="A"
         xlink:href="#aC"
         transform="matrix(0.02469135802469136,0,0,0.02469135802469136,0,0)" />
      <g
         id="B">
        <use
           id="use575"
           xlink:href="#ay"
           transform="matrix(0.02469135802469136,0,0,0.02469135802469136,0,0)" />
        <use
           id="use577"
           xlink:href="#aw"
           transform="matrix(0.02469135802469136,0,0,0.02469135802469136,3.7777777777777772,0)" />
      </g>
      <path
         id="aD"
         d="M101-251c82-7 93 87 43 132L82-64C71-53 59-42 53-27h129V0H18c2-99 128-94 128-182 0-28-16-43-45-43s-46 15-49 41l-32-3c6-41 34-60 81-64"
         fill="#333" />
      <path
         id="aE"
         d="M101-251c68 0 85 55 85 127S166 4 100 4C33 4 14-52 14-124c0-73 17-127 87-127zm-1 229c47 0 54-49 54-102s-4-102-53-102c-51 0-55 48-55 102 0 53 5 102 54 102"
         fill="#333" />
      <path
         id="aF"
         d="M205 0l-28-72H64L36 0H1l101-248h38L239 0h-34zm-38-99l-47-123c-12 45-31 82-46 123h93"
         fill="#333" />
      <g
         id="C">
        <use
           id="use583"
           xlink:href="#aD"
           transform="matrix(0.02469135802469136,0,0,0.02469135802469136,0,0)" />
        <use
           id="use585"
           xlink:href="#aw"
           transform="matrix(0.02469135802469136,0,0,0.02469135802469136,4.938271604938272,0)" />
        <use
           id="use587"
           xlink:href="#aE"
           transform="matrix(0.02469135802469136,0,0,0.02469135802469136,7.407407407407408,0)" />
        <use
           id="use589"
           xlink:href="#aC"
           transform="matrix(0.02469135802469136,0,0,0.02469135802469136,12.34567901234568,0)" />
        <use
           id="use591"
           xlink:href="#aF"
           transform="matrix(0.02469135802469136,0,0,0.02469135802469136,15.283950617283953,0)" />
      </g>
    </defs>
    <linearGradient
       inkscape:collect="always"
       xlink:href="#linearGradient1764"
       id="linearGradient1756"
       x1="304.85611"
       y1="130"
       x2="490.48611"
       y2="130"
       gradientUnits="userSpaceOnUse" />
    <linearGradient
       inkscape:collect="always"
       xlink:href="#linearGradient1764"
       id="linearGradient1758"
       x1="592.35614"
       y1="330"
       x2="777.98615"
       y2="330"
       gradientUnits="userSpaceOnUse" />
    <linearGradient
       inkscape:collect="always"
       xlink:href="#linearGradient1770"
       id="linearGradient1772"
       x1="304.85611"
       y1="330"
       x2="490.48611"
       y2="330"
       gradientUnits="userSpaceOnUse" />
    <linearGradient
       inkscape:collect="always"
       xlink:href="#linearGradient1770"
       id="linearGradient1780"
       x1="24.856115"
       y1="330"
       x2="210.48611"
       y2="330"
       gradientUnits="userSpaceOnUse" />
    <linearGradient
       inkscape:collect="always"
       xlink:href="#linearGradient1848"
       id="linearGradient1796"
       x1="592.35614"
       y1="220"
       x2="777.98615"
       y2="220"
       gradientUnits="userSpaceOnUse" />
    <linearGradient
       inkscape:collect="always"
       xlink:href="#linearGradient1848"
       id="linearGradient1798"
       x1="592.35614"
       y1="160"
       x2="777.98615"
       y2="160"
       gradientUnits="userSpaceOnUse" />
    <linearGradient
       inkscape:collect="always"
       xlink:href="#linearGradient1848"
       id="linearGradient1800"
       x1="592.35614"
       y1="100"
       x2="777.98615"
       y2="100"
       gradientUnits="userSpaceOnUse" />
    <linearGradient
       inkscape:collect="always"
       xlink:href="#linearGradient1848"
       id="linearGradient1802"
       x1="592.35612"
       y1="40"
       x2="777.98612"
       y2="40"
       gradientUnits="userSpaceOnUse" />
    <linearGradient
       inkscape:collect="always"
       xlink:href="#linearGradient1848"
       id="linearGradient1824"
       x1="879.85614"
       y1="300"
       x2="1065.4861"
       y2="300"
       gradientUnits="userSpaceOnUse" />
    <linearGradient
       inkscape:collect="always"
       xlink:href="#linearGradient1848"
       id="linearGradient1834"
       gradientUnits="userSpaceOnUse"
       x1="879.85614"
       y1="360"
       x2="1065.4861"
       y2="360" />
    <linearGradient
       inkscape:collect="always"
       xlink:href="#linearGradient1840"
       id="linearGradient1842"
       x1="879.85612"
       y1="130"
       x2="1065.4861"
       y2="130"
       gradientUnits="userSpaceOnUse" />
  </defs>
  <sodipodi:namedview
     pagecolor="#ffffff"
     bordercolor="#666666"
     borderopacity="1"
     objecttolerance="10"
     gridtolerance="10"
     guidetolerance="10"
     inkscape:pageopacity="0"
     inkscape:pageshadow="2"
     inkscape:window-width="1920"
     inkscape:window-height="1017"
     id="namedview600"
     showgrid="false"
     inkscape:zoom="0.84444199"
     inkscape:cx="309.89759"
     inkscape:cy="282.9649"
     inkscape:window-x="-8"
     inkscape:window-y="-8"
     inkscape:window-maximized="1"
     inkscape:current-layer="svg598" />
  <path
     style="fill:none;stroke:#333333;stroke-width:1.5"
     inkscape:connector-curvature="0"
     id="path2"
     d="m 211.23611,330 h 92.26" />
  <path
     style="fill:#333333"
     inkscape:connector-curvature="0"
     id="path4"
     d="m 211.25611,330.75 h -0.77 v -1.5 h 0.77 z" />
  <path
     style="fill:none;stroke:#333333;stroke-width:1.5"
     inkscape:connector-curvature="0"
     id="path6"
     d="m 286.16611,340.18 17.22,-10.18 -17.22,-10.18 m 205.07,10.18 h 99.76001" />
  <path
     style="fill:#333333"
     inkscape:connector-curvature="0"
     id="path8"
     d="m 491.25611,330.75 h -0.77 v -1.5 h 0.77 z" />
  <path
     style="fill:none;stroke:#333333;stroke-width:1.5"
     inkscape:connector-curvature="0"
     id="path10"
     d="M 573.66611,340.18 590.88612,330 573.66611,319.82 m -175.99,-137.72 v 96.4 m 10.18,-79.06 -10.18,-17.22 -10.18,17.22" />
  <path
     style="fill:#333333"
     inkscape:connector-curvature="0"
     id="path12"
     d="m 398.42611,279.25 h -1.5 v -0.77 h 1.5 z" />
  <path
     style="fill:none;stroke:#333333;stroke-width:1.5"
     inkscape:connector-curvature="0"
     id="path14"
     d="m 778.73612,40 h 49.2 c 0.54,0 1,0.45 1,1 v 88 c 0,0.55 0.43,1 1,1 h 48.56" />
  <path
     style="fill:#333333"
     inkscape:connector-curvature="0"
     id="path16"
     d="m 778.75612,40.75 h -0.77 v -1.5 h 0.77 z" />
  <path
     style="fill:none;stroke:#333333;stroke-width:1.5"
     inkscape:connector-curvature="0"
     id="path18"
     d="M 861.16611,140.18 878.38612,130 861.16611,119.82 M 879.10612,300 h -49.18 c -0.56,0 -1,0.45 -1,1 v 28 c 0,0.55 -0.45,1 -1,1 h -26.2" />
  <path
     style="fill:#333333"
     inkscape:connector-curvature="0"
     id="path20"
     d="m 879.85612,300.75 h -0.77 v -1.5 h 0.77 z" />
  <path
     style="fill:#ffffff;stroke:#333333;stroke-width:1.5"
     inkscape:connector-curvature="0"
     id="path22"
     d="m 779.46612,330 21.52,-12.73 v 25.46 z" />
  <path
     style="fill:none;stroke:#333333;stroke-width:1.5"
     inkscape:connector-curvature="0"
     id="path24"
     d="m 879.10612,360 h -49.18 c -0.56,0 -1,-0.45 -1,-1 v -28 c 0,-0.55 -0.45,-1 -1,-1 h -26.2" />
  <path
     style="fill:#333333"
     inkscape:connector-curvature="0"
     id="path26"
     d="m 879.85612,360.75 h -0.77 v -1.5 h 0.77 z" />
  <path
     style="fill:#ffffff;stroke:#333333;stroke-width:1.5"
     inkscape:connector-curvature="0"
     id="path28"
     d="m 779.46612,330 21.52,-12.73 v 25.46 z" />
  <path
     style="fill:none;stroke:#333333;stroke-width:1.5"
     inkscape:connector-curvature="0"
     id="path30"
     d="m 591.60612,160 h -49.18 c -0.56,0 -1,-0.45 -1,-1 v -28 c 0,-0.55 -0.45,-1 -1,-1 h -26.2" />
  <path
     style="fill:#333333"
     inkscape:connector-curvature="0"
     id="path32"
     d="m 592.35612,160.75 h -0.77 v -1.5 h 0.77 z" />
  <path
     style="fill:#ffffff;stroke:#333333;stroke-width:1.5"
     inkscape:connector-curvature="0"
     id="path34"
     d="m 491.96611,130 21.52001,-12.73 v 25.46 z" />
  <path
     style="fill:none;stroke:#333333;stroke-width:1.5"
     inkscape:connector-curvature="0"
     id="path36"
     d="m 591.60612,100 h -49.18 c -0.56,0 -1,0.45 -1,1 v 28 c 0,0.55 -0.45,1 -1,1 h -26.2" />
  <path
     style="fill:#333333"
     inkscape:connector-curvature="0"
     id="path38"
     d="m 592.35612,100.75 h -0.77 v -1.5 h 0.77 z" />
  <path
     style="fill:#ffffff;stroke:#333333;stroke-width:1.5"
     inkscape:connector-curvature="0"
     id="path40"
     d="m 491.96611,130 21.52001,-12.73 v 25.46 z" />
  <path
     style="fill:none;stroke:#333333;stroke-width:1.5"
     inkscape:connector-curvature="0"
     id="path42"
     d="m 591.60612,220 h -49.18 c -0.56,0 -1,-0.45 -1,-1 v -88 c 0,-0.55 -0.45,-1 -1,-1 h -26.2" />
  <path
     style="fill:#333333"
     inkscape:connector-curvature="0"
     id="path44"
     d="m 592.35612,220.75 h -0.77 v -1.5 h 0.77 z" />
  <path
     style="fill:#ffffff;stroke:#333333;stroke-width:1.5"
     inkscape:connector-curvature="0"
     id="path46"
     d="m 491.96611,130 21.52001,-12.73 v 25.46 z" />
  <path
     style="fill:none;stroke:#333333;stroke-width:1.5"
     inkscape:connector-curvature="0"
     id="path48"
     d="m 591.60612,40 h -49.18 c -0.56,0 -1,0.45 -1,1 v 88 c 0,0.55 -0.45,1 -1,1 h -26.2" />
  <path
     style="fill:#333333"
     inkscape:connector-curvature="0"
     id="path50"
     d="m 592.35612,40.75 h -0.77 v -1.5 h 0.77 z" />
  <path
     style="fill:#ffffff;stroke:#333333;stroke-width:1.5"
     inkscape:connector-curvature="0"
     id="path52"
     d="m 491.96611,130 21.52001,-12.73 v 25.46 z" />
  <path
     style="fill:none;stroke:#333333;stroke-width:1.5"
     inkscape:connector-curvature="0"
     id="path54"
     d="m 778.73612,100 h 49.2 c 0.54,0 1,0.45 1,1 v 28 c 0,0.55 0.43,1 1,1 h 48.56" />
  <path
     style="fill:#333333"
     inkscape:connector-curvature="0"
     id="path56"
     d="m 778.75612,100.75 h -0.77 v -1.5 h 0.77 z" />
  <path
     style="fill:none;stroke:#333333;stroke-width:1.5"
     inkscape:connector-curvature="0"
     id="path58"
     d="M 861.16611,140.18 878.38612,130 861.16611,119.82" />
  <path
     style="fill:none;stroke:#333333;stroke-width:1.5"
     inkscape:connector-curvature="0"
     id="path60"
     d="m 778.73612,160 h 49.2 c 0.54,0 1,-0.45 1,-1 v -28 c 0,-0.55 0.43,-1 1,-1 h 48.56" />
  <path
     style="fill:#333333"
     inkscape:connector-curvature="0"
     id="path62"
     d="m 778.75612,160.75 h -0.77 v -1.5 h 0.77 z" />
  <path
     style="fill:none;stroke:#333333;stroke-width:1.5"
     inkscape:connector-curvature="0"
     id="path64"
     d="M 861.16611,140.18 878.38612,130 861.16611,119.82" />
  <path
     style="fill:none;stroke:#333333;stroke-width:1.5"
     inkscape:connector-curvature="0"
     id="path66"
     d="m 778.73612,220 h 49.2 c 0.54,0 1,-0.45 1,-1 v -88 c 0,-0.55 0.43,-1 1,-1 h 48.56" />
  <path
     style="fill:#333333"
     inkscape:connector-curvature="0"
     id="path68"
     d="m 778.75612,220.75 h -0.77 v -1.5 h 0.77 z" />
  <path
     style="fill:none;stroke:#333333;stroke-width:1.5"
     inkscape:connector-curvature="0"
     id="path70"
     d="M 861.16611,140.18 878.38612,130 861.16611,119.82" />
  <path
     style="fill:#c83737;stroke:#000000;stroke-width:1.5;stroke-opacity:0"
     inkscape:connector-curvature="0"
     id="path72"
     d="m 61.306115,35.63 c -1.26,0 -2.1,-0.46 -2.52,-1.42 -0.42,2 -0.98,4.3 -1.4,6.08 h -2.8 l 3.92,-15.86 h 2.24 v 1.42 h 0.14 c 0.84,-1.08 1.96,-1.62 3.22,-1.62 1.26,0 2.1,0.5 2.52,1.5 0.42,1 0.42,2.4 0,4.2 -0.28,1.17 -0.7,2.18 -1.26,3.06 -0.56,0.85 -1.12,1.52 -1.82,1.96 -0.7,0.47 -1.54,0.7 -2.24,0.7 z m 1.4,-9.02 c -0.7,0 -1.26,0.25 -1.68,0.7 -0.42,0.47 -0.84,1.22 -1.12,2.27 v 0.32 c -0.28,1.17 -0.42,2.02 -0.14,2.53 0.14,0.5 0.56,0.77 1.26,0.77 1.26,0 2.24,-1.12 2.8,-3.33 0.14,-1.1 0.28,-1.9 0.14,-2.43 -0.28,-0.55 -0.7,-0.83 -1.26,-0.83 z m 10.08,-0.26 c -0.56,0 -1.12,0.2 -1.54,0.6 -0.42,0.4 -0.7,0.98 -0.98,1.73 h 3.92 c 0.14,-0.75 0.14,-1.32 -0.14,-1.73 -0.28,-0.4 -0.7,-0.6 -1.26,-0.6 z m -1.96,9.28 c -1.54,0 -2.66,-0.48 -3.36,-1.48 -0.7,-0.97 -0.84,-2.35 -0.42,-4.15 0.42,-1.85 1.26,-3.27 2.38,-4.26 1.12,-1.02 2.38,-1.52 3.92,-1.52 1.4,0 2.38,0.44 2.94,1.32 0.56,0.9 0.7,2.12 0.28,3.7 l -0.28,1.42 h -6.58 c -0.14,0.88 -0.14,1.53 0.14,2 0.42,0.5 0.98,0.74 1.68,0.74 0.7,0 1.26,-0.08 1.82,-0.22 0.56,-0.12 1.26,-0.35 1.82,-0.65 l -0.56,2.3 c -0.56,0.27 -1.12,0.48 -1.68,0.6 -0.56,0.14 -1.26,0.2 -2.1,0.2 z m 13.02,-11.41 c 0.42,0 0.7,0.02 0.98,0.08 l -0.7,2.82 c -0.28,-0.06 -0.56,-0.1 -0.84,-0.1 -0.84,0 -1.68,0.24 -2.24,0.75 -0.56,0.48 -0.98,1.17 -1.26,2.06 l -1.4,5.6 h -2.66 l 2.66,-11 h 2.1 v 1.83 c 0.56,-0.6 1.12,-1.1 1.68,-1.48 0.7,-0.38 1.12,-0.56 1.68,-0.56 z m 6.16,-4.22 c -1.26,0 -2.24,0.28 -2.94,0.87 -0.84,0.57 -1.26,1.48 -1.54,2.74 l -0.28,0.82 -0.56,2.25 -2.1,8.76 h 2.8 l 2.1,-8.76 h 2.38 l 0.56,-2.25 h -2.38 l 0.14,-0.7 c 0.14,-0.37 0.28,-0.7 0.56,-0.96 0.14,-0.25 0.56,-0.37 0.98,-0.37 0.42,0 0.84,0.07 1.4,0.28 l 1.26,-2.2 c -0.7,-0.32 -1.54,-0.48 -2.38,-0.48 z m 1.54,9.9 c -0.28,1.1 -0.28,1.92 0,2.47 0.14,0.57 0.56,0.85 1.4,0.85 0.7,0 1.26,-0.28 1.68,-0.83 0.56,-0.58 0.84,-1.4 1.12,-2.5 0.28,-1.08 0.28,-1.9 0.14,-2.44 -0.14,-0.55 -0.7,-0.83 -1.4,-0.83 -0.7,0 -1.26,0.28 -1.82,0.83 -0.42,0.53 -0.84,1.36 -1.12,2.45 z m 7,0 c -0.42,1.8 -1.12,3.2 -2.24,4.2 -1.12,1.03 -2.52,1.53 -4.06,1.53 -0.98,0 -1.82,-0.24 -2.38,-0.7 -0.7,-0.45 -0.98,-1.12 -1.26,-2 -0.14,-0.87 -0.14,-1.86 0.14,-3.02 0.42,-1.8 1.26,-3.2 2.38,-4.18 1.12,-1.02 2.38,-1.5 4.06,-1.5 0.98,0 1.68,0.22 2.38,0.7 0.56,0.45 0.98,1.1 1.26,1.95 0.14,0.88 0.14,1.9 -0.28,3.04 z m 7.420005,-5.68 c 0.42,0 0.7,0.02 0.84,0.08 l -0.7,2.82 c -0.14,-0.06 -0.42,-0.1 -0.7,-0.1 -0.98,0 -1.68,0.24 -2.24,0.75 -0.7,0.48 -1.12,1.17 -1.26,2.06 l -1.4,5.6 h -2.800005 l 2.800005,-11 h 1.96 v 1.83 h 0.14 c 0.42,-0.6 0.98,-1.1 1.68,-1.48 0.56,-0.38 0.98,-0.56 1.68,-0.56 z" />
  <path
     style="fill:#252525;stroke:#000000;stroke-width:1.5;stroke-opacity:0"
     inkscape:connector-curvature="0"
     id="path74"
     d="m 113.80611,35.43 h -2.8 L 112.68612,29 c 0.14,-0.8 0.14,-1.4 0,-1.78 -0.14,-0.4 -0.42,-0.6 -0.98001,-0.6 -0.7,0 -1.26,0.27 -1.81999,0.84 -0.42,0.57 -0.84,1.5 -1.12,2.8 l -1.26001,5.17 h -2.8 l 2.8,-11.17 h 2.1 v 1.58 h 0.14 c 0.42,-0.5 0.84,-0.9 1.4,-1.2 0.7,-0.28 1.26001,-0.42 1.96,-0.42 1.54,0 2.38,0.52 2.66001,1.62 h 0.28 c 0.41999,-0.53 0.84,-0.9 1.4,-1.2 0.69999,-0.28 1.25999,-0.42 1.96,-0.42 1.12,0 1.96,0.32 2.38,0.95 0.41999,0.65 0.41999,1.66 0.13999,3.08 l -1.81999,7.18 h -2.80001 l 1.68,-6.43 c 0.14,-0.8 0.14,-1.4 0,-1.78 -0.13999,-0.4 -0.41999,-0.6 -0.97999,-0.6 -0.7,0 -1.26,0.25 -1.68,0.78 -0.56,0.53 -0.84001,1.36 -1.12001,2.5 z m 13.86001,-9.08 c -0.56,0 -1.12,0.2 -1.54,0.6 -0.42,0.4 -0.84,0.98 -0.98,1.73 h 3.77999 c 0.28,-0.75 0.14,-1.32 0,-1.73 -0.28,-0.4 -0.69999,-0.6 -1.25999,-0.6 z m -1.96001,9.28 c -1.53999,0 -2.8,-0.48 -3.5,-1.48 -0.56,-0.97 -0.69999,-2.35 -0.28,-4.15 0.42,-1.85 1.26,-3.27 2.38,-4.26 0.98,-1.02 2.38,-1.52 3.78,-1.52 1.54,0 2.52,0.44 3.08,1.32 0.56,0.9 0.7,2.12 0.28,3.7 l -0.42,1.42 h -6.43999 c -0.28,0.88 -0.14,1.53 0.14,2 0.28,0.5 0.84,0.74 1.68,0.74 0.56,0 1.26,-0.08 1.81999,-0.22 0.56,-0.12 1.12,-0.35 1.82,-0.65 l -0.56,2.3 c -0.56,0.27 -1.12,0.48 -1.68,0.6 -0.56,0.14 -1.25999,0.2 -2.1,0.2 z" />
  <path
     style="fill:#252525;stroke:#000000;stroke-width:1.5;stroke-opacity:0"
     inkscape:connector-curvature="0"
     id="path76"
     d="m 135.36611,33.24 c 0.56,0 1.12,-0.12 1.82,-0.35 l -0.56,2.23 c -0.7,0.34 -1.68,0.5 -2.66,0.5 -1.12,0 -1.82,-0.3 -2.1,-0.9 -0.42,-0.62 -0.42,-1.53 -0.14,-2.75 l 1.26,-5.3 h -1.26 l 0.28,-1.27 1.82,-1 1.4,-2.33 h 1.68 l -0.56,2.35 h 2.8 l -0.56,2.25 h -2.8 l -1.26,5.3 c -0.13999,0.44 -0.13999,0.76 0,0.97 0.28,0.2 0.56,0.3 0.84,0.3 z m 12.04,-11.66 c 0.14,-1 0.84,-1.48 1.82,-1.48 0.98,0 1.4,0.5 1.12,1.48 -0.14,0.47 -0.28,0.83 -0.7,1.1 -0.28,0.24 -0.69999,0.38 -1.12,0.38 -0.97999,0 -1.4,-0.5 -1.12,-1.48 z m -0.56,13.85 h -2.8 l 2.66,-11 h 2.8 z m 5.18,0.2 c -3.08,0 -4.19999,-1.88 -3.22,-5.65 0.42,-1.87 1.12,-3.3 2.24001,-4.28 1.12,-1 2.52,-1.48 4.06,-1.48 1.25999,0 2.24,0.24 3.08,0.75 l -1.4,2.3 -1.12,-0.44 c -0.42,-0.14 -0.7,-0.2 -1.12,-0.2 -1.40001,0 -2.38,1.12 -2.94,3.35 -0.56,2.14 -0.14,3.22 1.25999,3.22 0.56,0 1.12,-0.08 1.54,-0.22 0.56,-0.17 1.12,-0.4 1.54,-0.73 l -0.56,2.55 c -0.56,0.33 -0.98,0.53 -1.54,0.65 -0.42,0.12 -1.12,0.18 -1.82,0.18 z" />
  <path
     style="fill:#252525;stroke:#000000;stroke-width:1.5;stroke-opacity:0"
     inkscape:connector-curvature="0"
     id="path78"
     d="m 163.92611,32.17 c -0.28,1.1 -0.84,1.98 -1.68,2.57 -0.84,0.6 -1.96,0.9 -3.5,0.9 -0.7,0 -1.26,-0.07 -1.82,-0.17 -0.42,-0.12 -0.98,-0.26 -1.26,-0.5 l 0.56,-2.46 c 0.42,0.27 0.98,0.5 1.54,0.66 0.56,0.18 1.12,0.26 1.68,0.26 0.98,0 1.54,-0.3 1.68,-0.93 0.14,-0.25 0.14,-0.44 0,-0.58 -0.14,-0.16 -0.28,-0.32 -0.56,-0.5 -0.28,-0.2 -0.7,-0.4 -1.12,-0.67 -0.7,-0.35 -1.26,-0.67 -1.54,-0.98 -0.28,-0.3 -0.42,-0.65 -0.56,-1.03 0,-0.4 0,-0.87 0.14,-1.46 0.28,-0.97 0.84,-1.72 1.54,-2.25 0.84,-0.55 1.96,-0.8 3.22,-0.8 1.26,0 2.38,0.27 3.36,0.86 l -1.4,2.14 c -0.42,-0.22 -0.84,-0.43 -1.26,-0.57 -0.42,-0.16 -0.84,-0.22 -1.26,-0.22 -0.84,0 -1.26,0.22 -1.4,0.7 -0.14,0.27 0,0.5 0.14,0.72 0.28,0.18 0.84,0.48 1.54,0.87 0.7,0.34 1.26,0.67 1.54,0.97 0.28,0.32 0.42,0.66 0.56,1.05 0,0.4 0,0.87 -0.14,1.42 z m -18.48,-7.95 c 0.42,0 0.7,0.02 0.84,0.08 l -0.7,2.82 c -0.13999,-0.06 -0.41999,-0.1 -0.69999,-0.1 -0.98,0 -1.68001,0.24 -2.24001,0.75 -0.69999,0.48 -1.12,1.17 -1.25999,2.06 l -1.40001,5.6 h -2.8 l 2.66,-11 h 2.1 v 1.83 h 0.14 c 0.42,-0.6 0.98,-1.1 1.68,-1.48 0.56,-0.38 0.98,-0.56 1.68,-0.56 z" />
  <path
     style="fill:#c83737;stroke:#000000;stroke-width:0.34;stroke-opacity:0"
     inkscape:connector-curvature="0"
     id="path80"
     d="m 36.806115,20 c -2.66,2.25 -5.18,4.5 -7.84,6.75 l -3.36,13.53 h 6.16 l 3.36,-13.53 h 1.4 l -1.96,8.3 7.84,-6.76 2.1,-8.3 z" />
  <path
     inkscape:connector-curvature="0"
     style="fill:url(#a);stroke:#000000;stroke-width:0.34;stroke-opacity:0"
     id="path82"
     d="m 52.066115,20 -7.84,6.75 -3.36,13.53 h 6.16 z" />
  <path
     style="fill:url(#linearGradient1780);stroke:#4f0006;stroke-width:1.5;fill-opacity:1.0"
     inkscape:connector-curvature="0"
     id="path84"
     d="m 25.606115,283 c 0,-1.66 1.34,-3 3,-3 H 206.73611 c 1.66,0 3,1.34 3,3 v 94 c 0,1.66 -1.34,3 -3,3 H 28.606115 c -1.66,0 -3,-1.34 -3,-3 z" />
  <use
     height="100%"
     width="100%"
     y="0"
     x="0"
     id="use86"
     transform="translate(62.087596,334.44444)"
     xlink:href="#b" />
  <path
     style="fill:url(#linearGradient1772);stroke:#4f0006;stroke-width:1.5;fill-opacity:1"
     inkscape:connector-curvature="0"
     id="path88"
     d="m 305.60611,283 c 0,-1.66 1.34,-3 3,-3 h 178.13 c 1.66,0 3,1.34 3,3 v 94 c 0,1.66 -1.34,3 -3,3 h -178.13 c -1.66,0 -3,-1.34 -3,-3 z" />
  <use
     height="100%"
     width="100%"
     y="0"
     x="0"
     id="use90"
     transform="translate(355.66784,334.44444)"
     xlink:href="#c" />
  <path
     style="fill:url(#linearGradient1756);stroke:#666666;stroke-width:1.5;fill-opacity:1"
     inkscape:connector-curvature="0"
     id="path92"
     d="m 305.60611,83 c 0,-1.66 1.34,-3 3,-3 h 178.13 c 1.66,0 3,1.34 3,3 v 94 c 0,1.66 -1.34,3 -3,3 h -178.13 c -1.66,0 -3,-1.34 -3,-3 z" />
  <use
     height="100%"
     width="100%"
     y="0"
     x="0"
     id="use94"
     transform="translate(327.55055,134.44444)"
     xlink:href="#d" />
  <use
     height="100%"
     width="100%"
     y="0"
     x="0"
     id="use96"
     transform="translate(418.59994,134.44444)"
     xlink:href="#e" />
  <path
     style="fill:url(#linearGradient1802);stroke:#4f0006;stroke-width:1.5;fill-opacity:1"
     inkscape:connector-curvature="0"
     id="path98"
     d="m 593.10612,23 c 0,-1.66 1.34,-3 3,-3 h 178.13 c 1.65999,0 3,1.34 3,3 v 34 c 0,1.66 -1.34001,3 -3,3 h -178.13 c -1.66,0 -3,-1.34 -3,-3 z" />
  <use
     height="100%"
     width="100%"
     y="0"
     x="0"
     id="use100"
     transform="translate(621.80364,43.555556)"
     xlink:href="#f" />
  <use
     height="100%"
     width="100%"
     y="0"
     x="0"
     id="use102"
     transform="translate(662.59376,43.555556)"
     xlink:href="#g" />
  <use
     height="100%"
     width="100%"
     y="0"
     x="0"
     id="use104"
     transform="translate(712.91475,43.555556)"
     xlink:href="#h" />
  <path
     style="fill:url(#linearGradient1800);stroke:#4f0006;stroke-width:1.5;fill-opacity:1.0"
     inkscape:connector-curvature="0"
     id="path106"
     d="m 593.10612,83 c 0,-1.66 1.34,-3 3,-3 h 178.13 c 1.65999,0 3,1.34 3,3 v 34 c 0,1.66 -1.34001,3 -3,3 h -178.13 c -1.66,0 -3,-1.34 -3,-3 z" />
  <use
     height="100%"
     width="100%"
     y="0"
     x="0"
     id="use108"
     transform="translate(646.17401,103.55556)"
     xlink:href="#i" />
  <use
     height="100%"
     width="100%"
     y="0"
     x="0"
     id="use110"
     transform="translate(688.54438,103.55556)"
     xlink:href="#j" />
  <path
     style="fill:url(#linearGradient1798);stroke:#4f0006;stroke-width:1.5;fill-opacity:1.0"
     inkscape:connector-curvature="0"
     id="path112"
     d="m 593.10612,143 c 0,-1.66 1.34,-3 3,-3 h 178.13 c 1.65999,0 3,1.34 3,3 v 34 c 0,1.66 -1.34001,3 -3,3 h -178.13 c -1.66,0 -3,-1.34 -3,-3 z" />
  <use
     height="100%"
     width="100%"
     y="0"
     x="0"
     id="use114"
     transform="translate(645.16167,163.55556)"
     xlink:href="#k" />
  <use
     height="100%"
     width="100%"
     y="0"
     x="0"
     id="use116"
     transform="translate(689.55673,163.55556)"
     xlink:href="#j" />
  <path
     style="fill:url(#linearGradient1796);stroke:#4f0006;stroke-width:1.5;fill-opacity:1.0"
     inkscape:connector-curvature="0"
     id="path118"
     d="m 593.10612,203 c 0,-1.66 1.34,-3 3,-3 h 178.13 c 1.65999,0 3,1.34 3,3 v 34 c 0,1.66 -1.34001,3 -3,3 h -178.13 c -1.66,0 -3,-1.34 -3,-3 z" />
  <use
     height="100%"
     width="100%"
     y="0"
     x="0"
     id="use120"
     transform="translate(633.30981,223.55556)"
     xlink:href="#l" />
  <use
     height="100%"
     width="100%"
     y="0"
     x="0"
     id="use122"
     transform="translate(701.40858,223.55556)"
     xlink:href="#j" />
  <path
     style="fill:url(#linearGradient1842);stroke:#126b75;stroke-width:1.5;fill-opacity:1"
     inkscape:connector-curvature="0"
     id="path124"
     d="m 880.60612,84 c 0,-1.66 1.34,-3 3,-3 h 178.12998 c 1.66,0 3,1.34 3,3 v 92 c 0,1.66 -1.34,3 -3,3 H 883.60612 c -1.66,0 -3,-1.34 -3,-3 z" />
  <use
     height="100%"
     width="100%"
     y="0"
     x="0"
     id="use126"
     transform="translate(909.61846,134.44444)"
     xlink:href="#m" />
  <path
     style="fill:url(#linearGradient1758);stroke:#666666;stroke-width:1.5;fill-opacity:1.0"
     inkscape:connector-curvature="0"
     id="path128"
     d="m 593.10612,283 c 0,-1.66 1.34,-3 3,-3 h 178.13 c 1.65999,0 3,1.34 3,3 v 94 c 0,1.66 -1.34001,3 -3,3 h -178.13 c -1.66,0 -3,-1.34 -3,-3 z" />
  <use
     height="100%"
     width="100%"
     y="0"
     x="0"
     id="use130"
     transform="translate(624.64932,321.11111)"
     xlink:href="#n" />
  <use
     height="100%"
     width="100%"
     y="0"
     x="0"
     id="use132"
     transform="translate(656.68636,347.77778)"
     xlink:href="#o" />
  <path
     style="fill:url(#linearGradient1824);stroke:#4f0006;stroke-width:1.5;fill-opacity:1.0"
     inkscape:connector-curvature="0"
     id="path134"
     d="m 880.60612,283 c 0,-1.66 1.34,-3 3,-3 h 178.12998 c 1.66,0 3,1.34 3,3 v 34 c 0,1.66 -1.34,3 -3,3 H 883.60612 c -1.66,0 -3,-1.34 -3,-3 z" />
  <use
     height="100%"
     width="100%"
     y="0"
     x="0"
     id="use136"
     transform="translate(954.88389,303.55556)"
     xlink:href="#p" />
  <path
     style="fill:url(#linearGradient1834);stroke:#4f0006;stroke-width:1.5;fill-opacity:1.0"
     inkscape:connector-curvature="0"
     id="path138"
     d="m 880.60612,343 c 0,-1.66 1.34,-3 3,-3 h 178.12998 c 1.66,0 3,1.34 3,3 v 34 c 0,1.66 -1.34,3 -3,3 H 883.60612 c -1.66,0 -3,-1.34 -3,-3 z" />
  <g
     id="g144"
     transform="translate(-14.393885,-20)">
    <use
       height="100%"
       width="100%"
       y="0"
       x="0"
       id="use140"
       transform="translate(915.57407,383.55556)"
       xlink:href="#q" />
    <use
       height="100%"
       width="100%"
       y="0"
       x="0"
       id="use142"
       transform="translate(980.56173,383.55556)"
       xlink:href="#r" />
  </g>
  <path
     style="fill:none;stroke:#333333;stroke-width:1.5"
     inkscape:connector-curvature="0"
     id="path146"
     d="M 117.67611,278.5 V 131 c 0,-0.55 0.44,-1 1,-1 h 184.83" />
  <path
     style="fill:#333333"
     inkscape:connector-curvature="0"
     id="path148"
     d="m 118.42611,279.25 h -1.5 v -0.77 h 1.5 z" />
  <path
     style="fill:none;stroke:#333333;stroke-width:1.5"
     inkscape:connector-curvature="0"
     id="path150"
     d="m 286.16611,140.18 17.22,-10.18 -17.22,-10.18" />
  <path
     style="fill-opacity:0;stroke:#000000;stroke-width:0.5;stroke-opacity:0"
     inkscape:connector-curvature="0"
     id="path152"
     d="M 20.006115,43.3 H 225.60611 V 74.48 H 20.006115 Z" />
  <g
     id="g176"
     transform="translate(-14.393885,-20)">
    <use
       height="100%"
       width="100%"
       y="0"
       x="0"
       id="use154"
       transform="translate(39.393885,77.179414)"
       xlink:href="#s" />
    <use
       height="100%"
       width="100%"
       y="0"
       x="0"
       id="use156"
       transform="translate(95.443268,77.179414)"
       xlink:href="#t" />
    <use
       height="100%"
       width="100%"
       y="0"
       x="0"
       id="use158"
       transform="translate(146.02969,77.179414)"
       xlink:href="#u" />
    <use
       height="100%"
       width="100%"
       y="0"
       x="0"
       id="use160"
       transform="translate(152.78895,77.179414)"
       xlink:href="#v" />
    <use
       height="100%"
       width="100%"
       y="0"
       x="0"
       id="use162"
       transform="translate(181.77043,77.179414)"
       xlink:href="#w" />
    <use
       height="100%"
       width="100%"
       y="0"
       x="0"
       id="use164"
       transform="translate(39.393885,88.73497)"
       xlink:href="#x" />
    <use
       height="100%"
       width="100%"
       y="0"
       x="0"
       id="use166"
       transform="translate(79.344503,88.73497)"
       xlink:href="#y" />
    <use
       height="100%"
       width="100%"
       y="0"
       x="0"
       id="use168"
       transform="translate(91.196354,88.73497)"
       xlink:href="#z" />
    <use
       height="100%"
       width="100%"
       y="0"
       x="0"
       id="use170"
       transform="translate(161.69018,88.73497)"
       xlink:href="#A" />
    <use
       height="100%"
       width="100%"
       y="0"
       x="0"
       id="use172"
       transform="translate(167.09759,88.73497)"
       xlink:href="#B" />
    <use
       height="100%"
       width="100%"
       y="0"
       x="0"
       id="use174"
       transform="translate(175.81364,88.73497)"
       xlink:href="#C" />
  </g>
</svg>
