<svg xmlns="http://www.w3.org/2000/svg" xmlns:xlink="http://www.w3.org/1999/xlink" xmlns:lucid="lucid" width="1460.28" height="564.89"><g transform="translate(0 0)" lucid:page-tab-id="0_0"><path d="M0 0h340v123H0z" stroke="#000" stroke-opacity="0" fill="#fff"/><path d="M90.37 46.17c-2.3 0-3.82-.78-4.58-2.38-.78 3.32-1.8 7.15-2.56 10.14h-5.1L85.3 27.4h4.07v2.37h.26c1.53-1.8 3.57-2.7 5.86-2.7 2.3 0 3.82.84 4.58 2.5.77 1.7.77 4.04 0 7.03-.5 1.96-1.27 3.66-2.3 5.12-1 1.43-2.02 2.55-3.3 3.3-1.27.77-2.8 1.15-4.07 1.15zm2.55-15.1c-1.28 0-2.3.4-3.06 1.15-.76.78-1.53 2.03-2.04 3.8v.54c-.5 1.97-.76 3.4-.25 4.24.25.85 1.02 1.3 2.3 1.3 2.28 0 4.06-1.87 5.08-5.57.26-1.83.5-3.2.26-4.07-.5-.92-1.27-1.4-2.28-1.4zM111.24 30.62c-1.02 0-2.03.34-2.8 1.02-.76.68-1.27 1.63-1.78 2.9h7.13c.24-1.27.24-2.22-.27-2.9-.5-.68-1.27-1.02-2.3-1.02zm-3.56 15.55c-2.8 0-4.84-.82-6.1-2.48-1.28-1.64-1.54-3.95-.77-6.97.77-3.1 2.3-5.46 4.33-7.13 2.04-1.7 4.33-2.54 7.13-2.54 2.55 0 4.33.75 5.35 2.2 1.02 1.5 1.28 3.57.5 6.18l-.5 2.4h-11.96c-.25 1.47-.25 2.56.26 3.37.76.83 1.78 1.23 3.05 1.23 1.27 0 2.3-.13 3.3-.37 1.03-.2 2.3-.58 3.32-1.1l-1.02 3.88c-1.02.44-2.04.78-3.05 1-1.02.22-2.3.33-3.82.33zM131.35 27.06c.76 0 1.27.03 1.78.13l-1.27 4.7c-.5-.1-1.02-.16-1.53-.16-1.52 0-3.05.4-4.07 1.26-1.02.8-1.78 1.97-2.3 3.46l-2.54 9.37h-4.83l4.82-18.43h3.82v3.1c1.02-1.03 2.04-1.88 3.06-2.5 1.27-.64 2.03-.94 3.05-.94zM142.55 20c-2.3 0-4.07.48-5.35 1.46-1.52.95-2.3 2.48-2.8 4.58l-.5 1.36-1.02 3.77-3.82 14.66h5.1l3.8-14.66h4.34l1-3.77H139l.24-1.16c.26-.64.5-1.18 1.02-1.62.25-.4 1.02-.62 1.78-.62s1.53.14 2.55.48l2.28-3.7c-1.28-.5-2.8-.78-4.33-.78zM145.35 36.6c-.5 1.8-.5 3.2 0 4.1.25.95 1.02 1.43 2.55 1.43 1.27 0 2.3-.48 3.05-1.4 1.02-.94 1.53-2.3 2.04-4.13.5-1.84.5-3.2.24-4.1-.25-.93-1.27-1.4-2.54-1.4-1.28 0-2.3.47-3.3 1.4-.78.87-1.54 2.26-2.05 4.1zm12.73 0c-.77 2.98-2.04 5.32-4.08 7.02-2.03 1.7-4.58 2.55-7.38 2.55-1.78 0-3.3-.4-4.32-1.16-1.28-.77-1.8-1.9-2.3-3.35-.25-1.46-.25-3.12.26-5.05.76-3.02 2.3-5.37 4.33-7.03 2.02-1.7 4.3-2.5 7.37-2.5 1.78 0 3.05.36 4.33 1.14 1 .8 1.78 1.88 2.3 3.3.24 1.46.24 3.16-.52 5.1zM171.57 27.06c.76 0 1.27.03 1.52.13l-1.28 4.7c-.25-.1-.76-.16-1.27-.16-1.78 0-3.06.4-4.07 1.26-1.28.8-2.04 1.97-2.3 3.46l-2.54 9.37h-5.1l5.1-18.43h3.56v3.1h.26c.76-1.03 1.78-1.88 3.05-2.5 1.03-.64 1.8-.94 3.07-.94z" stroke="#000" stroke-opacity="0" stroke-width=".9" fill="#c83737"/><path d="M185.82 45.83h-5.1l3.07-10.76c.24-1.33.24-2.34 0-3-.27-.67-.78-1-1.8-1-1.27 0-2.3.47-3.3 1.42-.77.94-1.53 2.5-2.04 4.67l-2.3 8.66h-5.08l5.1-18.7h3.8v2.64h.26c.76-.84 1.53-1.52 2.55-2 1.26-.47 2.28-.7 3.55-.7 2.8 0 4.33.87 4.83 2.7h.5c.78-.88 1.54-1.52 2.56-2 1.27-.47 2.3-.7 3.56-.7 2.04 0 3.57.53 4.33 1.58.76 1.1.76 2.8.25 5.16l-3.3 12.03h-5.1l3.06-10.76c.25-1.33.25-2.34 0-3-.26-.67-.76-1-1.78-1-1.28 0-2.3.44-3.06 1.32-1.02.87-1.52 2.26-2.03 4.2zM211.02 30.62c-1.02 0-2.04.34-2.8 1.02-.76.68-1.53 1.63-1.78 2.9h6.87c.52-1.27.27-2.22 0-2.9-.5-.68-1.26-1.02-2.28-1.02zm-3.56 15.55c-2.8 0-5.1-.82-6.37-2.48-1.02-1.64-1.28-3.95-.52-6.97.77-3.1 2.3-5.46 4.33-7.13 1.8-1.7 4.34-2.54 6.88-2.54 2.8 0 4.6.75 5.6 2.2 1.02 1.5 1.28 3.57.5 6.18l-.75 2.4h-11.7c-.52 1.47-.26 2.56.25 3.37.5.83 1.52 1.23 3.05 1.23 1.02 0 2.3-.13 3.3-.37 1.03-.2 2.04-.58 3.32-1.1l-1.02 3.88c-1.02.44-2.04.78-3.05 1-1.02.22-2.3.33-3.82.33z" stroke="#000" stroke-opacity="0" stroke-width=".9" fill="#252525"/><path d="M225.02 42.16c1.02 0 2.04-.2 3.3-.58l-1 3.74c-1.28.57-3.06.85-4.85.85-2.03 0-3.3-.5-3.8-1.53-.78-1.02-.78-2.55-.27-4.58l2.3-8.9h-2.3l.5-2.1 3.32-1.7 2.55-3.9h3.05l-1.02 3.94h5.1l-1.03 3.77h-5.1l-2.28 8.9c-.26.7-.26 1.24 0 1.58.5.34 1 .5 1.52.5zM246.9 22.65c.26-1.67 1.54-2.48 3.32-2.48 1.78 0 2.54.8 2.04 2.48-.26.78-.5 1.4-1.28 1.83-.5.4-1.27.64-2.03.64-1.8 0-2.55-.84-2.04-2.47zm-1 23.18h-5.1l4.84-18.43h5.1zM255.3 46.17c-5.6 0-7.63-3.16-5.84-9.47.76-3.12 2.03-5.5 4.07-7.16 2.03-1.67 4.58-2.48 7.38-2.48 2.3 0 4.08.4 5.6 1.25l-2.54 3.88c-.76-.3-1.52-.57-2.03-.74-.77-.24-1.27-.34-2.04-.34-2.55 0-4.34 1.86-5.35 5.6-1.02 3.6-.26 5.4 2.3 5.4 1 0 2.02-.14 2.8-.38 1-.27 2.02-.68 2.8-1.22l-1.03 4.27c-1.02.55-1.78.9-2.8 1.1-.76.2-2.04.3-3.3.3z" stroke="#000" stroke-opacity="0" stroke-width=".9" fill="#252525"/><path d="M276.95 40.36c-.5 1.87-1.53 3.33-3.06 4.3-1.54 1-3.57 1.5-6.37 1.5-1.27 0-2.3-.1-3.3-.27-.77-.2-1.8-.45-2.3-.82l1.02-4.14c.76.44 1.78.8 2.8 1.1 1 .3 2.03.43 3.05.43 1.78 0 2.8-.5 3.05-1.56.26-.4.26-.7 0-.94-.25-.28-.5-.55-1-.85-.52-.3-1.3-.67-2.05-1.1-1.27-.6-2.3-1.13-2.8-1.64-.5-.5-.76-1.1-1.02-1.73 0-.68 0-1.46.26-2.45.5-1.63 1.52-2.88 2.8-3.76 1.52-.92 3.56-1.36 5.85-1.36 2.28 0 4.32.47 6.1 1.46l-2.55 3.6c-.76-.38-1.52-.72-2.3-.95-.75-.28-1.5-.38-2.28-.38-1.52 0-2.3.37-2.54 1.18-.26.44 0 .85.25 1.2.5.3 1.53.8 2.8 1.45 1.27.57 2.3 1.12 2.8 1.63.5.5.77 1.08 1.02 1.73 0 .67 0 1.45-.25 2.36zM243.35 27.06c.76 0 1.27.03 1.52.13l-1.27 4.7c-.25-.1-.76-.16-1.27-.16-1.78 0-3.06.4-4.07 1.26-1.28.8-2.04 1.97-2.3 3.46l-2.54 9.37h-5.1l4.85-18.43h3.8v3.1h.27c.76-1.03 1.78-1.88 3.05-2.5 1-.64 1.77-.94 3.05-.94z" stroke="#000" stroke-opacity="0" stroke-width=".9" fill="#252525"/><path d="M45.83 20C41 23.77 36.4 27.53 31.57 31.3l-6.1 22.64h11.2l6.1-22.64h2.55l-3.57 13.88L56 33.88 59.84 20z" stroke="#000" stroke-opacity="0" stroke-width=".34" fill="#c83737"/><path d="M73.57 20L59.32 31.3l-6.1 22.64h11.2z" stroke="#000" stroke-opacity="0" stroke-width=".34" fill="url(#a)"/><path d="M20 60h340v40H20z" stroke="#000" stroke-opacity="0" stroke-width=".5" fill-opacity="0"/><use xlink:href="#b" transform="matrix(1,0,0,1,25.00015316544477,65) translate(0 14.222222222222223)"/><use xlink:href="#c" transform="matrix(1,0,0,1,25.00015316544477,65) translate(89.67901234567904 14.222222222222223)"/><use xlink:href="#d" transform="matrix(1,0,0,1,25.00015316544477,65) translate(170.61728395061732 14.222222222222223)"/><use xlink:href="#e" transform="matrix(1,0,0,1,25.00015316544477,65) translate(181.43209876543213 14.222222222222223)"/><use xlink:href="#f" transform="matrix(1,0,0,1,25.00015316544477,65) translate(227.8024691358025 14.222222222222223)"/><use xlink:href="#g" transform="matrix(1,0,0,1,25.00015316544477,65) translate(0 33.777777777777786)"/><use xlink:href="#h" transform="matrix(1,0,0,1,25.00015316544477,65) translate(69.91358024691358 33.777777777777786)"/><use xlink:href="#i" transform="matrix(1,0,0,1,25.00015316544477,65) translate(90.65432098765433 33.777777777777786)"/><use xlink:href="#j" transform="matrix(1,0,0,1,25.00015316544477,65) translate(214.01851851851853 33.777777777777786)"/><use xlink:href="#k" transform="matrix(1,0,0,1,25.00015316544477,65) translate(223.4814814814815 33.777777777777786)"/><use xlink:href="#l" transform="matrix(1,0,0,1,25.00015316544477,65) translate(238.73456790123458 33.777777777777786)"/><path d="M20 278.64a5 5 0 0 1 5-5h210a5 5 0 0 1 5 5v93a5 5 0 0 1-5 5H25a5 5 0 0 1-5-5z" stroke="#1071e5" stroke-width="2" fill="#edf5ff"/><use xlink:href="#m" transform="matrix(1,0,0,1,28,281.63632779804135) translate(45.42129629629631 47.98888888888889)"/><path d="M320 278.64a5 5 0 0 1 5-5h210a5 5 0 0 1 5 5v93a5 5 0 0 1-5 5H325a5 5 0 0 1-5-5z" stroke="#1071e5" stroke-width="2" fill="#edf5ff"/><use xlink:href="#n" transform="matrix(1,0,0,1,328,281.63632779804135) translate(19.45432098765434 47.98888888888889)"/><use xlink:href="#o" transform="matrix(1,0,0,1,328,281.63632779804135) translate(98.63333333333334 47.98888888888889)"/><path d="M620 278.64a5 5 0 0 1 5-5h210a5 5 0 0 1 5 5v93a5 5 0 0 1-5 5H625a5 5 0 0 1-5-5z" stroke="#1071e5" stroke-width="2" fill="#edf5ff"/><use xlink:href="#p" transform="matrix(1,0,0,1,628,281.63632779804135) translate(59.13734567901236 47.98888888888889)"/><path d="M620 85a5 5 0 0 1 5-5h210a5 5 0 0 1 5 5v93a5 5 0 0 1-5 5H625a5 5 0 0 1-5-5z" stroke="#6f7681" stroke-width="2" fill="#f1f1f1"/><use xlink:href="#q" transform="matrix(1,0,0,1,628.0001531654448,88) translate(30.73888888888891 47.98888888888889)"/><use xlink:href="#r" transform="matrix(1,0,0,1,628.0001531654448,88) translate(122.69876543209875 47.98888888888889)"/><path d="M920 25a5 5 0 0 1 5-5h210a5 5 0 0 1 5 5v33a5 5 0 0 1-5 5H925a5 5 0 0 1-5-5z" stroke="#99000d" stroke-width="2" fill="#fbd7d2"/><use xlink:href="#s" transform="matrix(1,0,0,1,928.0001531654448,27.999999999999993) translate(20.857098765432113 17.988888888888887)"/><use xlink:href="#t" transform="matrix(1,0,0,1,928.0001531654448,27.999999999999993) translate(137.06944444444446 17.988888888888887)"/><path d="M920 145a5 5 0 0 1 5-5h210a5 5 0 0 1 5 5v33a5 5 0 0 1-5 5H925a5 5 0 0 1-5-5z" stroke="#99000d" stroke-width="2" fill="#fbd7d2"/><use xlink:href="#u" transform="matrix(1,0,0,1,928.0001531654448,148) translate(50.9388888888889 17.988888888888887)"/><use xlink:href="#t" transform="matrix(1,0,0,1,928.0001531654448,148) translate(106.98765432098764 17.988888888888887)"/><path d="M920 85a5 5 0 0 1 5-5h210a5 5 0 0 1 5 5v33a5 5 0 0 1-5 5H925a5 5 0 0 1-5-5z" stroke="#99000d" stroke-width="2" fill="#fbd7d2"/><use xlink:href="#v" transform="matrix(1,0,0,1,928.0001531654448,88) translate(52.21697530864198 17.988888888888887)"/><use xlink:href="#t" transform="matrix(1,0,0,1,928.0001531654448,88) translate(105.70956790123456 17.988888888888887)"/><path d="M920 205a5 5 0 0 1 5-5h210a5 5 0 0 1 5 5v33a5 5 0 0 1-5 5H925a5 5 0 0 1-5-5z" stroke="#99000d" stroke-width="2" fill="#fbd7d2"/><use xlink:href="#w" transform="matrix(1,0,0,1,928.0001531654448,208) translate(35.975925925925935 17.988888888888887)"/><use xlink:href="#t" transform="matrix(1,0,0,1,928.0001531654448,208) translate(121.95061728395062 17.988888888888887)"/><path d="M918.03 41.5H880v90h-14.55" stroke="#99000d" stroke-width="2" fill="none"/><path d="M919.03 42.5H918v-2h1.03z" stroke="#99000d" stroke-width=".05" fill="#99000d"/><path d="M842.93 131.5l21.52-12.73v25.46z" stroke="#99000d" stroke-width="2" fill="#fff"/><path d="M918.03 161.5H880v-30h-14.55" stroke="#99000d" stroke-width="2" fill="none"/><path d="M919.03 162.5H918v-2h1.03z" stroke="#99000d" stroke-width=".05" fill="#99000d"/><path d="M842.93 131.5l21.52-12.73v25.46z" stroke="#99000d" stroke-width="2" fill="#fff"/><path d="M918.03 101.5H880v30h-14.55" stroke="#99000d" stroke-width="2" fill="none"/><path d="M919.03 102.5H918v-2h1.03z" stroke="#99000d" stroke-width=".05" fill="#99000d"/><path d="M842.93 131.5l21.52-12.73v25.46z" stroke="#99000d" stroke-width="2" fill="#fff"/><path d="M918.03 221.5H880v-90h-14.55" stroke="#99000d" stroke-width="2" fill="none"/><path d="M919.03 222.5H918v-2h1.03z" stroke="#99000d" stroke-width=".05" fill="#99000d"/><path d="M842.93 131.5l21.52-12.73v25.46z" stroke="#99000d" stroke-width="2" fill="#fff"/><path d="M730 271.67V185.8" stroke="#979ea8" stroke-width="2" fill="none"/><path d="M731 272.67h-2v-1.03h2z" stroke="#979ea8" stroke-width=".05" fill="#979ea8"/><path d="M740.18 203.15L730 185.93l-10.18 17.22M430 271.67V137.1h187.22" stroke="#979ea8" stroke-width="2" fill="none"/><path d="M431 272.67h-2v-1.03h2z" stroke="#979ea8" stroke-width=".05" fill="#979ea8"/><path d="M599.86 147.3l17.2-10.2-17.2-10.17" stroke="#979ea8" stroke-width="2" fill="none"/><path d="M241.97 325.14h75.24" stroke="#1071e5" stroke-width="2" fill="none"/><path d="M242 326.14h-1.03v-2H242z" stroke="#1071e5" stroke-width=".05" fill="#1071e5"/><path d="M299.85 335.32l17.22-10.18-17.22-10.18M541.97 325.14h75.24" stroke="#1071e5" stroke-width="2" fill="none"/><path d="M542 326.14h-1.03v-2H542z" stroke="#1071e5" stroke-width=".05" fill="#1071e5"/><path d="M599.85 335.32l17.22-10.18-17.22-10.18" stroke="#1071e5" stroke-width="2" fill="none"/><path d="M620 446.3a5 5 0 0 1 5-5h210a5 5 0 0 1 5 5v93a5 5 0 0 1-5 5H625a5 5 0 0 1-5-5z" stroke="#6f7681" stroke-width="2" fill="#f1f1f1"/><use xlink:href="#x" transform="matrix(1,0,0,1,628,449.2991758934005) translate(8.107407407407422 47.98888888888889)"/><use xlink:href="#y" transform="matrix(1,0,0,1,628,449.2991758934005) translate(137.4746913580247 47.98888888888889)"/><path d="M320 506.95a5 5 0 0 1 5-5h210a5 5 0 0 1 5 5v33a5 5 0 0 1-5 5H325a5 5 0 0 1-5-5z" stroke="#99000d" stroke-width="2" fill="#fbd7d2"/><use xlink:href="#z" transform="matrix(1,0,0,1,328,509.9487638401008) translate(10.601234567901244 17.988888888888887)"/><path d="M320 446.3a5 5 0 0 1 5-5h210a5 5 0 0 1 5 5v33a5 5 0 0 1-5 5H325a5 5 0 0 1-5-5z" stroke="#99000d" stroke-width="2" fill="#fbd7d2"/><use xlink:href="#A" transform="matrix(1,0,0,1,328,449.2991758934005) translate(78.99444444444445 17.988888888888887)"/><path d="M541.97 462.8H580v30h14.55" stroke="#99000d" stroke-width="2" fill="none"/><path d="M542 463.8h-1.03v-2H542z" stroke="#99000d" stroke-width=".05" fill="#99000d"/><path d="M617.07 492.8l-21.52 12.73v-25.46z" stroke="#99000d" stroke-width="2" fill="#fff"/><path d="M541.97 523.45H580V492.8h14.55" stroke="#99000d" stroke-width="2" fill="none"/><path d="M542 524.45h-1.03v-2H542z" stroke="#99000d" stroke-width=".05" fill="#99000d"/><path d="M617.07 492.8l-21.52 12.73v-25.46z" stroke="#99000d" stroke-width="2" fill="#fff"/><path d="M730 378.36v60.6" stroke="#979ea8" stroke-width="1.5" fill="none"/><path d="M730.75 378.37h-1.5v-.76h1.5z" stroke="#979ea8" stroke-width=".05" fill="#979ea8"/><path d="M719.82 421.64L730 438.86l10.18-17.22" stroke="#979ea8" stroke-width="1.5" fill="none"/><path d="M920 278.64a5 5 0 0 1 5-5h210a5 5 0 0 1 5 5v93a5 5 0 0 1-5 5H925a5 5 0 0 1-5-5z" stroke="#1071e5" stroke-width="2" fill="#edf5ff"/><use xlink:href="#B" transform="matrix(1,0,0,1,928,281.63632779804135) translate(56.02006172839507 47.98888888888889)"/><path d="M841.97 325.14h75.24" stroke="#1071e5" stroke-width="2" fill="none"/><path d="M842 326.14h-1.03v-2H842z" stroke="#1071e5" stroke-width=".05" fill="#1071e5"/><path d="M899.85 335.32l17.22-10.18-17.22-10.18" stroke="#1071e5" stroke-width="2" fill="none"/><path d="M920 446.3a5 5 0 0 1 5-5h210a5 5 0 0 1 5 5v93a5 5 0 0 1-5 5H925a5 5 0 0 1-5-5z" stroke="#6f7681" stroke-width="2" fill="#f1f1f1"/><use xlink:href="#C" transform="matrix(1,0,0,1,928,449.2991758934005) translate(14.965432098765447 47.98888888888889)"/><use xlink:href="#D" transform="matrix(1,0,0,1,928,449.2991758934005) translate(113.15987654320988 47.98888888888889)"/><path d="M1030 378.36v60.6" stroke="#979ea8" stroke-width="1.5" fill="none"/><path d="M1030.75 378.37h-1.5v-.76h1.5z" stroke="#979ea8" stroke-width=".05" fill="#979ea8"/><path d="M1019.82 421.64l10.18 17.22 10.18-17.22" stroke="#979ea8" stroke-width="1.5" fill="none"/><path d="M1220 325a5 5 0 0 1 5-5h210a5 5 0 0 1 5 5v33a5 5 0 0 1-5 5h-210a5 5 0 0 1-5-5z" stroke="#99000d" stroke-width="2" fill="#fbd7d2"/><use xlink:href="#E" transform="matrix(1,0,0,1,1228,328) translate(82.11172839506173 17.988888888888887)"/><path d="M1220 446.3a5 5 0 0 1 5-5h210a5 5 0 0 1 5 5v33a5 5 0 0 1-5 5h-210a5 5 0 0 1-5-5z" stroke="#99000d" stroke-width="2" fill="#fbd7d2"/><use xlink:href="#F" transform="matrix(1,0,0,1,1228,449.2991758934005) translate(62.192283950617295 17.988888888888887)"/><path d="M1220 385.65a5 5 0 0 1 5-5h210a5 5 0 0 1 5 5v33a5 5 0 0 1-5 5h-210a5 5 0 0 1-5-5z" stroke="#99000d" stroke-width="2" fill="#fbd7d2"/><use xlink:href="#G" transform="matrix(1,0,0,1,1228,388.64958794670025) translate(72.79104938271605 17.988888888888887)"/><path d="M1220 506.95a5 5 0 0 1 5-5h210a5 5 0 0 1 5 5v33a5 5 0 0 1-5 5h-210a5 5 0 0 1-5-5z" stroke="#99000d" stroke-width="2" fill="#fbd7d2"/><use xlink:href="#H" transform="matrix(1,0,0,1,1228,509.9487638401008) translate(54.025000000000006 17.988888888888887)"/><path d="M1218.03 341.5H1180v151.3h-14.55" stroke="#99000d" stroke-width="2" fill="none"/><path d="M1219.03 342.5H1218v-2h1.03z" stroke="#99000d" stroke-width=".05" fill="#99000d"/><path d="M1142.93 492.8l21.52-12.73v25.46z" stroke="#99000d" stroke-width="2" fill="#fff"/><path d="M1218.02 397.92H1180v94.88h-14.55" stroke="#99000d" stroke-width="2" fill="none"/><path d="M1219.02 398.92H1218v-2h1.02z" stroke="#99000d" stroke-width=".05" fill="#99000d"/><path d="M1142.93 492.8l21.52-12.73v25.46z" stroke="#99000d" stroke-width="2" fill="#fff"/><path d="M1218.03 462.8H1180v30h-14.55" stroke="#99000d" stroke-width="2" fill="none"/><path d="M1219.03 463.8H1218v-2h1.03z" stroke="#99000d" stroke-width=".05" fill="#99000d"/><path d="M1142.93 492.8l21.52-12.73v25.46z" stroke="#99000d" stroke-width="2" fill="#fff"/><path d="M1218.03 523.45H1180V492.8h-14.55" stroke="#99000d" stroke-width="2" fill="none"/><path d="M1219.03 524.45H1218v-2h1.03z" stroke="#99000d" stroke-width=".05" fill="#99000d"/><path d="M1142.93 492.8l21.52-12.73v25.46z" stroke="#99000d" stroke-width="2" fill="#fff"/><path d="M1220 85a5 5 0 0 1 5-5h210a5 5 0 0 1 5 5v93a5 5 0 0 1-5 5h-210a5 5 0 0 1-5-5z" stroke="#008573" stroke-width="2" fill="#e1f2ef"/><g><use xlink:href="#I" transform="matrix(1,0,0,1,1228,88) translate(34.76018518518519 47.98888888888889)"/><use xlink:href="#J" transform="matrix(1,0,0,1,1228,88) translate(120.73487654320988 47.98888888888889)"/></g><path d="M1141.97 41.5H1180v90h37.2" stroke="#008573" stroke-width="2" fill="none"/><path d="M1142 42.5h-1.03v-2h1.03z" stroke="#008573" stroke-width=".05" fill="#008573"/><path d="M1199.85 141.68l17.22-10.18-17.22-10.18" stroke="#008573" stroke-width="2" fill="none"/><path d="M1141.97 101.5H1180v30h37.2" stroke="#008573" stroke-width="2" fill="none"/><path d="M1142 102.5h-1.03v-2h1.03z" stroke="#008573" stroke-width=".05" fill="#008573"/><path d="M1199.85 141.68l17.22-10.18-17.22-10.18" stroke="#008573" stroke-width="2" fill="none"/><path d="M1141.97 161.5H1180v-30h37.2" stroke="#008573" stroke-width="2" fill="none"/><path d="M1142 162.5h-1.03v-2h1.03z" stroke="#008573" stroke-width=".05" fill="#008573"/><path d="M1199.85 141.68l17.22-10.18-17.22-10.18" stroke="#008573" stroke-width="2" fill="none"/><path d="M1141.97 221.5H1180v-90h37.2" stroke="#008573" stroke-width="2" fill="none"/><path d="M1142 222.5h-1.03v-2h1.03z" stroke="#008573" stroke-width=".05" fill="#008573"/><path d="M1199.85 141.68l17.22-10.18-17.22-10.18" stroke="#008573" stroke-width="2" fill="none"/><defs><linearGradient gradientUnits="userSpaceOnUse" id="a" x1="65.44" y1="20.5" x2="65.44" y2="45.03"><stop offset="0%"/><stop offset="100%" stop-color="#333"/></linearGradient><path fill="#333" d="M186 0v-106H76V0H24v-248h52v99h110v-99h50V0h-50" id="K"/><path fill="#333" d="M25-224v-37h50v37H25zM25 0v-190h50V0H25" id="L"/><path fill="#333" d="M195-6C206 82 75 100 31 46c-4-6-6-13-8-21l49-6c3 16 16 24 34 25 40 0 42-37 40-79-11 22-30 35-61 35-53 0-70-43-70-97 0-56 18-96 73-97 30 0 46 14 59 34l2-30h47zm-90-29c32 0 41-27 41-63 0-35-9-62-40-62-32 0-39 29-40 63 0 36 9 62 39 62" id="M"/><path fill="#333" d="M114-157C55-157 80-60 75 0H25v-261h50l-1 109c12-26 28-41 61-42 86-1 58 113 63 194h-50c-7-57 23-157-34-157" id="N"/><path fill="#333" d="M14-72v-43h91v43H14" id="O"/><path fill="#333" d="M25 0v-261h50V0H25" id="P"/><path fill="#333" d="M185-48c-13 30-37 53-82 52C43 2 14-33 14-96s30-98 90-98c62 0 83 45 84 108H66c0 31 8 55 39 56 18 0 30-7 34-22zm-45-69c5-46-57-63-70-21-2 6-4 13-4 21h74" id="Q"/><path fill="#333" d="M128 0H69L1-190h53L99-40l48-150h52" id="R"/><g id="b"><use transform="matrix(0.04938271604938272,0,0,0.04938271604938272,0,0)" xlink:href="#K"/><use transform="matrix(0.04938271604938272,0,0,0.04938271604938272,12.790123456790125,0)" xlink:href="#L"/><use transform="matrix(0.04938271604938272,0,0,0.04938271604938272,17.7283950617284,0)" xlink:href="#M"/><use transform="matrix(0.04938271604938272,0,0,0.04938271604938272,28.54320987654322,0)" xlink:href="#N"/><use transform="matrix(0.04938271604938272,0,0,0.04938271604938272,39.35802469135803,0)" xlink:href="#O"/><use transform="matrix(0.04938271604938272,0,0,0.04938271604938272,45.23456790123458,0)" xlink:href="#P"/><use transform="matrix(0.04938271604938272,0,0,0.04938271604938272,50.17283950617285,0)" xlink:href="#Q"/><use transform="matrix(0.04938271604938272,0,0,0.04938271604938272,60.0493827160494,0)" xlink:href="#R"/><use transform="matrix(0.04938271604938272,0,0,0.04938271604938272,69.92592592592594,0)" xlink:href="#Q"/><use transform="matrix(0.04938271604938272,0,0,0.04938271604938272,79.80246913580248,0)" xlink:href="#P"/></g><path fill="#333" d="M110-194c64 0 96 36 96 99 0 64-35 99-97 99-61 0-95-36-95-99 0-62 34-99 96-99zm-1 164c35 0 45-28 45-65 0-40-10-65-43-65-34 0-45 26-45 65 0 36 10 65 43 65" id="S"/><path fill="#333" d="M135-150c-39-12-60 13-60 57V0H25l-1-190h47c2 13-1 29 3 40 6-28 27-53 61-41v41" id="T"/><path fill="#333" d="M231 0h-52l-39-155L100 0H48L-1-190h46L77-45c9-52 24-97 36-145h53l37 145 32-145h46" id="U"/><g id="c"><use transform="matrix(0.04938271604938272,0,0,0.04938271604938272,0,0)" xlink:href="#S"/><use transform="matrix(0.04938271604938272,0,0,0.04938271604938272,10.814814814814815,0)" xlink:href="#R"/><use transform="matrix(0.04938271604938272,0,0,0.04938271604938272,20.69135802469136,0)" xlink:href="#Q"/><use transform="matrix(0.04938271604938272,0,0,0.04938271604938272,30.567901234567906,0)" xlink:href="#T"/><use transform="matrix(0.04938271604938272,0,0,0.04938271604938272,37.48148148148149,0)" xlink:href="#R"/><use transform="matrix(0.04938271604938272,0,0,0.04938271604938272,47.35802469135803,0)" xlink:href="#L"/><use transform="matrix(0.04938271604938272,0,0,0.04938271604938272,52.2962962962963,0)" xlink:href="#Q"/><use transform="matrix(0.04938271604938272,0,0,0.04938271604938272,62.17283950617284,0)" xlink:href="#U"/></g><use transform="matrix(0.04938271604938272,0,0,0.04938271604938272,0,0)" xlink:href="#O" id="d"/><path fill="#333" d="M220-157c-53 9-28 100-34 157h-49v-107c1-27-5-49-29-50C55-147 81-57 75 0H25l-1-190h47c2 12-1 28 3 38 10-53 101-56 108 0 13-22 24-43 59-42 82 1 51 116 57 194h-49v-107c-1-25-5-48-29-50" id="V"/><path fill="#333" d="M133-34C117-15 103 5 69 4 32 3 11-16 11-54c-1-60 55-63 116-61 1-26-3-47-28-47-18 1-26 9-28 27l-52-2c7-38 36-58 82-57s74 22 75 68l1 82c-1 14 12 18 25 15v27c-30 8-71 5-69-32zm-48 3c29 0 43-24 42-57-32 0-66-3-65 30 0 17 8 27 23 27" id="W"/><path fill="#333" d="M135-194c87-1 58 113 63 194h-50c-7-57 23-157-34-157-59 0-34 97-39 157H25l-1-190h47c2 12-1 28 3 38 12-26 28-41 61-42" id="X"/><g id="e"><use transform="matrix(0.04938271604938272,0,0,0.04938271604938272,0,0)" xlink:href="#V"/><use transform="matrix(0.04938271604938272,0,0,0.04938271604938272,15.80246913580247,0)" xlink:href="#W"/><use transform="matrix(0.04938271604938272,0,0,0.04938271604938272,25.679012345679016,0)" xlink:href="#L"/><use transform="matrix(0.04938271604938272,0,0,0.04938271604938272,30.617283950617285,0)" xlink:href="#X"/></g><path fill="#333" d="M190-63c-7 42-38 67-86 67-59 0-84-38-90-98-12-110 154-137 174-36l-49 2c-2-19-15-32-35-32-30 0-35 28-38 64-6 74 65 87 74 30" id="Y"/><path fill="#333" d="M137-138c1-29-70-34-71-4 15 46 118 7 119 86 1 83-164 76-172 9l43-7c4 19 20 25 44 25 33 8 57-30 24-41C81-84 22-81 20-136c-2-80 154-74 161-7" id="Z"/><g id="f"><use transform="matrix(0.04938271604938272,0,0,0.04938271604938272,0,0)" xlink:href="#Y"/><use transform="matrix(0.04938271604938272,0,0,0.04938271604938272,9.876543209876544,0)" xlink:href="#P"/><use transform="matrix(0.04938271604938272,0,0,0.04938271604938272,14.814814814814817,0)" xlink:href="#W"/><use transform="matrix(0.04938271604938272,0,0,0.04938271604938272,24.69135802469136,0)" xlink:href="#Z"/><use transform="matrix(0.04938271604938272,0,0,0.04938271604938272,34.567901234567906,0)" xlink:href="#Z"/><use transform="matrix(0.04938271604938272,0,0,0.04938271604938272,44.44444444444445,0)" xlink:href="#Q"/><use transform="matrix(0.04938271604938272,0,0,0.04938271604938272,54.320987654320994,0)" xlink:href="#Z"/></g><path fill="#333" d="M30-248c118-7 216 8 213 122C240-48 200 0 122 0H30v-248zM63-27c89 8 146-16 146-99s-60-101-146-95v194" id="aa"/><path fill="#333" d="M100-194c63 0 86 42 84 106H49c0 40 14 67 53 68 26 1 43-12 49-29l28 8c-11 28-37 45-77 45C44 4 14-33 15-96c1-61 26-98 85-98zm52 81c6-60-76-77-97-28-3 7-6 17-6 28h103" id="ab"/><path fill="#333" d="M135-143c-3-34-86-38-87 0 15 53 115 12 119 90S17 21 10-45l28-5c4 36 97 45 98 0-10-56-113-15-118-90-4-57 82-63 122-42 12 7 21 19 24 35" id="ac"/><path fill="#333" d="M24-231v-30h32v30H24zM24 0v-190h32V0H24" id="ad"/><path fill="#333" d="M177-190C167-65 218 103 67 71c-23-6-38-20-44-43l32-5c15 47 100 32 89-28v-30C133-14 115 1 83 1 29 1 15-40 15-95c0-56 16-97 71-98 29-1 48 16 59 35 1-10 0-23 2-32h30zM94-22c36 0 50-32 50-73 0-42-14-75-50-75-39 0-46 34-46 75s6 73 46 73" id="ae"/><path fill="#333" d="M117-194c89-4 53 116 60 194h-32v-121c0-31-8-49-39-48C34-167 62-67 57 0H25l-1-190h30c1 10-1 24 2 32 11-22 29-35 61-36" id="af"/><path fill="#333" d="M85-194c31 0 48 13 60 33l-1-100h32l1 261h-30c-2-10 0-23-3-31C134-8 116 4 85 4 32 4 16-35 15-94c0-66 23-100 70-100zm9 24c-40 0-46 34-46 75 0 40 6 74 45 74 42 0 51-32 51-76 0-42-9-74-50-73" id="ag"/><g id="g"><use transform="matrix(0.04320987654320988,0,0,0.04320987654320988,0,0)" xlink:href="#aa"/><use transform="matrix(0.04320987654320988,0,0,0.04320987654320988,11.19135802469136,0)" xlink:href="#ab"/><use transform="matrix(0.04320987654320988,0,0,0.04320987654320988,19.833333333333336,0)" xlink:href="#ac"/><use transform="matrix(0.04320987654320988,0,0,0.04320987654320988,27.611111111111114,0)" xlink:href="#ad"/><use transform="matrix(0.04320987654320988,0,0,0.04320987654320988,31.024691358024693,0)" xlink:href="#ae"/><use transform="matrix(0.04320987654320988,0,0,0.04320987654320988,39.66666666666667,0)" xlink:href="#af"/><use transform="matrix(0.04320987654320988,0,0,0.04320987654320988,48.308641975308646,0)" xlink:href="#ab"/><use transform="matrix(0.04320987654320988,0,0,0.04320987654320988,56.95061728395062,0)" xlink:href="#ag"/></g><path fill="#333" d="M115-194c53 0 69 39 70 98 0 66-23 100-70 100C84 3 66-7 56-30L54 0H23l1-261h32v101c10-23 28-34 59-34zm-8 174c40 0 45-34 45-75 0-40-5-75-45-74-42 0-51 32-51 76 0 43 10 73 51 73" id="ah"/><path fill="#333" d="M179-190L93 31C79 59 56 82 12 73V49c39 6 53-20 64-50L1-190h34L92-34l54-156h33" id="ai"/><g id="h"><use transform="matrix(0.04320987654320988,0,0,0.04320987654320988,0,0)" xlink:href="#ah"/><use transform="matrix(0.04320987654320988,0,0,0.04320987654320988,8.641975308641976,0)" xlink:href="#ai"/></g><path fill="#333" d="M100-194c62-1 85 37 85 99 1 63-27 99-86 99S16-35 15-95c0-66 28-99 85-99zM99-20c44 1 53-31 53-75 0-43-8-75-51-75s-53 32-53 75 10 74 51 75" id="aj"/><path fill="#333" d="M206 0h-36l-40-164L89 0H53L-1-190h32L70-26l43-164h34l41 164 42-164h31" id="ak"/><path fill="#333" d="M141-36C126-15 110 5 73 4 37 3 15-17 15-53c-1-64 63-63 125-63 3-35-9-54-41-54-24 1-41 7-42 31l-33-3c5-37 33-52 76-52 45 0 72 20 72 64v82c-1 20 7 32 28 27v20c-31 9-61-2-59-35zM48-53c0 20 12 33 32 33 41-3 63-29 60-74-43 2-92-5-92 41" id="al"/><path fill="#333" d="M24 0v-261h32V0H24" id="am"/><path fill="#333" d="M33 0v-38h34V0H33" id="an"/><path fill="#333" d="M115-194c55 1 70 41 70 98S169 2 115 4C84 4 66-9 55-30l1 105H24l-1-265h31l2 30c10-21 28-34 59-34zm-8 174c40 0 45-34 45-75s-6-73-45-74c-42 0-51 32-51 76 0 43 10 73 51 73" id="ao"/><path fill="#333" d="M108 0H70L1-190h34L89-25l56-165h34" id="ap"/><path fill="#333" d="M96-169c-40 0-48 33-48 73s9 75 48 75c24 0 41-14 43-38l32 2c-6 37-31 61-74 61-59 0-76-41-82-99-10-93 101-131 147-64 4 7 5 14 7 22l-32 3c-4-21-16-35-41-35" id="aq"/><path fill="#333" d="M24-231v-30h32v30H24zM-9 49c24 4 33-6 33-30v-209h32V24c2 40-23 58-65 49V49" id="ar"/><path fill="#333" d="M114-163C36-179 61-72 57 0H25l-1-190h30c1 12-1 29 2 39 6-27 23-49 58-41v29" id="as"/><g id="i"><use transform="matrix(0.04320987654320988,0,0,0.04320987654320988,0,0)" xlink:href="#aj"/><use transform="matrix(0.04320987654320988,0,0,0.04320987654320988,8.641975308641976,0)" xlink:href="#ac"/><use transform="matrix(0.04320987654320988,0,0,0.04320987654320988,16.419753086419753,0)" xlink:href="#ak"/><use transform="matrix(0.04320987654320988,0,0,0.04320987654320988,27.611111111111114,0)" xlink:href="#al"/><use transform="matrix(0.04320987654320988,0,0,0.04320987654320988,36.25308641975309,0)" xlink:href="#am"/><use transform="matrix(0.04320987654320988,0,0,0.04320987654320988,39.66666666666667,0)" xlink:href="#ag"/><use transform="matrix(0.04320987654320988,0,0,0.04320987654320988,48.308641975308646,0)" xlink:href="#aj"/><use transform="matrix(0.04320987654320988,0,0,0.04320987654320988,56.95061728395062,0)" xlink:href="#an"/><use transform="matrix(0.04320987654320988,0,0,0.04320987654320988,61.27160493827161,0)" xlink:href="#ah"/><use transform="matrix(0.04320987654320988,0,0,0.04320987654320988,69.91358024691358,0)" xlink:href="#al"/><use transform="matrix(0.04320987654320988,0,0,0.04320987654320988,78.55555555555556,0)" xlink:href="#ao"/><use transform="matrix(0.04320987654320988,0,0,0.04320987654320988,87.19753086419753,0)" xlink:href="#ap"/><use transform="matrix(0.04320987654320988,0,0,0.04320987654320988,94.97530864197532,0)" xlink:href="#ad"/><use transform="matrix(0.04320987654320988,0,0,0.04320987654320988,98.3888888888889,0)" xlink:href="#aq"/><use transform="matrix(0.04320987654320988,0,0,0.04320987654320988,106.16666666666667,0)" xlink:href="#an"/><use transform="matrix(0.04320987654320988,0,0,0.04320987654320988,110.48765432098767,0)" xlink:href="#ar"/><use transform="matrix(0.04320987654320988,0,0,0.04320987654320988,113.90123456790124,0)" xlink:href="#as"/></g><path fill="#333" d="M16-82v-28h88v28H16" id="at"/><use transform="matrix(0.04320987654320988,0,0,0.04320987654320988,0,0)" xlink:href="#at" id="j"/><g id="k"><use transform="matrix(0.04320987654320988,0,0,0.04320987654320988,0,0)" xlink:href="#ap"/><use transform="matrix(0.04320987654320988,0,0,0.04320987654320988,6.611111111111112,0)" xlink:href="#an"/></g><path fill="#333" d="M101-251c82-7 93 87 43 132L82-64C71-53 59-42 53-27h129V0H18c2-99 128-94 128-182 0-28-16-43-45-43s-46 15-49 41l-32-3c6-41 34-60 81-64" id="au"/><path fill="#333" d="M160-131c35 5 61 23 61 61C221 17 115-2 30 0v-248c76 3 177-17 177 60 0 33-19 50-47 57zm-97-11c50-1 110 9 110-42 0-47-63-36-110-37v79zm0 115c55-2 124 14 124-45 0-56-70-42-124-44v89" id="av"/><g id="l"><use transform="matrix(0.04320987654320988,0,0,0.04320987654320988,0,0)" xlink:href="#au"/><use transform="matrix(0.04320987654320988,0,0,0.04320987654320988,8.641975308641976,0)" xlink:href="#an"/><use transform="matrix(0.04320987654320988,0,0,0.04320987654320988,12.962962962962964,0)" xlink:href="#au"/><use transform="matrix(0.04320987654320988,0,0,0.04320987654320988,21.604938271604944,0)" xlink:href="#at"/><use transform="matrix(0.04320987654320988,0,0,0.04320987654320988,26.746913580246915,0)" xlink:href="#av"/></g><path d="M169-182c-1-43-94-46-97-3 18 66 151 10 154 114 3 95-165 93-204 36-6-8-10-19-12-30l50-8c3 46 112 56 116 5-17-69-150-10-154-114-4-87 153-88 188-35 5 8 8 18 10 28" id="aw"/><path d="M115-3C79 11 28 4 28-45v-112H4v-33h27l15-45h31v45h36v33H77v99c-1 23 16 31 38 25v30" id="ax"/><path d="M110-194c64 0 96 36 96 99 0 64-35 99-97 99-61 0-95-36-95-99 0-62 34-99 96-99zm-1 164c35 0 45-28 45-65 0-40-10-65-43-65-34 0-45 26-45 65 0 36 10 65 43 65" id="ay"/><path d="M135-194c53 0 70 44 70 98 0 56-19 98-73 100-31 1-45-17-59-34 3 33 2 69 2 105H25l-1-265h48c2 10 0 23 3 31 11-24 29-35 60-35zM114-30c33 0 39-31 40-66 0-38-9-64-40-64-56 0-55 130 0 130" id="az"/><path d="M231 0h-52l-39-155L100 0H48L-1-190h46L77-45c9-52 24-97 36-145h53l37 145 32-145h46" id="aA"/><path d="M133-34C117-15 103 5 69 4 32 3 11-16 11-54c-1-60 55-63 116-61 1-26-3-47-28-47-18 1-26 9-28 27l-52-2c7-38 36-58 82-57s74 22 75 68l1 82c-1 14 12 18 25 15v27c-30 8-71 5-69-32zm-48 3c29 0 43-24 42-57-32 0-66-3-65 30 0 17 8 27 23 27" id="aB"/><path d="M190-63c-7 42-38 67-86 67-59 0-84-38-90-98-12-110 154-137 174-36l-49 2c-2-19-15-32-35-32-30 0-35 28-38 64-6 74 65 87 74 30" id="aC"/><path d="M114-157C55-157 80-60 75 0H25v-261h50l-1 109c12-26 28-41 61-42 86-1 58 113 63 194h-50c-7-57 23-157-34-157" id="aD"/><g id="m"><use transform="matrix(0.06234567901234567,0,0,0.06234567901234567,0,0)" xlink:href="#aw"/><use transform="matrix(0.06234567901234567,0,0,0.06234567901234567,14.96296296296296,0)" xlink:href="#ax"/><use transform="matrix(0.06234567901234567,0,0,0.06234567901234567,22.382098765432094,0)" xlink:href="#ay"/><use transform="matrix(0.06234567901234567,0,0,0.06234567901234567,36.035802469135795,0)" xlink:href="#az"/><use transform="matrix(0.06234567901234567,0,0,0.06234567901234567,49.6895061728395,0)" xlink:href="#aA"/><use transform="matrix(0.06234567901234567,0,0,0.06234567901234567,67.14629629629628,0)" xlink:href="#aB"/><use transform="matrix(0.06234567901234567,0,0,0.06234567901234567,79.61543209876541,0)" xlink:href="#ax"/><use transform="matrix(0.06234567901234567,0,0,0.06234567901234567,87.03456790123454,0)" xlink:href="#aC"/><use transform="matrix(0.06234567901234567,0,0,0.06234567901234567,99.50370370370368,0)" xlink:href="#aD"/></g><path d="M136-208V0H84v-208H4v-40h212v40h-80" id="aE"/><path d="M25-224v-37h50v37H25zM25 0v-190h50V0H25" id="aF"/><path d="M220-157c-53 9-28 100-34 157h-49v-107c1-27-5-49-29-50C55-147 81-57 75 0H25l-1-190h47c2 12-1 28 3 38 10-53 101-56 108 0 13-22 24-43 59-42 82 1 51 116 57 194h-49v-107c-1-25-5-48-29-50" id="aG"/><path d="M135-194c87-1 58 113 63 194h-50c-7-57 23-157-34-157-59 0-34 97-39 157H25l-1-190h47c2 12-1 28 3 38 12-26 28-41 61-42" id="aH"/><path d="M195-6C206 82 75 100 31 46c-4-6-6-13-8-21l49-6c3 16 16 24 34 25 40 0 42-37 40-79-11 22-30 35-61 35-53 0-70-43-70-97 0-56 18-96 73-97 30 0 46 14 59 34l2-30h47zm-90-29c32 0 41-27 41-63 0-35-9-62-40-62-32 0-39 29-40 63 0 36 9 62 39 62" id="aI"/><g id="n"><use transform="matrix(0.06234567901234567,0,0,0.06234567901234567,0,0)" xlink:href="#aE"/><use transform="matrix(0.06234567901234567,0,0,0.06234567901234567,13.217283950617283,0)" xlink:href="#aF"/><use transform="matrix(0.06234567901234567,0,0,0.06234567901234567,19.45185185185185,0)" xlink:href="#aG"/><use transform="matrix(0.06234567901234567,0,0,0.06234567901234567,39.40246913580246,0)" xlink:href="#aF"/><use transform="matrix(0.06234567901234567,0,0,0.06234567901234567,45.63703703703703,0)" xlink:href="#aH"/><use transform="matrix(0.06234567901234567,0,0,0.06234567901234567,59.29074074074073,0)" xlink:href="#aI"/></g><path d="M185-48c-13 30-37 53-82 52C43 2 14-33 14-96s30-98 90-98c62 0 83 45 84 108H66c0 31 8 55 39 56 18 0 30-7 34-22zm-45-69c5-46-57-63-70-21-2 6-4 13-4 21h74" id="aJ"/><path d="M137-138c1-29-70-34-71-4 15 46 118 7 119 86 1 83-164 76-172 9l43-7c4 19 20 25 44 25 33 8 57-30 24-41C81-84 22-81 20-136c-2-80 154-74 161-7" id="aK"/><g id="o"><use transform="matrix(0.06234567901234567,0,0,0.06234567901234567,0,0)" xlink:href="#aw"/><use transform="matrix(0.06234567901234567,0,0,0.06234567901234567,14.96296296296296,0)" xlink:href="#aJ"/><use transform="matrix(0.06234567901234567,0,0,0.06234567901234567,27.432098765432094,0)" xlink:href="#aK"/><use transform="matrix(0.06234567901234567,0,0,0.06234567901234567,39.90123456790123,0)" xlink:href="#aK"/><use transform="matrix(0.06234567901234567,0,0,0.06234567901234567,52.37037037037036,0)" xlink:href="#aF"/><use transform="matrix(0.06234567901234567,0,0,0.06234567901234567,58.60493827160492,0)" xlink:href="#ay"/><use transform="matrix(0.06234567901234567,0,0,0.06234567901234567,72.25864197530862,0)" xlink:href="#aH"/></g><path d="M67-125c0 53 21 87 73 88 37 1 54-22 65-47l45 17C233-25 199 4 140 4 58 4 20-42 15-125 8-235 124-281 211-232c18 10 29 29 36 50l-46 12c-8-25-30-41-62-41-52 0-71 34-72 86" id="aL"/><path d="M85 4C-2 5 27-109 22-190h50c7 57-23 150 33 157 60-5 35-97 40-157h50l1 190h-47c-2-12 1-28-3-38-12 25-28 42-61 42" id="aM"/><path d="M135-150c-39-12-60 13-60 57V0H25l-1-190h47c2 13-1 29 3 40 6-28 27-53 61-41v41" id="aN"/><g id="p"><use transform="matrix(0.06234567901234567,0,0,0.06234567901234567,0,0)" xlink:href="#aL"/><use transform="matrix(0.06234567901234567,0,0,0.06234567901234567,16.147530864197527,0)" xlink:href="#ay"/><use transform="matrix(0.06234567901234567,0,0,0.06234567901234567,29.80123456790123,0)" xlink:href="#aM"/><use transform="matrix(0.06234567901234567,0,0,0.06234567901234567,43.45493827160493,0)" xlink:href="#aH"/><use transform="matrix(0.06234567901234567,0,0,0.06234567901234567,57.10864197530863,0)" xlink:href="#ax"/><use transform="matrix(0.06234567901234567,0,0,0.06234567901234567,64.52777777777776,0)" xlink:href="#aJ"/><use transform="matrix(0.06234567901234567,0,0,0.06234567901234567,76.99691358024688,0)" xlink:href="#aN"/></g><g id="q"><use transform="matrix(0.06234567901234567,0,0,0.06234567901234567,0,0)" xlink:href="#aL"/><use transform="matrix(0.06234567901234567,0,0,0.06234567901234567,16.147530864197527,0)" xlink:href="#ay"/><use transform="matrix(0.06234567901234567,0,0,0.06234567901234567,29.80123456790123,0)" xlink:href="#aM"/><use transform="matrix(0.06234567901234567,0,0,0.06234567901234567,43.45493827160493,0)" xlink:href="#aH"/><use transform="matrix(0.06234567901234567,0,0,0.06234567901234567,57.10864197530863,0)" xlink:href="#ax"/><use transform="matrix(0.06234567901234567,0,0,0.06234567901234567,64.52777777777776,0)" xlink:href="#aJ"/><use transform="matrix(0.06234567901234567,0,0,0.06234567901234567,76.99691358024688,0)" xlink:href="#aN"/></g><path d="M123 10C108 53 80 86 19 72V37c35 8 53-11 59-39L3-190h52l48 148c12-52 28-100 44-148h51" id="aO"/><g id="r"><use transform="matrix(0.06234567901234567,0,0,0.06234567901234567,0,0)" xlink:href="#aE"/><use transform="matrix(0.06234567901234567,0,0,0.06234567901234567,11.970370370370368,0)" xlink:href="#aO"/><use transform="matrix(0.06234567901234567,0,0,0.06234567901234567,24.4395061728395,0)" xlink:href="#az"/><use transform="matrix(0.06234567901234567,0,0,0.06234567901234567,38.0932098765432,0)" xlink:href="#aJ"/></g><path d="M275 0h-61l-44-196L126 0H64L0-248h53L97-49l45-199h58l43 199 44-199h52" id="aP"/><path d="M25 0v-261h50V0H25" id="aQ"/><path d="M14-72v-43h91v43H14" id="aR"/><path d="M147 0L96-86 75-71V0H25v-261h50v150l67-79h53l-66 74L201 0h-54" id="aS"/><g id="s"><use transform="matrix(0.06234567901234567,0,0,0.06234567901234567,0,0)" xlink:href="#aP"/><use transform="matrix(0.06234567901234567,0,0,0.06234567901234567,20.32469135802469,0)" xlink:href="#aB"/><use transform="matrix(0.06234567901234567,0,0,0.06234567901234567,32.79382716049382,0)" xlink:href="#aQ"/><use transform="matrix(0.06234567901234567,0,0,0.06234567901234567,39.02839506172839,0)" xlink:href="#aQ"/><use transform="matrix(0.06234567901234567,0,0,0.06234567901234567,45.26296296296296,0)" xlink:href="#aR"/><use transform="matrix(0.06234567901234567,0,0,0.06234567901234567,52.682098765432094,0)" xlink:href="#aC"/><use transform="matrix(0.06234567901234567,0,0,0.06234567901234567,65.15123456790123,0)" xlink:href="#aQ"/><use transform="matrix(0.06234567901234567,0,0,0.06234567901234567,71.3858024691358,0)" xlink:href="#ay"/><use transform="matrix(0.06234567901234567,0,0,0.06234567901234567,85.0395061728395,0)" xlink:href="#aC"/><use transform="matrix(0.06234567901234567,0,0,0.06234567901234567,97.50864197530862,0)" xlink:href="#aS"/></g><g id="t"><use transform="matrix(0.06234567901234567,0,0,0.06234567901234567,0,0)" xlink:href="#ax"/><use transform="matrix(0.06234567901234567,0,0,0.06234567901234567,7.4191358024691345,0)" xlink:href="#aF"/><use transform="matrix(0.06234567901234567,0,0,0.06234567901234567,13.653703703703702,0)" xlink:href="#aG"/><use transform="matrix(0.06234567901234567,0,0,0.06234567901234567,33.60432098765432,0)" xlink:href="#aJ"/></g><path d="M238-95c0 69-44 99-111 99C63 4 22-25 22-93v-155h51v151c-1 38 19 59 55 60 90 1 49-130 58-211h52v153" id="aT"/><g id="u"><use transform="matrix(0.06234567901234567,0,0,0.06234567901234567,0,0)" xlink:href="#aT"/><use transform="matrix(0.06234567901234567,0,0,0.06234567901234567,16.147530864197527,0)" xlink:href="#aK"/><use transform="matrix(0.06234567901234567,0,0,0.06234567901234567,28.61666666666666,0)" xlink:href="#aJ"/><use transform="matrix(0.06234567901234567,0,0,0.06234567901234567,41.08580246913579,0)" xlink:href="#aN"/></g><path d="M24-248c93 1 206-16 204 79-1 75-69 88-152 82V0H24v-248zm52 121c47 0 100 7 100-41 0-47-54-39-100-39v80" id="aU"/><g id="v"><use transform="matrix(0.06234567901234567,0,0,0.06234567901234567,0,0)" xlink:href="#aL"/><use transform="matrix(0.06234567901234567,0,0,0.06234567901234567,16.147530864197527,0)" xlink:href="#aU"/><use transform="matrix(0.06234567901234567,0,0,0.06234567901234567,31.11049382716049,0)" xlink:href="#aT"/></g><g id="w"><use transform="matrix(0.06234567901234567,0,0,0.06234567901234567,0,0)" xlink:href="#aw"/><use transform="matrix(0.06234567901234567,0,0,0.06234567901234567,14.96296296296296,0)" xlink:href="#aO"/><use transform="matrix(0.06234567901234567,0,0,0.06234567901234567,27.432098765432094,0)" xlink:href="#aK"/><use transform="matrix(0.06234567901234567,0,0,0.06234567901234567,39.90123456790123,0)" xlink:href="#ax"/><use transform="matrix(0.06234567901234567,0,0,0.06234567901234567,47.32037037037036,0)" xlink:href="#aJ"/><use transform="matrix(0.06234567901234567,0,0,0.06234567901234567,59.789506172839495,0)" xlink:href="#aG"/></g><path d="M128 0H69L1-190h53L99-40l48-150h52" id="aV"/><g id="x"><use transform="matrix(0.06234567901234567,0,0,0.06234567901234567,0,0)" xlink:href="#aL"/><use transform="matrix(0.06234567901234567,0,0,0.06234567901234567,16.147530864197527,0)" xlink:href="#ay"/><use transform="matrix(0.06234567901234567,0,0,0.06234567901234567,29.80123456790123,0)" xlink:href="#aH"/><use transform="matrix(0.06234567901234567,0,0,0.06234567901234567,43.45493827160493,0)" xlink:href="#aV"/><use transform="matrix(0.06234567901234567,0,0,0.06234567901234567,55.92407407407406,0)" xlink:href="#aJ"/><use transform="matrix(0.06234567901234567,0,0,0.06234567901234567,68.3932098765432,0)" xlink:href="#aN"/><use transform="matrix(0.06234567901234567,0,0,0.06234567901234567,77.12160493827159,0)" xlink:href="#aK"/><use transform="matrix(0.06234567901234567,0,0,0.06234567901234567,89.59074074074073,0)" xlink:href="#aF"/><use transform="matrix(0.06234567901234567,0,0,0.06234567901234567,95.8253086419753,0)" xlink:href="#ay"/><use transform="matrix(0.06234567901234567,0,0,0.06234567901234567,109.479012345679,0)" xlink:href="#aH"/></g><path d="M230 0l2-204L168 0h-37L68-204 70 0H24v-248h70l56 185 57-185h69V0h-46" id="aW"/><path d="M88-194c31-1 46 15 58 34l-1-101h50l1 261h-48c-2-10 0-23-3-31C134-8 116 4 84 4 32 4 16-41 15-95c0-56 19-97 73-99zm17 164c33 0 40-30 41-66 1-37-9-64-41-64s-38 30-39 65c0 43 13 65 39 65" id="aX"/><g id="y"><use transform="matrix(0.06234567901234567,0,0,0.06234567901234567,0,0)" xlink:href="#aW"/><use transform="matrix(0.06234567901234567,0,0,0.06234567901234567,18.641358024691353,0)" xlink:href="#ay"/><use transform="matrix(0.06234567901234567,0,0,0.06234567901234567,32.295061728395055,0)" xlink:href="#aX"/><use transform="matrix(0.06234567901234567,0,0,0.06234567901234567,45.94876543209875,0)" xlink:href="#aJ"/></g><path d="M24-248c120-7 223 5 221 122C244-46 201 0 124 0H24v-248zM76-40c74 7 117-18 117-86 0-67-45-88-117-82v168" id="aY"/><path d="M135-194c52 0 70 43 70 98 0 56-19 99-73 100-30 1-46-15-58-35L72 0H24l1-261h50v104c11-23 29-37 60-37zM114-30c31 0 40-27 40-66 0-37-7-63-39-63s-41 28-41 65c0 36 8 64 40 64" id="aZ"/><g id="z"><use transform="matrix(0.06234567901234567,0,0,0.06234567901234567,0,0)" xlink:href="#aY"/><use transform="matrix(0.06234567901234567,0,0,0.06234567901234567,16.147530864197527,0)" xlink:href="#ay"/><use transform="matrix(0.06234567901234567,0,0,0.06234567901234567,29.80123456790123,0)" xlink:href="#aM"/><use transform="matrix(0.06234567901234567,0,0,0.06234567901234567,43.45493827160493,0)" xlink:href="#aZ"/><use transform="matrix(0.06234567901234567,0,0,0.06234567901234567,57.10864197530863,0)" xlink:href="#aQ"/><use transform="matrix(0.06234567901234567,0,0,0.06234567901234567,63.3432098765432,0)" xlink:href="#aJ"/><use transform="matrix(0.06234567901234567,0,0,0.06234567901234567,75.81234567901234,0)" xlink:href="#aR"/><use transform="matrix(0.06234567901234567,0,0,0.06234567901234567,83.23148148148147,0)" xlink:href="#az"/><use transform="matrix(0.06234567901234567,0,0,0.06234567901234567,96.88518518518516,0)" xlink:href="#aN"/><use transform="matrix(0.06234567901234567,0,0,0.06234567901234567,105.61358024691356,0)" xlink:href="#aJ"/><use transform="matrix(0.06234567901234567,0,0,0.06234567901234567,118.0827160493827,0)" xlink:href="#aC"/><use transform="matrix(0.06234567901234567,0,0,0.06234567901234567,130.55185185185184,0)" xlink:href="#aF"/><use transform="matrix(0.06234567901234567,0,0,0.06234567901234567,136.7864197530864,0)" xlink:href="#aK"/><use transform="matrix(0.06234567901234567,0,0,0.06234567901234567,149.25555555555553,0)" xlink:href="#aF"/><use transform="matrix(0.06234567901234567,0,0,0.06234567901234567,155.4901234567901,0)" xlink:href="#ay"/><use transform="matrix(0.06234567901234567,0,0,0.06234567901234567,169.1438271604938,0)" xlink:href="#aH"/></g><path d="M76-208v77h127v40H76V0H24v-248h183v40H76" id="ba"/><g id="A"><use transform="matrix(0.06234567901234567,0,0,0.06234567901234567,0,0)" xlink:href="#ba"/><use transform="matrix(0.06234567901234567,0,0,0.06234567901234567,13.653703703703702,0)" xlink:href="#aB"/><use transform="matrix(0.06234567901234567,0,0,0.06234567901234567,26.122839506172834,0)" xlink:href="#aK"/><use transform="matrix(0.06234567901234567,0,0,0.06234567901234567,38.59197530864196,0)" xlink:href="#ax"/></g><g id="B"><use transform="matrix(0.06234567901234567,0,0,0.06234567901234567,0,0)" xlink:href="#aY"/><use transform="matrix(0.06234567901234567,0,0,0.06234567901234567,16.147530864197527,0)" xlink:href="#aM"/><use transform="matrix(0.06234567901234567,0,0,0.06234567901234567,29.80123456790123,0)" xlink:href="#aN"/><use transform="matrix(0.06234567901234567,0,0,0.06234567901234567,38.529629629629625,0)" xlink:href="#aB"/><use transform="matrix(0.06234567901234567,0,0,0.06234567901234567,50.99876543209876,0)" xlink:href="#ax"/><use transform="matrix(0.06234567901234567,0,0,0.06234567901234567,58.41790123456789,0)" xlink:href="#aF"/><use transform="matrix(0.06234567901234567,0,0,0.06234567901234567,64.65246913580246,0)" xlink:href="#ay"/><use transform="matrix(0.06234567901234567,0,0,0.06234567901234567,78.30617283950616,0)" xlink:href="#aH"/></g><g id="C"><use transform="matrix(0.06234567901234567,0,0,0.06234567901234567,0,0)" xlink:href="#aY"/><use transform="matrix(0.06234567901234567,0,0,0.06234567901234567,16.147530864197527,0)" xlink:href="#aM"/><use transform="matrix(0.06234567901234567,0,0,0.06234567901234567,29.80123456790123,0)" xlink:href="#aN"/><use transform="matrix(0.06234567901234567,0,0,0.06234567901234567,38.529629629629625,0)" xlink:href="#aB"/><use transform="matrix(0.06234567901234567,0,0,0.06234567901234567,50.99876543209876,0)" xlink:href="#ax"/><use transform="matrix(0.06234567901234567,0,0,0.06234567901234567,58.41790123456789,0)" xlink:href="#aF"/><use transform="matrix(0.06234567901234567,0,0,0.06234567901234567,64.65246913580246,0)" xlink:href="#ay"/><use transform="matrix(0.06234567901234567,0,0,0.06234567901234567,78.30617283950616,0)" xlink:href="#aH"/></g><g id="D"><use transform="matrix(0.06234567901234567,0,0,0.06234567901234567,0,0)" xlink:href="#ba"/><use transform="matrix(0.06234567901234567,0,0,0.06234567901234567,13.653703703703702,0)" xlink:href="#ay"/><use transform="matrix(0.06234567901234567,0,0,0.06234567901234567,27.307407407407403,0)" xlink:href="#aN"/><use transform="matrix(0.06234567901234567,0,0,0.06234567901234567,36.035802469135795,0)" xlink:href="#aG"/><use transform="matrix(0.06234567901234567,0,0,0.06234567901234567,55.98641975308641,0)" xlink:href="#aB"/><use transform="matrix(0.06234567901234567,0,0,0.06234567901234567,68.45555555555555,0)" xlink:href="#ax"/></g><g id="E"><use transform="matrix(0.06234567901234567,0,0,0.06234567901234567,0,0)" xlink:href="#ba"/><use transform="matrix(0.06234567901234567,0,0,0.06234567901234567,13.653703703703702,0)" xlink:href="#aM"/><use transform="matrix(0.06234567901234567,0,0,0.06234567901234567,27.307407407407403,0)" xlink:href="#aQ"/><use transform="matrix(0.06234567901234567,0,0,0.06234567901234567,33.541975308641966,0)" xlink:href="#aQ"/></g><g id="F"><use transform="matrix(0.06234567901234567,0,0,0.06234567901234567,0,0)" xlink:href="#aw"/><use transform="matrix(0.06234567901234567,0,0,0.06234567901234567,14.96296296296296,0)" xlink:href="#aD"/><use transform="matrix(0.06234567901234567,0,0,0.06234567901234567,28.61666666666666,0)" xlink:href="#ay"/><use transform="matrix(0.06234567901234567,0,0,0.06234567901234567,42.27037037037036,0)" xlink:href="#aN"/><use transform="matrix(0.06234567901234567,0,0,0.06234567901234567,50.99876543209875,0)" xlink:href="#ax"/><use transform="matrix(0.06234567901234567,0,0,0.06234567901234567,58.417901234567886,0)" xlink:href="#aJ"/><use transform="matrix(0.06234567901234567,0,0,0.06234567901234567,70.88703703703702,0)" xlink:href="#aN"/></g><g id="G"><use transform="matrix(0.06234567901234567,0,0,0.06234567901234567,0,0)" xlink:href="#aw"/><use transform="matrix(0.06234567901234567,0,0,0.06234567901234567,14.96296296296296,0)" xlink:href="#aD"/><use transform="matrix(0.06234567901234567,0,0,0.06234567901234567,28.61666666666666,0)" xlink:href="#ay"/><use transform="matrix(0.06234567901234567,0,0,0.06234567901234567,42.27037037037036,0)" xlink:href="#aN"/><use transform="matrix(0.06234567901234567,0,0,0.06234567901234567,50.99876543209875,0)" xlink:href="#ax"/></g><path d="M24 0v-248h52V0H24" id="bb"/><path d="M140-251c80 0 125 45 125 126S219 4 139 4C58 4 15-44 15-125s44-126 125-126zm-1 214c52 0 73-35 73-88 0-50-21-86-72-86-52 0-73 35-73 86s22 88 72 88" id="bc"/><path d="M138-131c27 9 52 24 51 61 0 53-36 74-89 74S11-19 11-69c0-35 22-54 51-61-78-25-46-121 38-121 51 0 83 19 83 66 0 30-18 49-45 54zm-38-16c24 0 32-13 32-36 1-23-11-34-32-34-22 0-33 12-32 34 0 22 9 36 32 36zm1 116c27 0 37-17 37-43 0-25-13-39-39-39-24 0-37 15-37 40 0 27 11 42 39 42" id="bd"/><path d="M115-159c48 0 72 30 72 78 0 54-30 85-83 85-64 0-91-50-91-122 0-98 58-163 141-120 15 8 21 24 27 44l-47 6c-5-31-48-31-61-4-7 14-11 33-11 60 9-17 28-27 53-27zM102-35c24 0 36-20 36-45s-11-43-37-43c-23 0-36 14-36 38 0 27 11 50 37 50" id="be"/><path d="M101-251c68 0 84 54 84 127C185-50 166 4 99 4S15-52 14-124c-1-75 17-127 87-127zm-1 216c37-5 36-46 36-89s4-89-36-89c-39 0-36 45-36 89 0 43-3 85 36 89" id="bf"/><path d="M23 0v-37h61v-169l-59 37v-38l62-41h46v211h57V0H23" id="bg"/><g id="H"><use transform="matrix(0.06234567901234567,0,0,0.06234567901234567,0,0)" xlink:href="#bb"/><use transform="matrix(0.06234567901234567,0,0,0.06234567901234567,6.234567901234566,0)" xlink:href="#aw"/><use transform="matrix(0.06234567901234567,0,0,0.06234567901234567,21.197530864197525,0)" xlink:href="#bc"/><use transform="matrix(0.06234567901234567,0,0,0.06234567901234567,38.654320987654316,0)" xlink:href="#aR"/><use transform="matrix(0.06234567901234567,0,0,0.06234567901234567,46.07345679012345,0)" xlink:href="#bd"/><use transform="matrix(0.06234567901234567,0,0,0.06234567901234567,58.542592592592584,0)" xlink:href="#be"/><use transform="matrix(0.06234567901234567,0,0,0.06234567901234567,71.01172839506171,0)" xlink:href="#bf"/><use transform="matrix(0.06234567901234567,0,0,0.06234567901234567,83.48086419753085,0)" xlink:href="#bg"/></g><g id="I"><use transform="matrix(0.06234567901234567,0,0,0.06234567901234567,0,0)" xlink:href="#aw"/><use transform="matrix(0.06234567901234567,0,0,0.06234567901234567,14.96296296296296,0)" xlink:href="#aO"/><use transform="matrix(0.06234567901234567,0,0,0.06234567901234567,27.432098765432094,0)" xlink:href="#aK"/><use transform="matrix(0.06234567901234567,0,0,0.06234567901234567,39.90123456790123,0)" xlink:href="#ax"/><use transform="matrix(0.06234567901234567,0,0,0.06234567901234567,47.32037037037036,0)" xlink:href="#aJ"/><use transform="matrix(0.06234567901234567,0,0,0.06234567901234567,59.789506172839495,0)" xlink:href="#aG"/></g><g id="J"><use transform="matrix(0.06234567901234567,0,0,0.06234567901234567,0,0)" xlink:href="#aT"/><use transform="matrix(0.06234567901234567,0,0,0.06234567901234567,16.147530864197527,0)" xlink:href="#ax"/><use transform="matrix(0.06234567901234567,0,0,0.06234567901234567,23.566666666666663,0)" xlink:href="#aF"/><use transform="matrix(0.06234567901234567,0,0,0.06234567901234567,29.80123456790123,0)" xlink:href="#aQ"/><use transform="matrix(0.06234567901234567,0,0,0.06234567901234567,36.035802469135795,0)" xlink:href="#aK"/></g></defs></g></svg>