<?xml version="1.0" encoding="UTF-8" standalone="no"?>
<!-- Created with Inkscape (http://www.inkscape.org/) -->

<svg
   xmlns:dc="http://purl.org/dc/elements/1.1/"
   xmlns:cc="http://creativecommons.org/ns#"
   xmlns:rdf="http://www.w3.org/1999/02/22-rdf-syntax-ns#"
   xmlns:svg="http://www.w3.org/2000/svg"
   xmlns="http://www.w3.org/2000/svg"
   xmlns:xlink="http://www.w3.org/1999/xlink"
   xmlns:sodipodi="http://sodipodi.sourceforge.net/DTD/sodipodi-0.dtd"
   xmlns:inkscape="http://www.inkscape.org/namespaces/inkscape"
   width="210"
   height="28"
   viewBox="0 0 55.562498 7.4083338"
   version="1.1"
   id="svg8"
   sodipodi:docname="performetrics_logo.svg"
   inkscape:version="0.92.4 (5da689c313, 2019-01-14)">
  <defs
     id="defs2">
    <linearGradient
       id="linearGradient998"
       inkscape:collect="always">
      <stop
         id="stop994"
         offset="0"
         style="stop-color:#ffffff;stop-opacity:1;" />
      <stop
         id="stop996"
         offset="1"
         style="stop-color:#ffffff;stop-opacity:0.0104712" />
    </linearGradient>
    <linearGradient
       inkscape:collect="always"
       id="linearGradient948">
      <stop
         style="stop-color:#000000;stop-opacity:1"
         offset="0"
         id="stop944" />
      <stop
         style="stop-color:#333333;stop-opacity:1"
         offset="1"
         id="stop946" />
    </linearGradient>
    <linearGradient
       inkscape:collect="always"
       id="linearGradient928">
      <stop
         style="stop-color:#852626;stop-opacity:1"
         offset="0"
         id="stop924" />
      <stop
         style="stop-color:#c83737;stop-opacity:1"
         offset="1"
         id="stop926" />
    </linearGradient>
    <linearGradient
       inkscape:collect="always"
       xlink:href="#linearGradient928"
       id="linearGradient930"
       x1="288.53784"
       y1="91.006973"
       x2="288.53784"
       y2="160.60396"
       gradientUnits="userSpaceOnUse"
       gradientTransform="matrix(0.29200207,0,0,0.29200207,247.69228,143.60134)" />
    <linearGradient
       inkscape:collect="always"
       xlink:href="#linearGradient948"
       id="linearGradient950"
       x1="353.18927"
       y1="94.001846"
       x2="353.18927"
       y2="198.7715"
       gradientUnits="userSpaceOnUse"
       gradientTransform="matrix(0.29200206,0,0,0.29200206,247.69228,143.60134)" />
    <linearGradient
       inkscape:collect="always"
       xlink:href="#linearGradient998"
       id="linearGradient910"
       gradientUnits="userSpaceOnUse"
       gradientTransform="matrix(0.29200207,0,0,0.29200207,247.69228,143.60134)"
       x1="279.01712"
       y1="177.79121"
       x2="279.01712"
       y2="201.42334" />
  </defs>
  <sodipodi:namedview
     id="base"
     pagecolor="#ffffff"
     bordercolor="#666666"
     borderopacity="1.0"
     inkscape:pageopacity="0.0"
     inkscape:pageshadow="2"
     inkscape:zoom="4"
     inkscape:cx="131.90643"
     inkscape:cy="4.872264"
     inkscape:document-units="px"
     inkscape:current-layer="layer1"
     showgrid="false"
     inkscape:snap-bbox="true"
     inkscape:object-paths="true"
     inkscape:snap-intersection-paths="true"
     inkscape:snap-smooth-nodes="true"
     inkscape:window-width="1920"
     inkscape:window-height="1017"
     inkscape:window-x="-8"
     inkscape:window-y="-8"
     inkscape:window-maximized="1"
     showborder="true"
     inkscape:snap-global="true"
     units="px" />
  <metadata
     id="metadata5">
    <rdf:RDF>
      <cc:Work
         rdf:about="">
        <dc:format>image/svg+xml</dc:format>
        <dc:type
           rdf:resource="http://purl.org/dc/dcmitype/StillImage" />
        <dc:title></dc:title>
      </cc:Work>
    </rdf:RDF>
  </metadata>
  <g
     inkscape:label="Camada 1"
     inkscape:groupmode="layer"
     id="layer1"
     transform="translate(0,-289.59166)">
    <g
       id="g960"
       transform="matrix(0.69999956,0,0,0.69999956,1.7415636e-5,89.100124)">
      <g
         transform="matrix(0.16000008,0,0,0.16000008,-44.232091,262.49311)"
         id="g991">
        <g
           id="g932"
           transform="matrix(0.48246143,0,0,0.48246143,132.68931,111.61649)">
          <path
             sodipodi:nodetypes="ccccccccsccccccsccccsscs"
             d="m 559.8924,184.23938 c -8.74496,0 -14.75286,-3.17393 -18.0237,-9.5218 -3.69778,13.32709 -7.75519,28.95048 -10.97263,40.95037 h -20.30871 l 28.72507,-107.2034 h 16.51332 l 0.27615,9.65497 h 0.9322 c 6.72428,-7.36885 14.74744,-11.05327 24.06947,-11.05327 8.78935,0 14.75997,3.39588 17.91188,10.18764 3.15189,6.79177 3.11018,16.22479 -0.12513,28.29904 -2.1291,7.94592 -5.15503,14.84867 -9.07781,20.70824 -3.87837,5.85957 -8.38087,10.32083 -13.50749,13.38378 -5.1266,3.06296 -10.5975,4.59443 -16.41267,4.59443 z m 10.33238,-60.92616 c -5.01614,0 -9.09468,1.55368 -12.23561,4.66102 -3.12902,3.06295 -5.68948,8.14568 -7.68138,15.24819 l -0.58876,2.19733 c -2.14101,7.99031 -2.49903,13.71671 -1.07409,17.17918 1.46932,3.46247 4.77864,5.19371 9.92795,5.19371 9.10009,0 15.66029,-7.50202 19.68061,-22.50606 1.96258,-7.32446 2.29958,-12.8067 1.01101,-16.44673 -1.2323,-3.68443 -4.24554,-5.52664 -9.03973,-5.52664 z"
             style="font-style:normal;font-variant:normal;font-weight:bold;font-stretch:normal;font-size:93.51318359px;line-height:1.25;font-family:'Open Sans';-inkscape-font-specification:'Open Sans Bold';letter-spacing:-8.44550323px;word-spacing:0px;fill:#c83737;fill-opacity:1;stroke:none;stroke-width:3.40920162"
             id="path1081"
             inkscape:connector-curvature="0" />
          <path
             sodipodi:nodetypes="sccccsssscscsccssccccs"
             d="m 644.48267,121.51544 c -4.30589,0 -8.04831,1.3761 -11.22725,4.12831 -3.16704,2.70784 -5.60016,6.56982 -7.29935,11.58597 h 28.49878 c 1.25532,-5.01615 0.98061,-8.87813 -0.82411,-11.58597 -1.79282,-2.75221 -4.84218,-4.12831 -9.14807,-4.12831 z m -13.94364,62.72397 c -11.98547,0 -20.46576,-3.3071 -25.44086,-9.9213 -4.97512,-6.61421 -5.83908,-15.98064 -2.5919,-28.09928 3.34233,-12.47378 9.03077,-22.10655 17.06533,-28.89832 8.09082,-6.83615 17.64067,-10.25423 28.64954,-10.25423 10.5206,0 17.90779,2.99637 22.16159,8.9891 4.25383,5.99274 4.9653,14.2716 2.13443,24.83657 l -2.64057,9.85472 H 621.8681 c -1.32431,5.77078 -0.82256,10.27643 1.50527,13.51695 2.32783,3.24052 6.37714,4.86077 12.14792,4.86077 4.48345,0 8.84765,-0.46609 13.0926,-1.3983 4.24493,-0.9322 8.81612,-2.41929 13.71354,-4.46125 l -4.21063,15.71428 c -4.02702,1.77562 -8.17331,3.08515 -12.43885,3.92857 -4.27745,0.88782 -9.32375,1.33172 -15.13892,1.33172 z"
             style="font-style:normal;font-variant:normal;font-weight:bold;font-stretch:normal;font-size:93.51318359px;line-height:1.25;font-family:'Open Sans';-inkscape-font-specification:'Open Sans Bold';letter-spacing:-8.44550323px;word-spacing:0px;fill:#c83737;fill-opacity:1;stroke:none;stroke-width:3.40920162"
             id="path1083"
             inkscape:connector-curvature="0" />
          <path
             sodipodi:nodetypes="sccscscccccccs"
             d="m 726.09685,107.06628 c 2.7522,0 4.9848,0.19975 6.69778,0.59926 l -5.27006,19.04359 c -1.52352,-0.4439 -3.46162,-0.66585 -5.81433,-0.66585 -6.48103,0 -11.98762,1.66465 -16.51972,4.99394 -4.48773,3.3293 -7.53446,7.99031 -9.14021,13.98306 l -10.15191,37.88741 h -20.30872 l 19.94698,-74.44311 h 15.38136 l -0.35787,12.51816 h 0.99878 c 3.42639,-4.17273 7.43177,-7.52421 12.01614,-10.05448 4.64065,-2.57467 7.90514,-3.86198 12.52178,-3.86198 z"
             style="font-style:normal;font-variant:normal;font-weight:bold;font-stretch:normal;font-size:93.51318359px;line-height:1.25;font-family:'Open Sans';-inkscape-font-specification:'Open Sans Bold';letter-spacing:-8.44550323px;word-spacing:0px;fill:#c83737;fill-opacity:1;stroke:none;stroke-width:3.40920162"
             id="path1085"
             inkscape:connector-curvature="0" />
          <path
             sodipodi:nodetypes="sscccccccccccsccs"
             inkscape:connector-curvature="0"
             id="path1087"
             d="m 770.53898,78.567181 c -9.18885,0 -16.39341,1.953508 -21.61284,5.859879 -5.21943,3.906373 -8.96486,10.098768 -11.23669,18.57739 l -1.46272,5.46047 -4.08595,15.24804 -15.86147,59.19488 h 20.30915 l 15.86144,-59.19488 h 17.57813 l 4.08595,-15.24804 h -17.57889 l 1.24945,-4.66167 c 0.71368,-2.66344 1.93971,-4.838458 3.67901,-6.525304 1.7512,-1.731236 4.06945,-2.596855 6.95485,-2.596855 3.46245,0 7.06361,0.644121 10.80263,1.931444 l 9.18998,-14.915703 c -4.90103,-2.08637 -10.85829,-3.129651 -17.87203,-3.129651 z"
             style="font-style:normal;font-variant:normal;font-weight:bold;font-stretch:normal;font-size:93.51318359px;line-height:1.25;font-family:'Open Sans';-inkscape-font-specification:'Open Sans Bold';letter-spacing:-8.44550323px;word-spacing:0px;fill:#c83737;fill-opacity:1;stroke:none;stroke-width:3.40920162" />
          <path
             sodipodi:nodetypes="scscscscsscsccssscss"
             d="m 782.71336,145.55296 c -1.97447,7.36884 -2.26868,12.93987 -0.88261,16.71309 1.43045,3.7732 4.87571,5.6598 10.33576,5.6598 5.41566,0 9.79941,-1.86441 13.15125,-5.59321 3.40813,-3.77322 6.10537,-9.36644 8.09173,-16.77968 1.97448,-7.36885 2.25679,-12.89548 0.84693,-16.57991 -1.40986,-3.68442 -4.84481,-5.52663 -10.30485,-5.52663 -5.41567,0 -9.81566,1.84221 -13.2,5.52663 -3.37243,3.64004 -6.05184,9.16668 -8.03821,16.57991 z m 51.47096,0 c -3.24718,12.11864 -8.98275,21.59604 -17.2067,28.43221 -8.22406,6.83616 -18.04028,10.25424 -29.44866,10.25424 -7.1469,0 -13.03406,-1.55367 -17.66149,-4.66101 -4.61555,-3.15175 -7.60319,-7.6574 -8.96291,-13.51696 -1.35971,-5.85957 -0.99286,-12.69573 1.10056,-20.50848 3.25908,-12.16304 8.96652,-21.61824 17.12234,-28.36562 8.15583,-6.74738 17.98233,-10.12106 29.4795,-10.12106 7.14689,0 13.03405,1.55367 17.66147,4.66101 4.62747,3.10734 7.62701,7.56861 8.99862,13.38379 1.3716,5.81517 1.01069,12.62913 -1.08273,20.44188 z"
             style="font-style:normal;font-variant:normal;font-weight:bold;font-stretch:normal;font-size:93.51318359px;line-height:1.25;font-family:'Open Sans';-inkscape-font-specification:'Open Sans Bold';letter-spacing:-8.44550323px;word-spacing:0px;fill:#c83737;fill-opacity:1;stroke:none;stroke-width:3.40920162"
             id="path1089"
             inkscape:connector-curvature="0" />
          <path
             sodipodi:nodetypes="ccccscccccccccscccsccccscsccc"
             d="m 945.8057,182.90769 h -20.30868 l 11.65061,-43.48064 c 1.43922,-5.37128 1.60561,-9.38863 0.49917,-12.05206 -1.04996,-2.70782 -3.50595,-4.06174 -7.36794,-4.06174 -5.19371,0 -9.47842,1.9088 -12.85412,5.72639 -3.37563,3.81759 -6.23507,10.09888 -8.57831,18.84384 l -9.3846,35.02421 h -20.30898 l 20.48465,-75.51804 h 15.5146 l -0.35897,10.59672 h 1.13205 c 2.91345,-3.41808 6.51253,-6.08152 10.79723,-7.99032 4.29647,-1.95318 8.8862,-2.92977 13.76919,-2.92977 11.14211,0 17.7132,3.64003 19.71327,10.92009 h 1.79777 c 2.92539,-3.46246 6.57482,-6.1481 10.94829,-8.0569 4.41781,-1.9088 9.06816,-2.86319 13.95104,-2.86319 8.43429,0 14.22153,2.17514 17.36183,6.52541 3.1965,4.30589 3.5162,11.23083 0.9588,20.77483 l -13.00652,48.54117 h -20.37533 l 11.65061,-43.48064 c 1.43923,-5.37128 1.60566,-9.38863 0.49931,-12.05206 -1.05006,-2.70782 -3.50609,-4.06174 -7.36808,-4.06174 -4.97175,0 -9.17635,1.77563 -12.6138,5.32687 -3.39302,3.55125 -6.12432,9.18886 -8.19391,16.91284 z"
             style="font-style:normal;font-variant:normal;font-weight:bold;font-stretch:normal;font-size:93.51318359px;line-height:1.25;font-family:'Open Sans';-inkscape-font-specification:'Open Sans Bold';letter-spacing:-8.44550323px;word-spacing:0px;fill:#252525;fill-opacity:1;stroke:none;stroke-width:3.40920162"
             id="path1093"
             inkscape:connector-curvature="0" />
          <path
             sodipodi:nodetypes="sccccsscccscccccsccccs"
             d="m 1047.3158,121.51544 c -4.306,0 -8.0484,1.3761 -11.2272,4.12831 -3.1671,2.70784 -5.6002,6.56982 -7.2994,11.58597 h 28.4988 c 1.2556,-5.01615 0.9809,-8.87813 -0.8241,-11.58597 -1.7929,-2.75221 -4.8423,-4.12831 -9.1481,-4.12831 z m -13.9435,62.72397 c -11.9855,0 -20.4659,-3.3071 -25.4411,-9.9213 -4.9751,-6.61421 -5.839,-15.98064 -2.5918,-28.09928 3.3423,-12.47378 9.0308,-22.10655 17.0654,-28.89832 8.0908,-6.83615 17.6405,-10.25423 28.6494,-10.25423 10.5205,0 17.9078,2.99637 22.1617,8.9891 4.2538,5.99274 4.9652,14.2716 2.1343,24.83657 l -2.6406,9.85472 h -48.0084 c -1.3243,5.77078 -0.8226,10.27643 1.5053,13.51695 2.3278,3.24052 6.3772,4.86077 12.148,4.86077 4.4834,0 8.8476,-0.46609 13.0926,-1.3983 4.2449,-0.9322 8.8161,-2.41929 13.7135,-4.46125 l -4.2107,15.71428 c -4.027,1.77562 -8.1732,3.08515 -12.4388,3.92857 -4.2774,0.88782 -9.3237,1.33172 -15.1388,1.33172 z"
             style="font-style:normal;font-variant:normal;font-weight:bold;font-stretch:normal;font-size:93.51318359px;line-height:1.25;font-family:'Open Sans';-inkscape-font-specification:'Open Sans Bold';letter-spacing:-8.44550323px;word-spacing:0px;fill:#252525;fill-opacity:1;stroke:none;stroke-width:3.40920162"
             id="path1095"
             inkscape:connector-curvature="0" />
          <path
             sodipodi:nodetypes="sccsccccccccccccccs"
             d="m 1104.301,168.05902 c 3.5513,0 8.0209,-0.77684 13.409,-2.33052 l -4.0502,15.11502 c -5.667,2.26392 -12.185,3.39589 -19.5538,3.39589 -8.1236,0 -13.5025,-2.04197 -16.137,-6.12591 -2.5783,-4.12833 -2.7673,-10.29864 -0.5668,-18.51089 l 9.6167,-35.88985 h -9.7215 l 2.3015,-8.58958 13.0064,-6.79178 10.0701,-15.71428 h 12.9842 l -4.2463,15.84746 h 20.8414 l -4.0856,15.24818 h -20.8415 l -9.6168,35.88985 c -0.773,2.88538 -0.5449,5.01613 0.6844,6.39225 1.2737,1.37611 3.2423,2.06416 5.9058,2.06416 z"
             style="font-style:normal;font-variant:normal;font-weight:bold;font-stretch:normal;font-size:93.51318359px;line-height:1.25;font-family:'Open Sans';-inkscape-font-specification:'Open Sans Bold';letter-spacing:-8.44550323px;word-spacing:0px;fill:#252525;fill-opacity:1;stroke:none;stroke-width:3.40920162"
             id="path1097"
             inkscape:connector-curvature="0" />
          <path
             sodipodi:nodetypes="csccscccccc"
             d="m 1192.0678,89.221232 c 1.7721,-6.614207 6.3427,-9.92131 13.7116,-9.92131 7.3688,0 10.1671,3.307103 8.395,9.92131 -0.8446,3.151734 -2.437,5.615413 -4.7771,7.39104 -2.2839,1.731238 -5.2681,2.596852 -8.9526,2.596852 -7.3689,0 -10.1612,-3.329298 -8.3769,-9.987892 z m -3.9288,93.686458 h -20.3088 l 19.9468,-74.44311 h 20.3089 z"
             style="font-style:normal;font-variant:normal;font-weight:bold;font-stretch:normal;font-size:93.51318359px;line-height:1.25;font-family:'Open Sans';-inkscape-font-specification:'Open Sans Bold';letter-spacing:-8.44550323px;word-spacing:0px;fill:#252525;fill-opacity:1;stroke:none;stroke-width:3.40920162"
             id="path1101"
             inkscape:connector-curvature="0" />
          <path
             sodipodi:nodetypes="sccscccscsccccs"
             d="m 1226.9371,184.23941 c -23.1718,0 -31.3501,-12.71792 -24.5346,-38.15376 3.39,-12.65133 9.1288,-22.3063 17.2163,-28.96489 8.0996,-6.70299 18.0311,-10.05448 29.7946,-10.05448 8.6117,0 15.8837,1.68684 21.816,5.06052 l -10.2034,15.7143 c -2.8511,-1.28734 -5.5458,-2.33052 -8.084,-3.12955 -2.5262,-0.84342 -5.1654,-1.26513 -7.9175,-1.26513 -10.5651,0 -17.8577,7.50202 -21.8781,22.50607 -3.9013,14.56013 -0.5696,21.84019 9.9954,21.84019 3.9064,0 7.661,-0.51049 11.2639,-1.53148 3.6148,-1.06538 7.3842,-2.70783 11.3082,-4.92735 l -4.6567,17.37893 c -3.844,2.08636 -7.5598,3.52905 -11.1475,4.32808 -3.5434,0.79903 -7.8677,1.19855 -12.9726,1.19855 z"
             style="font-style:normal;font-variant:normal;font-weight:bold;font-stretch:normal;font-size:93.51318359px;line-height:1.25;font-family:'Open Sans';-inkscape-font-specification:'Open Sans Bold';letter-spacing:-8.44550323px;word-spacing:0px;fill:#252525;fill-opacity:1;stroke:none;stroke-width:3.40920162"
             id="path1103"
             inkscape:connector-curvature="0" />
          <path
             sodipodi:nodetypes="ccsccccsccccccccscccscccccc"
             d="m 1314.2004,160.80115 c -2.0458,7.63519 -6.2675,13.45037 -12.6648,17.44552 -6.353,3.99516 -14.812,5.99274 -25.377,5.99274 -5.4156,0 -9.9311,-0.37732 -13.5464,-1.13196 -3.6273,-0.71025 -6.9154,-1.77563 -9.8641,-3.19613 l 4.4961,-16.77967 c 3.2974,1.77562 7.1383,3.26271 11.5226,4.46126 4.4286,1.19855 8.4407,1.79782 12.0363,1.79782 7.3689,0 11.6243,-2.13075 12.7662,-6.39225 0.4281,-1.59806 0.2848,-2.88538 -0.43,-3.86198 -0.7032,-1.02099 -2.0867,-2.15295 -4.1507,-3.39589 -2.0522,-1.28732 -4.8499,-2.77441 -8.393,-4.46126 -5.0842,-2.3971 -8.7066,-4.61663 -10.8672,-6.65859 -2.1164,-2.04197 -3.4451,-4.37248 -3.9862,-6.99154 -0.4848,-2.66343 -0.2098,-5.92614 0.8249,-9.78812 1.7723,-6.61421 5.6926,-11.71913 11.761,-15.31477 6.1246,-3.64003 13.8923,-5.46005 23.3031,-5.46005 8.9669,0 17.1664,1.95318 24.5984,5.85955 l -10.0512,14.64892 c -3.3006,-1.59807 -6.4344,-2.90758 -9.4014,-3.92857 -2.9669,-1.02099 -6.1371,-1.53148 -9.5108,-1.53148 -5.9928,0 -9.4233,1.62026 -10.2915,4.86078 -0.4878,1.82001 0.045,3.39588 1.5964,4.7276 1.5963,1.33172 5.3063,3.3071 11.13,5.92614 5.1848,2.35271 8.8576,4.55005 11.0183,6.59203 2.1607,2.04196 3.5278,4.39467 4.1013,7.0581 0.5738,2.66345 0.367,5.83738 -0.6203,9.5218 z"
             style="font-style:normal;font-variant:normal;font-weight:bold;font-stretch:normal;font-size:93.51318359px;line-height:1.25;font-family:'Open Sans';-inkscape-font-specification:'Open Sans Bold';letter-spacing:-8.44550323px;word-spacing:0px;fill:#252525;fill-opacity:1;stroke:none;stroke-width:3.40920162"
             id="path1105"
             inkscape:connector-curvature="0" />
          <path
             inkscape:connector-curvature="0"
             id="path1139"
             style="font-style:normal;font-variant:normal;font-weight:bold;font-stretch:normal;font-size:93.51318359px;line-height:1.25;font-family:'Open Sans';-inkscape-font-specification:'Open Sans Bold';letter-spacing:-8.44550323px;word-spacing:0px;fill:#c83737;fill-opacity:1;stroke:none;stroke-width:3.40920162"
             d="m 888.14794,107.06628 c 2.75221,0 4.98483,0.19975 6.69786,0.59926 l -5.27006,19.04359 c -1.52346,-0.4439 -3.46181,-0.66585 -5.81444,-0.66585 -6.48114,0 -11.98771,1.66465 -16.51982,4.99394 -4.48773,3.3293 -7.53447,7.99031 -9.14022,13.98306 l -10.1519,37.88741 h -20.30871 l 19.94696,-74.44311 h 15.38136 l -0.35787,12.51816 h 0.99879 c 3.4264,-4.17273 7.43177,-7.52421 12.01613,-10.05448 4.64065,-2.57467 7.90516,-3.86198 12.52192,-3.86198 z"
             sodipodi:nodetypes="sccscscccccccs" />
          <path
             sodipodi:nodetypes="sccscscccccccs"
             d="m 1178.0623,107.06628 c 2.7522,0 4.9848,0.19975 6.6978,0.59926 l -5.27,19.04359 c -1.5234,-0.4439 -3.4617,-0.66585 -5.8143,-0.66585 -6.481,0 -11.9877,1.66465 -16.5198,4.99394 -4.4877,3.3293 -7.5345,7.99031 -9.1401,13.98306 l -10.152,37.88741 h -20.3087 l 19.947,-74.44311 h 15.3813 l -0.3578,12.51816 h 0.9988 c 3.4263,-4.17273 7.4317,-7.52421 12.016,-10.05448 4.6407,-2.57467 7.9052,-3.86198 12.5218,-3.86198 z"
             style="font-style:normal;font-variant:normal;font-weight:bold;font-stretch:normal;font-size:93.51318359px;line-height:1.25;font-family:'Open Sans';-inkscape-font-specification:'Open Sans Bold';letter-spacing:-8.44550323px;word-spacing:0px;fill:#252525;fill-opacity:1;stroke:none;stroke-width:3.40920162"
             id="path1169"
             inkscape:connector-curvature="0" />
        </g>
      </g>
      <g
         transform="matrix(0.25000012,0,0,0.25000012,-75.229031,243.81059)"
         id="g1480">
        <path
           inkscape:connector-curvature="0"
           style="opacity:1;fill:url(#linearGradient930);fill-opacity:1;stroke:none;stroke-width:0.39936838;stroke-linecap:square;stroke-linejoin:miter;stroke-miterlimit:4;stroke-dasharray:none;stroke-dashoffset:0;paint-order:normal"
           d="m 326.37037,170.4242 c -5.9642,4.70371 -11.92835,9.40747 -17.89252,14.11122 l -7.56187,28.22167 h 14.11076 l 7.56202,-28.22167 h 3.19492 l -4.63704,17.30584 17.89223,-14.11107 4.63719,-17.30599 z"
           id="path894" />
        <path
           style="opacity:1;fill:url(#linearGradient950);fill-opacity:1;stroke:none;stroke-width:0.39936835;stroke-linecap:square;stroke-linejoin:miter;stroke-miterlimit:4;stroke-dasharray:none;stroke-dashoffset:0;paint-order:normal"
           d="m 360.98173,170.42457 -17.89184,14.11085 -7.56209,28.22212 h 14.11084 z"
           id="path896"
           inkscape:connector-curvature="0" />
        <path
           inkscape:connector-curvature="0"
           style="opacity:0.15;fill:url(#linearGradient910);fill-opacity:1;stroke:none;stroke-width:0.39936838;stroke-linecap:square;stroke-linejoin:miter;stroke-miterlimit:4;stroke-dasharray:none;stroke-dashoffset:0;paint-order:normal"
           d="m 305.53552,195.51674 -3.26389,12.18065 h 14.11091 l 3.26374,-12.18065 z m 17.30569,0 -1.69457,6.32452 8.01924,-6.32452 z m 17.30613,0 -3.26373,12.18065 h 14.11077 l 3.26388,-12.18065 z"
           id="path906" />
      </g>
    </g>
  </g>
</svg>
