<?xml version="1.0" encoding="UTF-8" standalone="no"?>
<svg
   xmlns:dc="http://purl.org/dc/elements/1.1/"
   xmlns:cc="http://creativecommons.org/ns#"
   xmlns:rdf="http://www.w3.org/1999/02/22-rdf-syntax-ns#"
   xmlns:svg="http://www.w3.org/2000/svg"
   xmlns="http://www.w3.org/2000/svg"
   xmlns:sodipodi="http://sodipodi.sourceforge.net/DTD/sodipodi-0.dtd"
   xmlns:inkscape="http://www.inkscape.org/namespaces/inkscape"
   inkscape:version="1.0 (4035a4fb49, 2020-05-01)"
   sodipodi:docname="performetrics_logo.svg"
   id="svg8"
   version="1.1"
   viewBox="0 0 71.437497 9.5250006"
   height="36"
   width="270">
  <defs
     id="defs25" />
  <sodipodi:namedview
     inkscape:document-rotation="0"
     units="px"
     inkscape:snap-global="true"
     showborder="true"
     inkscape:window-maximized="1"
     inkscape:window-y="1341"
     inkscape:window-x="-9"
     inkscape:window-height="1001"
     inkscape:window-width="1920"
     inkscape:snap-smooth-nodes="true"
     inkscape:snap-intersection-paths="true"
     inkscape:object-paths="true"
     inkscape:snap-bbox="true"
     showgrid="false"
     inkscape:current-layer="layer1"
     inkscape:document-units="px"
     inkscape:cy="88.437145"
     inkscape:cx="119.77543"
     inkscape:zoom="2"
     inkscape:pageshadow="2"
     inkscape:pageopacity="0.0"
     borderopacity="1.0"
     bordercolor="#666666"
     pagecolor="#ffffff"
     id="base" />
  <metadata
     id="metadata5">
    <rdf:RDF>
      <cc:Work
         rdf:about="">
        <dc:format>image/svg+xml</dc:format>
        <dc:type
           rdf:resource="http://purl.org/dc/dcmitype/StillImage" />
        <dc:title />
      </cc:Work>
    </rdf:RDF>
  </metadata>
  <g
     transform="translate(0,-287.47499)"
     id="layer1"
     inkscape:groupmode="layer"
     inkscape:label="Camada 1">
    <g
       id="g1022">
      <g
         id="g1003">
        <path
           sodipodi:nodetypes="ccccccccsccccccsccccsscs"
           d="m 18.196629,294.81651 c -0.607551,0 -1.024947,-0.22051 -1.252187,-0.66152 -0.256901,0.92589 -0.538787,2.01131 -0.762317,2.845 h -1.410936 l 1.995658,-7.4479 h 1.147254 l 0.01919,0.67078 h 0.06476 c 0.467166,-0.51195 1.02457,-0.76792 1.672213,-0.76792 0.610635,0 1.025441,0.23592 1.244418,0.70778 0.218976,0.47185 0.216078,1.12721 -0.0087,1.96606 -0.147918,0.55204 -0.358143,1.0316 -0.630676,1.43869 -0.269448,0.40709 -0.582256,0.71704 -0.938425,0.92983 -0.356168,0.2128 -0.736256,0.3192 -1.140262,0.3192 z m 0.717836,-4.23281 c -0.348493,0 -0.631848,0.10794 -0.850062,0.32382 -0.217387,0.2128 -0.395273,0.56592 -0.533659,1.05936 l -0.0409,0.15266 c -0.148746,0.55512 -0.173619,0.95296 -0.07462,1.19351 0.10208,0.24055 0.331993,0.36083 0.689739,0.36083 0.632223,0 1.08799,-0.5212 1.367299,-1.5636 0.136349,-0.50886 0.159762,-0.88973 0.07024,-1.14262 -0.08561,-0.25598 -0.294956,-0.38396 -0.62803,-0.38396 z"
           style="font-style:normal;font-variant:normal;font-weight:bold;font-stretch:normal;font-size:93.5132px;line-height:1.25;font-family:'Open Sans';-inkscape-font-specification:'Open Sans Bold';letter-spacing:-8.4455px;word-spacing:0px;fill:#c83737;fill-opacity:1;stroke:none;stroke-width:0.236852"
           id="path1081"
           inkscape:connector-curvature="0" />
        <path
           sodipodi:nodetypes="sccccsssscscsccssccccs"
           d="m 24.073491,290.4588 c -0.29915,0 -0.559152,0.0956 -0.780007,0.28681 -0.220029,0.18812 -0.389068,0.45643 -0.507119,0.80493 h 1.979937 c 0.08721,-0.3485 0.06813,-0.61681 -0.05725,-0.80493 -0.124556,-0.19121 -0.336408,-0.28681 -0.635557,-0.28681 z m -0.968727,4.35771 c -0.832684,0 -1.421847,-0.22976 -1.767489,-0.68928 -0.345644,-0.45952 -0.405667,-1.11024 -0.180071,-1.95218 0.232206,-0.86661 0.627407,-1.53584 1.185604,-2.00769 0.562105,-0.47494 1.225576,-0.71241 1.990411,-0.71241 0.730912,0 1.244133,0.20817 1.539664,0.62451 0.295532,0.41634 0.344961,0.99151 0.148288,1.72551 l -0.183452,0.68465 h -3.335363 c -0.09201,0.40092 -0.05715,0.71395 0.104578,0.93908 0.161724,0.22514 0.443048,0.3377 0.84397,0.3377 0.311485,0 0.614685,-0.0324 0.909601,-0.0971 0.294914,-0.0648 0.612495,-0.16808 0.95274,-0.30995 l -0.292531,1.09174 c -0.279775,0.12336 -0.567836,0.21434 -0.864182,0.27294 -0.297173,0.0617 -0.647762,0.0925 -1.051768,0.0925 z"
           style="font-style:normal;font-variant:normal;font-weight:bold;font-stretch:normal;font-size:93.5132px;line-height:1.25;font-family:'Open Sans';-inkscape-font-specification:'Open Sans Bold';letter-spacing:-8.4455px;word-spacing:0px;fill:#c83737;fill-opacity:1;stroke:none;stroke-width:0.236852"
           id="path1083"
           inkscape:connector-curvature="0" />
        <path
           sodipodi:nodetypes="sccscscccccccs"
           d="m 29.74359,289.45495 c 0.191208,0 0.346316,0.0139 0.465325,0.0416 l -0.366135,1.32305 c -0.105846,-0.0308 -0.240494,-0.0463 -0.403947,-0.0463 -0.450266,0 -0.832833,0.11565 -1.147699,0.34695 -0.311782,0.2313 -0.523452,0.55512 -0.635011,0.97146 l -0.705298,2.63221 h -1.410937 l 1.385806,-5.17189 h 1.068611 l -0.02486,0.86969 h 0.06939 c 0.238046,-0.2899 0.516318,-0.52274 0.834814,-0.69853 0.322407,-0.17888 0.549206,-0.26831 0.869944,-0.26831 z"
           style="font-style:normal;font-variant:normal;font-weight:bold;font-stretch:normal;font-size:93.5132px;line-height:1.25;font-family:'Open Sans';-inkscape-font-specification:'Open Sans Bold';letter-spacing:-8.4455px;word-spacing:0px;fill:#c83737;fill-opacity:1;stroke:none;stroke-width:0.236852"
           id="path1085"
           inkscape:connector-curvature="0" />
        <path
           sodipodi:nodetypes="sscccccccccccsccs"
           inkscape:connector-curvature="0"
           id="path1087"
           d="m 32.831182,287.47499 c -0.63839,0 -1.138923,0.13572 -1.50154,0.40711 -0.362617,0.2714 -0.622828,0.70161 -0.780663,1.29066 l -0.101621,0.37936 -0.283869,1.05935 -1.101967,4.11253 h 1.410967 l 1.101964,-4.11253 h 1.221231 l 0.283869,-1.05935 H 31.85827 l 0.0868,-0.32387 c 0.04958,-0.18504 0.13476,-0.33615 0.255597,-0.45334 0.121663,-0.12028 0.282722,-0.18041 0.483184,-0.18041 0.240552,0 0.49074,0.0448 0.750507,0.13418 l 0.638468,-1.03626 c -0.340496,-0.14495 -0.754373,-0.21743 -1.241649,-0.21743 z"
           style="font-style:normal;font-variant:normal;font-weight:bold;font-stretch:normal;font-size:93.5132px;line-height:1.25;font-family:'Open Sans';-inkscape-font-specification:'Open Sans Bold';letter-spacing:-8.4455px;word-spacing:0px;fill:#c83737;fill-opacity:1;stroke:none;stroke-width:0.236852" />
        <path
           sodipodi:nodetypes="scscscscsscsccssscss"
           d="m 33.67699,292.12879 c -0.137175,0.51195 -0.157615,0.89899 -0.06132,1.16113 0.09938,0.26214 0.338737,0.39321 0.718071,0.39321 0.37625,0 0.680808,-0.12952 0.913675,-0.38858 0.236778,-0.26214 0.424168,-0.65073 0.562169,-1.16576 0.137176,-0.51195 0.156789,-0.89591 0.05884,-1.15188 -0.09795,-0.25597 -0.336591,-0.38396 -0.715924,-0.38396 -0.376251,0 -0.681937,0.12799 -0.917062,0.38396 -0.234298,0.25289 -0.420449,0.63685 -0.558451,1.15188 z m 3.575916,0 c -0.225596,0.84194 -0.624071,1.50037 -1.195425,1.97531 -0.571362,0.47494 -1.253339,0.71241 -2.04593,0.71241 -0.496526,0 -0.905534,-0.10794 -1.227022,-0.32382 -0.320662,-0.21897 -0.528227,-0.53199 -0.622693,-0.93908 -0.09446,-0.40709 -0.06898,-0.88203 0.07646,-1.42482 0.226423,-0.84502 0.622944,-1.50191 1.189565,-1.97069 0.566622,-0.46877 1.249312,-0.70315 2.048072,-0.70315 0.496526,0 0.905533,0.10794 1.22702,0.32382 0.321491,0.21588 0.529883,0.52583 0.625175,0.92983 0.09529,0.40401 0.07022,0.8774 -0.07522,1.42019 z"
           style="font-style:normal;font-variant:normal;font-weight:bold;font-stretch:normal;font-size:93.5132px;line-height:1.25;font-family:'Open Sans';-inkscape-font-specification:'Open Sans Bold';letter-spacing:-8.4455px;word-spacing:0px;fill:#c83737;fill-opacity:1;stroke:none;stroke-width:0.236852"
           id="path1089"
           inkscape:connector-curvature="0" />
        <path
           sodipodi:nodetypes="ccccscccccccccscccsccccscsccc"
           d="m 45.007739,294.72399 h -1.410934 l 0.80942,-3.02079 c 0.09999,-0.37317 0.111549,-0.65227 0.03468,-0.83731 -0.07295,-0.18813 -0.243574,-0.28219 -0.511883,-0.28219 -0.36083,0 -0.658508,0.13261 -0.893033,0.39784 -0.23452,0.26522 -0.433178,0.70161 -0.595973,1.30916 l -0.65199,2.43329 H 40.37707 l 1.42316,-5.24657 h 1.077868 l -0.02494,0.7362 h 0.07865 c 0.20241,-0.23747 0.452454,-0.42251 0.750131,-0.55513 0.298495,-0.13569 0.617364,-0.20354 0.956607,-0.20354 0.774092,0 1.230615,0.25289 1.369569,0.75867 h 0.124899 c 0.20324,-0.24056 0.456782,-0.42714 0.760626,-0.55975 0.306925,-0.13261 0.630005,-0.19892 0.969241,-0.19892 0.585967,0 0.988033,0.15112 1.206203,0.45335 0.222075,0.29915 0.244286,0.78025 0.06661,1.44332 l -0.90362,3.37237 H 46.81651 l 0.809419,-3.02079 c 0.09999,-0.37317 0.111553,-0.65227 0.03469,-0.83731 -0.07295,-0.18813 -0.243584,-0.28219 -0.511893,-0.28219 -0.34541,0 -0.637522,0.12336 -0.876337,0.37008 -0.235728,0.24672 -0.425484,0.63839 -0.569267,1.17501 z"
           style="font-style:normal;font-variant:normal;font-weight:bold;font-stretch:normal;font-size:93.5132px;line-height:1.25;font-family:'Open Sans';-inkscape-font-specification:'Open Sans Bold';letter-spacing:-8.4455px;word-spacing:0px;fill:#4a5564;fill-opacity:1;stroke:none;stroke-width:0.236852"
           id="path1093"
           inkscape:connector-curvature="0" />
        <path
           sodipodi:nodetypes="sccccsscccscccccsccccs"
           d="m 52.060097,290.4588 c -0.299157,0 -0.559158,0.0956 -0.780004,0.28681 -0.220032,0.18812 -0.38907,0.45643 -0.507121,0.80493 h 1.979938 c 0.08723,-0.3485 0.06815,-0.61681 -0.05725,-0.80493 -0.124561,-0.19121 -0.336416,-0.28681 -0.635559,-0.28681 z m -0.968717,4.35771 c -0.832686,0 -1.421857,-0.22976 -1.767506,-0.68928 -0.345643,-0.45952 -0.405662,-1.11024 -0.180064,-1.95218 0.232204,-0.86661 0.62741,-1.53584 1.185609,-2.00769 0.562104,-0.47494 1.225564,-0.71241 1.990401,-0.71241 0.730906,0 1.244134,0.20817 1.539672,0.62451 0.29553,0.41634 0.344954,0.99151 0.148279,1.72551 l -0.183454,0.68465 H 50.48896 c -0.09201,0.40092 -0.05715,0.71395 0.10458,0.93908 0.161723,0.22514 0.443052,0.3377 0.843975,0.3377 0.311482,0 0.614682,-0.0324 0.909601,-0.0971 0.294913,-0.0648 0.612494,-0.16808 0.952738,-0.30995 l -0.292536,1.09174 c -0.279773,0.12336 -0.567828,0.21434 -0.864178,0.27294 -0.29717,0.0617 -0.647759,0.0925 -1.05176,0.0925 z"
           style="font-style:normal;font-variant:normal;font-weight:bold;font-stretch:normal;font-size:93.5132px;line-height:1.25;font-family:'Open Sans';-inkscape-font-specification:'Open Sans Bold';letter-spacing:-8.4455px;word-spacing:0px;fill:#4a5564;fill-opacity:1;stroke:none;stroke-width:0.236852"
           id="path1095"
           inkscape:connector-curvature="0" />
        <path
           sodipodi:nodetypes="sccsccccccccccccccs"
           d="m 56.019112,293.69239 c 0.246724,0 0.557247,-0.054 0.931582,-0.16192 l -0.281385,1.05011 c -0.393712,0.15729 -0.846546,0.23593 -1.358489,0.23593 -0.564383,0 -0.938079,-0.14186 -1.121109,-0.42559 -0.179126,-0.28682 -0.192257,-0.7155 -0.03938,-1.28604 l 0.668115,-2.49343 h -0.675395 l 0.159895,-0.59675 0.903612,-0.47186 0.699615,-1.09174 h 0.90207 l -0.295009,1.101 h 1.447944 l -0.283845,1.05935 h -1.447951 l -0.668122,2.49343 c -0.0537,0.20046 -0.03786,0.34849 0.04755,0.4441 0.08849,0.0956 0.225257,0.14341 0.410303,0.14341 z"
           style="font-style:normal;font-variant:normal;font-weight:bold;font-stretch:normal;font-size:93.5132px;line-height:1.25;font-family:'Open Sans';-inkscape-font-specification:'Open Sans Bold';letter-spacing:-8.4455px;word-spacing:0px;fill:#4a5564;fill-opacity:1;stroke:none;stroke-width:0.236852"
           id="path1097"
           inkscape:connector-curvature="0" />
        <path
           sodipodi:nodetypes="csccscccccc"
           d="m 62.116661,288.21518 c 0.123116,-0.45952 0.440655,-0.68928 0.952606,-0.68928 0.511943,0 0.706353,0.22976 0.583238,0.68928 -0.05868,0.21896 -0.16931,0.39012 -0.331887,0.51348 -0.158673,0.12028 -0.365998,0.18042 -0.621977,0.18042 -0.51195,0 -0.705943,-0.2313 -0.58198,-0.6939 z m -0.272951,6.50881 h -1.410943 l 1.385793,-5.17189 h 1.410949 z"
           style="font-style:normal;font-variant:normal;font-weight:bold;font-stretch:normal;font-size:93.5132px;line-height:1.25;font-family:'Open Sans';-inkscape-font-specification:'Open Sans Bold';letter-spacing:-8.4455px;word-spacing:0px;fill:#4a5564;fill-opacity:1;stroke:none;stroke-width:0.236852"
           id="path1101"
           inkscape:connector-curvature="0" />
        <path
           sodipodi:nodetypes="sccscccscsccccs"
           d="m 64.539186,294.81651 c -1.609848,0 -2.178031,-0.88357 -1.704528,-2.65071 0.235519,-0.87895 0.634219,-1.54972 1.196093,-2.01232 0.562715,-0.46569 1.252701,-0.69853 2.069963,-0.69853 0.598293,0 1.103511,0.11719 1.515655,0.35158 l -0.708876,1.09174 c -0.198078,-0.0894 -0.385291,-0.16191 -0.561631,-0.21742 -0.175507,-0.0586 -0.358863,-0.0879 -0.550064,-0.0879 -0.734004,0 -1.240654,0.5212 -1.519969,1.5636 -0.27104,1.01155 -0.03957,1.51733 0.694425,1.51733 0.271395,0 0.532244,-0.0355 0.782553,-0.1064 0.251136,-0.074 0.513013,-0.18812 0.785631,-0.34232 l -0.323522,1.20739 c -0.267059,0.14495 -0.525212,0.24518 -0.774466,0.30069 -0.246176,0.0555 -0.546604,0.0833 -0.901264,0.0833 z"
           style="font-style:normal;font-variant:normal;font-weight:bold;font-stretch:normal;font-size:93.5132px;line-height:1.25;font-family:'Open Sans';-inkscape-font-specification:'Open Sans Bold';letter-spacing:-8.4455px;word-spacing:0px;fill:#4a5564;fill-opacity:1;stroke:none;stroke-width:0.236852"
           id="path1103"
           inkscape:connector-curvature="0" />
        <path
           sodipodi:nodetypes="ccsccccsccccccccscccscccccc"
           d="m 70.601755,293.18815 c -0.142131,0.53045 -0.435431,0.93446 -0.87988,1.21202 -0.441371,0.27756 -1.029055,0.41634 -1.763053,0.41634 -0.376246,0 -0.689958,-0.0262 -0.941128,-0.0786 -0.252005,-0.0494 -0.480444,-0.12336 -0.685303,-0.22205 l 0.312364,-1.16576 c 0.229085,0.12336 0.495929,0.22667 0.800526,0.30994 0.307674,0.0833 0.586413,0.12491 0.836215,0.12491 0.51195,0 0.807592,-0.14804 0.886925,-0.4441 0.02974,-0.11103 0.01979,-0.20046 -0.02987,-0.26831 -0.04886,-0.0709 -0.144973,-0.14958 -0.288368,-0.23593 -0.142575,-0.0894 -0.336944,-0.19275 -0.583099,-0.30994 -0.353222,-0.16654 -0.604886,-0.32074 -0.754992,-0.4626 -0.147036,-0.14187 -0.239347,-0.30378 -0.276939,-0.48574 -0.03368,-0.18504 -0.01458,-0.41171 0.05731,-0.68002 0.12313,-0.45952 0.39549,-0.81418 0.817089,-1.06399 0.425503,-0.25289 0.96516,-0.37933 1.61897,-0.37933 0.62297,0 1.192626,0.1357 1.70896,0.40709 l -0.698302,1.01772 c -0.229307,-0.11102 -0.447026,-0.202 -0.653157,-0.27293 -0.206123,-0.0709 -0.426371,-0.1064 -0.660757,-0.1064 -0.416347,0 -0.654679,0.11257 -0.714996,0.3377 -0.03389,0.12644 0.0031,0.23593 0.110909,0.32845 0.110902,0.0925 0.368652,0.22976 0.77325,0.41171 0.360211,0.16346 0.615377,0.31612 0.76549,0.45798 0.150114,0.14186 0.245092,0.30532 0.284936,0.49036 0.03986,0.18504 0.0255,0.40555 -0.0431,0.66152 z"
           style="font-style:normal;font-variant:normal;font-weight:bold;font-stretch:normal;font-size:93.5132px;line-height:1.25;font-family:'Open Sans';-inkscape-font-specification:'Open Sans Bold';letter-spacing:-8.4455px;word-spacing:0px;fill:#4a5564;fill-opacity:1;stroke:none;stroke-width:0.236852"
           id="path1105"
           inkscape:connector-curvature="0" />
        <path
           inkscape:connector-curvature="0"
           id="path1139"
           style="font-style:normal;font-variant:normal;font-weight:bold;font-stretch:normal;font-size:93.5132px;line-height:1.25;font-family:'Open Sans';-inkscape-font-specification:'Open Sans Bold';letter-spacing:-8.4455px;word-spacing:0px;fill:#c83737;fill-opacity:1;stroke:none;stroke-width:0.236852"
           d="m 41.001999,289.45495 c 0.191208,0 0.346318,0.0139 0.46533,0.0416 l -0.366135,1.32305 c -0.105841,-0.0308 -0.240507,-0.0463 -0.403955,-0.0463 -0.450273,0 -0.832839,0.11565 -1.147705,0.34695 -0.311782,0.2313 -0.523453,0.55512 -0.635011,0.97146 l -0.705298,2.63221 h -1.410936 l 1.385804,-5.17189 h 1.068611 l -0.02486,0.86969 h 0.06939 c 0.238048,-0.2899 0.516319,-0.52274 0.834814,-0.69853 0.322407,-0.17888 0.549207,-0.26831 0.869954,-0.26831 z"
           sodipodi:nodetypes="sccscscccccccs" />
        <path
           sodipodi:nodetypes="sccscscccccccs"
           d="m 61.143637,289.45495 c 0.191207,0 0.346316,0.0139 0.465325,0.0416 l -0.36613,1.32305 c -0.105837,-0.0308 -0.240499,-0.0463 -0.403945,-0.0463 -0.450264,0 -0.832839,0.11565 -1.147704,0.34695 -0.31178,0.2313 -0.523455,0.55512 -0.635003,0.97146 l -0.705305,2.63221 H 56.93994 l 1.385806,-5.17189 h 1.068608 l -0.02486,0.86969 h 0.06939 c 0.23804,-0.2899 0.516313,-0.52274 0.834805,-0.69853 0.32241,-0.17888 0.549209,-0.26831 0.869945,-0.26831 z"
           style="font-style:normal;font-variant:normal;font-weight:bold;font-stretch:normal;font-size:93.5132px;line-height:1.25;font-family:'Open Sans';-inkscape-font-specification:'Open Sans Bold';letter-spacing:-8.4455px;word-spacing:0px;fill:#4a5564;fill-opacity:1;stroke:none;stroke-width:0.236852"
           id="path1169"
           inkscape:connector-curvature="0" />
      </g>
      <g
         id="g988">
        <path
           id="path894"
           d="m 5.7272555,287.47499 c -1.3419449,1.05833 -2.6838784,2.11668 -4.0258165,3.17502 L 1.8472521e-5,296.99989 H 3.174939 l 1.7014543,-6.34988 h 0.7188569 l -1.0433338,3.89382 4.0257512,-3.17499 1.0433676,-3.89385 z"
           style="fill:#c83737;fill-opacity:1;stroke:none;stroke-width:0.0898579;stroke-linecap:square;stroke-linejoin:miter;stroke-miterlimit:4;stroke-dasharray:none;stroke-dashoffset:0;paint-order:normal"
           inkscape:connector-curvature="0" />
        <path
           inkscape:connector-curvature="0"
           id="path896"
           d="m 13.51481,287.47507 -4.025663,3.17494 -1.7014701,6.34998 h 3.1749391 z"
           style="fill:#4a5564;fill-opacity:1;stroke:none;stroke-width:0.0898579;stroke-linecap:square;stroke-linejoin:miter;stroke-miterlimit:4;stroke-dasharray:none;stroke-dashoffset:0;paint-order:normal" />
      </g>
    </g>
  </g>
</svg>
